<svg width="32" height="21" viewBox="0 0 32 21" fill="none" xmlns="http://www.w3.org/2000/svg">
<g clip-path="url(#clip0_192_63212)">
<path d="M9.47752 0C10.4364 0 11.3109 0.0844138 12.101 0.253793C12.8905 0.423172 13.568 0.70069 14.1319 1.08579C14.6957 1.47145 15.1332 1.984 15.4433 2.62345C15.7539 3.2629 15.909 4.05241 15.909 4.9931C15.909 6.00828 15.6783 6.85462 15.2177 7.53159C14.757 8.20855 14.075 8.76303 13.173 9.19559C14.4138 9.5531 15.3401 10.1782 15.9514 11.0714C16.5622 11.9647 16.8684 13.0417 16.8684 14.3012C16.8684 15.317 16.6709 16.1959 16.2759 16.939C15.8814 17.6822 15.3495 18.2886 14.6825 18.7575C14.0149 19.2281 13.253 19.5757 12.3978 19.8019C11.5415 20.0276 10.6632 20.1401 9.76055 20.1401H0V0H9.47752ZM8.9131 8.15228C9.70317 8.15228 10.3514 7.96414 10.8596 7.58786C11.3672 7.21214 11.621 6.60083 11.621 5.75448C11.621 5.28441 11.5366 4.89876 11.3672 4.59807C11.1978 4.29738 10.9721 4.06179 10.6902 3.89297C10.4077 3.72359 10.0839 3.60662 9.71697 3.54041C9.35007 3.47476 8.96938 3.44165 8.57435 3.44165H4.42814V8.15228H8.9131ZM9.1669 16.6985C9.59945 16.6985 10.0132 16.656 10.4077 16.5716C10.8028 16.4866 11.1503 16.3459 11.4516 16.1484C11.7523 15.9514 11.9917 15.6833 12.171 15.3446C12.3492 15.0063 12.4386 14.5738 12.4386 14.0469C12.4386 13.013 12.1468 12.2748 11.5641 11.8328C10.981 11.3909 10.2102 11.1697 9.25131 11.1697H4.42814V16.6979H9.1669V16.6985Z" fill="white"/>
<path d="M22.4409 16.2755C23.0428 16.8592 23.9073 17.15 25.0356 17.15C25.8439 17.15 26.5402 16.948 27.1228 16.5436C27.706 16.1398 28.0629 15.7116 28.1948 15.2603H31.7209C31.157 17.0093 30.2913 18.26 29.1261 19.012C27.9597 19.764 26.5495 20.1403 24.8949 20.1403C23.7479 20.1403 22.7134 19.9572 21.792 19.5903C20.8706 19.2239 20.09 18.702 19.4511 18.025C18.8116 17.348 18.3178 16.5398 17.9702 15.5996C17.6221 14.6595 17.4489 13.625 17.4489 12.4967C17.4489 11.3685 17.6271 10.3908 17.9846 9.45067C18.3415 8.51053 18.8491 7.69729 19.5079 7.01094C20.1655 6.3246 20.9512 5.78391 21.8632 5.38887C22.7752 4.99384 23.786 4.79688 24.8955 4.79688C26.1369 4.79688 27.2177 5.03632 28.1391 5.51577C29.0604 5.99522 29.8174 6.64019 30.41 7.44791C31.002 8.25674 31.4295 9.17812 31.6933 10.212C31.9564 11.2465 32.0502 12.3274 31.9752 13.4556H21.4544C21.5106 14.7527 21.8389 15.6934 22.4414 16.276L22.4409 16.2755ZM26.9683 8.60322C26.4889 8.07687 25.76 7.8137 24.7824 7.8137C24.1429 7.8137 23.6122 7.92184 23.189 8.13812C22.7658 8.35494 22.4271 8.62198 22.1733 8.94198C21.9195 9.26198 21.7407 9.60019 21.6375 9.95715C21.5338 10.3147 21.4726 10.6341 21.4538 10.916H27.9697C27.7815 9.90032 27.4483 9.12956 26.9683 8.60267V8.60322Z" fill="white"/>
<path d="M28.9103 1.02246H20.7697V3.27956H28.9103V1.02246Z" fill="white"/>
</g>
<defs>
<clipPath id="clip0_192_63212">
<rect width="32" height="20.1396" fill="white"/>
</clipPath>
</defs>
</svg>
