<svg xmlns="http://www.w3.org/2000/svg" fill="none" viewBox="0 0 2604 2604">
  <g filter="url(#a)">
    <path fill="#356bec" d="M1788.51 1163.87c3.65-70.15-8.65-139.83-33.7-205.417-1.37-3.644-2.74-6.832-4.1-10.475-19.14-46.457-43.73-87.904-75.16-129.351-5.02-6.376-10.03-12.297-15.04-18.674-46.91-55.566-99.3-98.835-162.16-135.727-102.49-59.665-214.09-88.359-328.88-91.092-130.28-2.733-258.737 27.783-375.805 90.637-1.822.911-3.188 1.366-5.011 2.277-17.765 10.02-33.708 19.129-51.473 30.06-18.221 11.842-34.164 22.773-51.929 35.982-38.719 29.149-71.516 58.299-104.313 92.458-38.719 40.536-70.15 81.072-102.036 128.895-1.822 2.277-2.733 5.01-4.1 7.287-20.042 30.061-35.074 58.75-51.018 89.73-3.644 7.28-6.832 14.57-10.476 21.86-7.744 15.94-13.21 31.88-20.499 47.82-.911 1.82-.911 4.1-1.822 5.92-21.409 52.84-35.986 105.21-49.651 161.69-2.733 10.02-4.555 20.04-9.11 29.61-.456.91-.456 3.64-2.278 2.27-2.733-1.82-1.822-6.37-1.822-9.56-1.367-18.68.455-37.35 2.733-56.02v-3.65c4.1-30.51 8.655-59.21 16.399-89.27.455-1.82.455-4.1.911-5.92.455-1.82 1.366-3.64 1.822-5.46C410.12 906.075 564.54 706.128 782.733 585.432c1.822-.911 4.099-1.822 5.921-2.733 80.171-44.18 160.342-72.418 251.446-90.181 2.73-.456 5.01-.456 7.29-.911 123.44-22.773 241.42-16.852 360.77 15.941 56.94 15.941 109.32 36.892 161.25 64.675 71.06 38.259 132.1 84.716 188.13 142.559 3.64 4.099 7.29 8.198 11.39 12.298 59.67 65.586 105.68 138.459 137.56 219.987 1.82 5.465 3.65 10.475 5.92 15.941 52.84 143.472 56.49 301.512 4.1 445.892-2.27 5.47-4.1 10.48-5.92 15.94-53.29 138.01-156.24 252.78-291.07 315.64-57.4 26.87-117.53 42.36-179.93 47.82 87 4.56 173.09-15.03 251.9-54.2 138.93-69.23 241.42-192.2 295.17-336.13 27.33-73.78 41.91-150.76 43.73-228.64 1.37-71.96-6.83-141.65-25.96-212.699-52.39-194.026-166.72-350.704-337.54-465.935-1.37-.911-1.82-1.822-3.19-2.733-43.27-28.694-84.27-52.378-129.82-72.873-.91-.456-1.82-1.367-2.73-1.822-15.95-7.287-31.89-13.208-47.83-20.496-1.82-.911-4.1-.911-5.92-1.822-22.32-9.564-44.19-16.852-67.42-24.139-10.02-2.733-19.13-5.921-29.15-8.654-2.28-.455-4.56-.911-6.38-1.366-3.65-1.822-7.74-2.277-11.39-3.188-25.51-7.743-51.47-12.298-76.07-20.951h-.91c-.91-.911-3.19-1.367-2.28-2.733 1.82-2.733 6.38-1.822 9.57-1.822 30.97-1.822 60.58 2.277 92.01 7.287 29.61 5.01 56.94 10.931 85.64 18.674 22.77 6.377 44.18 13.209 66.05 20.951 12.75 5.01 25.51 9.11 37.81 14.575 7.28 3.188 14.12 5.921 21.41 9.109 2.27.911 4.55 2.278 6.83 3.644 73.34 32.793 138.48 73.784 202.25 125.251l3.64 3.644c17.31 13.664 31.89 27.783 47.83 42.358 20.5 19.584 39.18 38.714 57.4 61.031l4.1 4.099c38.72 46.002 70.6 91.548 99.75 143.926.92 1.822 1.83 4.099 2.74 5.921 56.03 101.112 88.37 208.145 100.21 322.013 1.82 19.58 3.19 38.71 3.65 58.3 1.36 52.37-1.83 103.38-10.48 156.22-14.58 87.45-41 166.7-82.91 244.12-2.73 4.56-5.01 9.11-7.74 14.12-45.1 80.62-100.67 147.57-172.18 207.24-4.56 3.64-8.66 6.83-13.21 10.47-52.39 41.45-106.14 73.33-166.27 98.84-117.07 48.73-241.42 66.5-369.42 44.63-5.92-.91-10.93-2.27-16.86-3.18-147.58-28.24-271.48-102.03-362.588-222.27-63.772-84.26-99.758-178.54-107.958-279.65-2.277 46 1.367 91.09 12.755 137.09.455 1.82.455 3.65.911 5.47 1.367 5.46 2.733 10.47 4.555 15.48 1.822 7.29 3.644 14.12 6.377 20.95l1.367 5.47c1.822 5.01 3.644 10.48 5.466 15.49 14.577 37.8 32.342 71.96 54.207 107.03.911 1.82 2.277 2.73 3.644 4.55 22.32 35.07 46.918 63.31 75.616 91.55 31.888 32.34 65.138 58.75 104.308 83.35 1.83 1.37 3.19 2.28 5.02 3.64 38.26 23.23 75.16 41.45 116.15 56.94 46.47 17.3 93.38 29.14 143.03 36.43 138.03 19.59 274.68 0 400.86-54.65 1.82-.91 3.64-.91 5.47-1.82 10.47-4.56 20.04-9.57 30.52-14.12 10.02-5.01 19.58-10.02 29.6-15.03 15.95-9.11 30.98-17.77 46.92-27.33 1.37-.91 2.74-2.28 4.1-3.19 61.04-38.26 111.15-80.16 159.89-131.63 34.16-36.43 63.31-72.42 91.56-115.23.91-1.37 1.82-1.82 2.73-3.19 5.47-8.2 10.02-15.94 15.49-24.14 9.11-15.03 17.31-28.69 25.51-43.72 10.93-20.5 20.49-40.08 30.52-61.03 10.93-24.14 20.49-47.83 29.6-72.42 18.68-51.92 32.35-102.93 46.01-157.59.91-5.01 1.82-10.48 5.47-14.57h.91c2.28 3.18 1.82 7.74 1.82 11.38.91 48.74-6.83 95.65-18.22 144.84-1.37 5.92-2.73 10.93-4.1 16.85-.45 1.82-1.37 3.64-1.82 5.47-24.14 94.73-61.04 176.26-114.79 259.61-.91 1.36-1.37 2.73-2.28 4.1-3.64 5.46-7.29 10.02-10.48 15.94-3.64 5.46-7.74 10.47-11.38 15.94-16.4 23.23-31.89 42.81-50.11 63.76-10.93 12.3-20.95 23.69-32.34 35.53-20.05 20.5-38.72 39.17-61.04 57.39l-4.1 4.1c-31.89 25.96-61.04 49.19-96.12 70.59-1.82 1.37-3.18 2.28-5.01 3.65-12.75 7.74-24.59 15.03-37.35 22.31-7.74 4.1-14.57 8.2-22.32 12.3-98.39 51.47-201.34 82.9-311.12 93.83-113.88 11.38-225.93-.46-334.8-36.44-135.29-44.64-252.358-122.06-345.283-233.2-3.644-4.55-6.833-8.65-10.477-13.2-47.374-59.21-82.449-120.7-108.413-189.93-6.833-18.67-13.21-36.89-18.676-56.48-10.022-36.43-16.854-71.96-21.41-109.31-16.854-147.11 13.21-289.67 97.937-417.65 3.188-5.01 6.377-9.11 9.565-14.12 59.673-83.809 132.1-145.751 222.293-187.653l15.032-6.832c52.842-22.773 108.412-35.982 165.352-40.992-46.01-2.277-91.1 1.367-137.11 12.753-1.82.456-3.64.456-5.47.911-5.46 1.367-10.47 2.733-15.48 4.555-7.292 1.822-14.125 3.643-20.958 6.376l-5.466 1.367c-3.644 1.366-6.833 2.277-10.477 3.643-3.644 1.367-6.833 2.733-10.477 4.099-1.822.456-3.188 1.367-5.01 2.278-1.823.455-3.645.911-5.467 1.821-12.299 5.466-24.142 10.476-35.985 16.397-10.477 5.466-20.043 10.931-30.52 16.397-8.655 4.554-15.943 10.02-24.598 15.485-71.972 46.457-125.723 100.655-173.096 172.615-2.278 3.65-4.1 6.84-6.833 10.48-5.011 7.29-8.199 13.66-12.755 20.95l-2.733 5.47c-50.107 86.08-76.071 177.63-85.637 274.64-11.388 119.33 7.744 237.75 52.385 348.43 24.142 59.66 52.839 112.95 91.558 167.6 4.1 5.93 8.2 10.94 12.299 16.86 63.317 84.71 132.556 148.02 221.382 206.32 1.366.91 2.277.91 3.644 1.82 19.587 13.21 37.352 23.23 57.394 34.62 2.28 1.36 4.56 2.27 6.83 3.18 87.92 48.28 177.66 76.52 275.59 100.66 8.2 1.82 16.4 2.73 23.23 7.74.46.46-.45.92-.45 1.37-1.37.91-3.19.91-5.01 1.37-1.83.45-4.1 0-5.93 0-16.39.91-32.79 0-49.19-2.28h-3.65c-6.37-.91-12.75-1.37-19.13-2.28-51.93-7.74-101.12-18.67-150.32-35.98-2.28-.91-4.55-.91-6.83-1.82-69.69-25.05-133.467-53.75-197.695-96.56-1.366-.91-2.733-1.36-4.099-2.28-6.833-5.01-13.21-8.19-20.043-13.2-5.466-4.1-10.477-7.29-15.943-11.39-1.367-.91-2.278-2.28-3.644-3.19-122.534-89.27-213.182-199.03-276.043-331.57-1.822-4.1-4.1-7.29-5.922-11.39-12.755-28.69-24.143-56.93-34.164-86.54-12.299-37.8-21.865-73.78-29.608-113.41-.456-2.73-.456-5.01-.912-7.28-25.964-142.11-14.576-280.11 32.342-413.11 2.733-7.74 5.466-15.03 8.199-22.31 12.755-32.34 26.876-62.86 43.73-93.83 9.566-16.85 18.221-31.88 29.153-48.277 33.253-50.1 67.417-92.002 109.78-132.538 4.099-3.644 8.199-7.288 12.299-11.387 25.053-23.228 49.651-42.358 78.349-62.398 19.587-13.208 37.352-24.139 57.395-35.526 2.733-1.366 5.01-2.277 7.743-3.643 94.292-51.923 196.783-79.25 302.013-82.894 68.78-2.277 136.65 5.921 203.61 25.961 27.79 8.654 53.75 18.219 80.17 30.06 75.62 34.615 141.21 81.983 197.24 145.292 78.35 88.815 125.72 197.21 134.83 312.45"/>
  </g>
  <g filter="url(#b)">
    <path fill="#1441ac" d="M1788.51 1163.87c3.65-70.15-8.65-139.83-33.7-205.417-1.37-3.644-2.74-6.832-4.1-10.475-19.14-46.457-43.73-87.904-75.16-129.351-5.02-6.376-10.03-12.297-15.04-18.674-46.91-55.566-99.3-98.835-162.16-135.727-102.49-59.665-214.09-88.359-328.88-91.092-130.28-2.733-258.737 27.783-375.805 90.637-1.822.911-3.188 1.366-5.011 2.277-17.765 10.02-33.708 19.129-51.473 30.06-18.221 11.842-34.164 22.773-51.929 35.982-38.719 29.149-71.516 58.299-104.313 92.458-38.719 40.536-70.15 81.072-102.036 128.895-1.822 2.277-2.733 5.01-4.1 7.287-20.042 30.061-35.074 58.75-51.018 89.73-3.644 7.28-6.832 14.57-10.476 21.86-7.744 15.94-13.21 31.88-20.499 47.82-.911 1.82-.911 4.1-1.822 5.92-21.409 52.84-35.986 105.21-49.651 161.69-2.733 10.02-4.555 20.04-9.11 29.61-.456.91-.456 3.64-2.278 2.27-2.733-1.82-1.822-6.37-1.822-9.56-1.367-18.68.455-37.35 2.733-56.02v-3.65c4.1-30.51 8.655-59.21 16.399-89.27.455-1.82.455-4.1.911-5.92.455-1.82 1.366-3.64 1.822-5.46C410.12 906.075 564.54 706.128 782.733 585.432c1.822-.911 4.099-1.822 5.921-2.733 80.171-44.18 160.342-72.418 251.446-90.181 2.73-.456 5.01-.456 7.29-.911 123.44-22.773 241.42-16.852 360.77 15.941 56.94 15.941 109.32 36.892 161.25 64.675 71.06 38.259 132.1 84.716 188.13 142.559 3.64 4.099 7.29 8.198 11.39 12.298 59.67 65.586 105.68 138.459 137.56 219.987 1.82 5.465 3.65 10.475 5.92 15.941 52.84 143.472 56.49 301.512 4.1 445.892-2.27 5.47-4.1 10.48-5.92 15.94-53.29 138.01-156.24 252.78-291.07 315.64-57.4 26.87-117.53 42.36-179.93 47.82 87 4.56 173.09-15.03 251.9-54.2 138.93-69.23 241.42-192.2 295.17-336.13 27.33-73.78 41.91-150.76 43.73-228.64 1.37-71.96-6.83-141.65-25.96-212.699-52.39-194.026-166.72-350.704-337.54-465.935-1.37-.911-1.82-1.822-3.19-2.733-43.27-28.694-84.27-52.378-129.82-72.873-.91-.456-1.82-1.367-2.73-1.822-15.95-7.287-31.89-13.208-47.83-20.496-1.82-.911-4.1-.911-5.92-1.822-22.32-9.564-44.19-16.852-67.42-24.139-10.02-2.733-19.13-5.921-29.15-8.654-2.28-.455-4.56-.911-6.38-1.366-3.65-1.822-7.74-2.277-11.39-3.188-25.51-7.743-51.47-12.298-76.07-20.951h-.91c-.91-.911-3.19-1.367-2.28-2.733 1.82-2.733 6.38-1.822 9.57-1.822 30.97-1.822 60.58 2.277 92.01 7.287 29.61 5.01 56.94 10.931 85.64 18.674 22.77 6.377 44.18 13.209 66.05 20.951 12.75 5.01 25.51 9.11 37.81 14.575 7.28 3.188 14.12 5.921 21.41 9.109 2.27.911 4.55 2.278 6.83 3.644 73.34 32.793 138.48 73.784 202.25 125.251l3.64 3.644c17.31 13.664 31.89 27.783 47.83 42.358 20.5 19.584 39.18 38.714 57.4 61.031l4.1 4.099c38.72 46.002 70.6 91.548 99.75 143.926.92 1.822 1.83 4.099 2.74 5.921 56.03 101.112 88.37 208.145 100.21 322.013 1.82 19.58 3.19 38.71 3.65 58.3 1.36 52.37-1.83 103.38-10.48 156.22-14.58 87.45-41 166.7-82.91 244.12-2.73 4.56-5.01 9.11-7.74 14.12-45.1 80.62-100.67 147.57-172.18 207.24-4.56 3.64-8.66 6.83-13.21 10.47-52.39 41.45-106.14 73.33-166.27 98.84-117.07 48.73-241.42 66.5-369.42 44.63-5.92-.91-10.93-2.27-16.86-3.18-147.58-28.24-271.48-102.03-362.588-222.27-63.772-84.26-99.758-178.54-107.958-279.65-2.277 46 1.367 91.09 12.755 137.09.455 1.82.455 3.65.911 5.47 1.367 5.46 2.733 10.47 4.555 15.48 1.822 7.29 3.644 14.12 6.377 20.95l1.367 5.47c1.822 5.01 3.644 10.48 5.466 15.49 14.577 37.8 32.342 71.96 54.207 107.03.911 1.82 2.277 2.73 3.644 4.55 22.32 35.07 46.918 63.31 75.616 91.55 31.888 32.34 65.138 58.75 104.308 83.35 1.83 1.37 3.19 2.28 5.02 3.64 38.26 23.23 75.16 41.45 116.15 56.94 46.47 17.3 93.38 29.14 143.03 36.43 138.03 19.59 274.68 0 400.86-54.65 1.82-.91 3.64-.91 5.47-1.82 10.47-4.56 20.04-9.57 30.52-14.12 10.02-5.01 19.58-10.02 29.6-15.03 15.95-9.11 30.98-17.77 46.92-27.33 1.37-.91 2.74-2.28 4.1-3.19 61.04-38.26 111.15-80.16 159.89-131.63 34.16-36.43 63.31-72.42 91.56-115.23.91-1.37 1.82-1.82 2.73-3.19 5.47-8.2 10.02-15.94 15.49-24.14 9.11-15.03 17.31-28.69 25.51-43.72 10.93-20.5 20.49-40.08 30.52-61.03 10.93-24.14 20.49-47.83 29.6-72.42 18.68-51.92 32.35-102.93 46.01-157.59.91-5.01 1.82-10.48 5.47-14.57h.91c2.28 3.18 1.82 7.74 1.82 11.38.91 48.74-6.83 95.65-18.22 144.84-1.37 5.92-2.73 10.93-4.1 16.85-.45 1.82-1.37 3.64-1.82 5.47-24.14 94.73-61.04 176.26-114.79 259.61-.91 1.36-1.37 2.73-2.28 4.1-3.64 5.46-7.29 10.02-10.48 15.94-3.64 5.46-7.74 10.47-11.38 15.94-16.4 23.23-31.89 42.81-50.11 63.76-10.93 12.3-20.95 23.69-32.34 35.53-20.05 20.5-38.72 39.17-61.04 57.39l-4.1 4.1c-31.89 25.96-61.04 49.19-96.12 70.59-1.82 1.37-3.18 2.28-5.01 3.65-12.75 7.74-24.59 15.03-37.35 22.31-7.74 4.1-14.57 8.2-22.32 12.3-98.39 51.47-201.34 82.9-311.12 93.83-113.88 11.38-225.93-.46-334.8-36.44-135.29-44.64-252.358-122.06-345.283-233.2-3.644-4.55-6.833-8.65-10.477-13.2-47.374-59.21-82.449-120.7-108.413-189.93-6.833-18.67-13.21-36.89-18.676-56.48-10.022-36.43-16.854-71.96-21.41-109.31-16.854-147.11 13.21-289.67 97.937-417.65 3.188-5.01 6.377-9.11 9.565-14.12 59.673-83.809 132.1-145.751 222.293-187.653l15.032-6.832c52.842-22.773 108.412-35.982 165.352-40.992-46.01-2.277-91.1 1.367-137.11 12.753-1.82.456-3.64.456-5.47.911-5.46 1.367-10.47 2.733-15.48 4.555-7.292 1.822-14.125 3.643-20.958 6.376l-5.466 1.367c-3.644 1.366-6.833 2.277-10.477 3.643-3.644 1.367-6.833 2.733-10.477 4.099-1.822.456-3.188 1.367-5.01 2.278-1.823.455-3.645.911-5.467 1.821-12.299 5.466-24.142 10.476-35.985 16.397-10.477 5.466-20.043 10.931-30.52 16.397-8.655 4.554-15.943 10.02-24.598 15.485-71.972 46.457-125.723 100.655-173.096 172.615-2.278 3.65-4.1 6.84-6.833 10.48-5.011 7.29-8.199 13.66-12.755 20.95l-2.733 5.47c-50.107 86.08-76.071 177.63-85.637 274.64-11.388 119.33 7.744 237.75 52.385 348.43 24.142 59.66 52.839 112.95 91.558 167.6 4.1 5.93 8.2 10.94 12.299 16.86 63.317 84.71 132.556 148.02 221.382 206.32 1.366.91 2.277.91 3.644 1.82 19.587 13.21 37.352 23.23 57.394 34.62 2.28 1.36 4.56 2.27 6.83 3.18 87.92 48.28 177.66 76.52 275.59 100.66 8.2 1.82 16.4 2.73 23.23 7.74.46.46-.45.92-.45 1.37-1.37.91-3.19.91-5.01 1.37-1.83.45-4.1 0-5.93 0-16.39.91-32.79 0-49.19-2.28h-3.65c-6.37-.91-12.75-1.37-19.13-2.28-51.93-7.74-101.12-18.67-150.32-35.98-2.28-.91-4.55-.91-6.83-1.82-69.69-25.05-133.467-53.75-197.695-96.56-1.366-.91-2.733-1.36-4.099-2.28-6.833-5.01-13.21-8.19-20.043-13.2-5.466-4.1-10.477-7.29-15.943-11.39-1.367-.91-2.278-2.28-3.644-3.19-122.534-89.27-213.182-199.03-276.043-331.57-1.822-4.1-4.1-7.29-5.922-11.39-12.755-28.69-24.143-56.93-34.164-86.54-12.299-37.8-21.865-73.78-29.608-113.41-.456-2.73-.456-5.01-.912-7.28-25.964-142.11-14.576-280.11 32.342-413.11 2.733-7.74 5.466-15.03 8.199-22.31 12.755-32.34 26.876-62.86 43.73-93.83 9.566-16.85 18.221-31.88 29.153-48.277 33.253-50.1 67.417-92.002 109.78-132.538 4.099-3.644 8.199-7.288 12.299-11.387 25.053-23.228 49.651-42.358 78.349-62.398 19.587-13.208 37.352-24.139 57.395-35.526 2.733-1.366 5.01-2.277 7.743-3.643 94.292-51.923 196.783-79.25 302.013-82.894 68.78-2.277 136.65 5.921 203.61 25.961 27.79 8.654 53.75 18.219 80.17 30.06 75.62 34.615 141.21 81.983 197.24 145.292 78.35 88.815 125.72 197.21 134.83 312.45"/>
  </g>
  <g filter="url(#c)">
    <path fill="#3169ef" d="M1788.51 1163.87c3.65-70.15-8.65-139.83-33.7-205.417-1.37-3.644-2.74-6.832-4.1-10.475-19.14-46.457-43.73-87.904-75.16-129.351-5.02-6.376-10.03-12.297-15.04-18.674-46.91-55.566-99.3-98.835-162.16-135.727-102.49-59.665-214.09-88.359-328.88-91.092-130.28-2.733-258.737 27.783-375.805 90.637-1.822.911-3.188 1.366-5.011 2.277-17.765 10.02-33.708 19.129-51.473 30.06-18.221 11.842-34.164 22.773-51.929 35.982-38.719 29.149-71.516 58.299-104.313 92.458-38.719 40.536-70.15 81.072-102.036 128.895-1.822 2.277-2.733 5.01-4.1 7.287-20.042 30.061-35.074 58.75-51.018 89.73-3.644 7.28-6.832 14.57-10.476 21.86-7.744 15.94-13.21 31.88-20.499 47.82-.911 1.82-.911 4.1-1.822 5.92-21.409 52.84-35.986 105.21-49.651 161.69-2.733 10.02-4.555 20.04-9.11 29.61-.456.91-.456 3.64-2.278 2.27-2.733-1.82-1.822-6.37-1.822-9.56-1.367-18.68.455-37.35 2.733-56.02v-3.65c4.1-30.51 8.655-59.21 16.399-89.27.455-1.82.455-4.1.911-5.92.455-1.82 1.366-3.64 1.822-5.46C410.12 906.075 564.54 706.128 782.733 585.432c1.822-.911 4.099-1.822 5.921-2.733 80.171-44.18 160.342-72.418 251.446-90.181 2.73-.456 5.01-.456 7.29-.911 123.44-22.773 241.42-16.852 360.77 15.941 56.94 15.941 109.32 36.892 161.25 64.675 71.06 38.259 132.1 84.716 188.13 142.559 3.64 4.099 7.29 8.198 11.39 12.298 59.67 65.586 105.68 138.459 137.56 219.987 1.82 5.465 3.65 10.475 5.92 15.941 52.84 143.472 56.49 301.512 4.1 445.892-2.27 5.47-4.1 10.48-5.92 15.94-53.29 138.01-156.24 252.78-291.07 315.64-57.4 26.87-117.53 42.36-179.93 47.82 87 4.56 173.09-15.03 251.9-54.2 138.93-69.23 241.42-192.2 295.17-336.13 27.33-73.78 41.91-150.76 43.73-228.64 1.37-71.96-6.83-141.65-25.96-212.699-52.39-194.026-166.72-350.704-337.54-465.935-1.37-.911-1.82-1.822-3.19-2.733-43.27-28.694-84.27-52.378-129.82-72.873-.91-.456-1.82-1.367-2.73-1.822-15.95-7.287-31.89-13.208-47.83-20.496-1.82-.911-4.1-.911-5.92-1.822-22.32-9.564-44.19-16.852-67.42-24.139-10.02-2.733-19.13-5.921-29.15-8.654-2.28-.455-4.56-.911-6.38-1.366-3.65-1.822-7.74-2.277-11.39-3.188-25.51-7.743-51.47-12.298-76.07-20.951h-.91c-.91-.911-3.19-1.367-2.28-2.733 1.82-2.733 6.38-1.822 9.57-1.822 30.97-1.822 60.58 2.277 92.01 7.287 29.61 5.01 56.94 10.931 85.64 18.674 22.77 6.377 44.18 13.209 66.05 20.951 12.75 5.01 25.51 9.11 37.81 14.575 7.28 3.188 14.12 5.921 21.41 9.109 2.27.911 4.55 2.278 6.83 3.644 73.34 32.793 138.48 73.784 202.25 125.251l3.64 3.644c17.31 13.664 31.89 27.783 47.83 42.358 20.5 19.584 39.18 38.714 57.4 61.031l4.1 4.099c38.72 46.002 70.6 91.548 99.75 143.926.92 1.822 1.83 4.099 2.74 5.921 56.03 101.112 88.37 208.145 100.21 322.013 1.82 19.58 3.19 38.71 3.65 58.3 1.36 52.37-1.83 103.38-10.48 156.22-14.58 87.45-41 166.7-82.91 244.12-2.73 4.56-5.01 9.11-7.74 14.12-45.1 80.62-100.67 147.57-172.18 207.24-4.56 3.64-8.66 6.83-13.21 10.47-52.39 41.45-106.14 73.33-166.27 98.84-117.07 48.73-241.42 66.5-369.42 44.63-5.92-.91-10.93-2.27-16.86-3.18-147.58-28.24-271.48-102.03-362.588-222.27-63.772-84.26-99.758-178.54-107.958-279.65-2.277 46 1.367 91.09 12.755 137.09.455 1.82.455 3.65.911 5.47 1.367 5.46 2.733 10.47 4.555 15.48 1.822 7.29 3.644 14.12 6.377 20.95l1.367 5.47c1.822 5.01 3.644 10.48 5.466 15.49 14.577 37.8 32.342 71.96 54.207 107.03.911 1.82 2.277 2.73 3.644 4.55 22.32 35.07 46.918 63.31 75.616 91.55 31.888 32.34 65.138 58.75 104.308 83.35 1.83 1.37 3.19 2.28 5.02 3.64 38.26 23.23 75.16 41.45 116.15 56.94 46.47 17.3 93.38 29.14 143.03 36.43 138.03 19.59 274.68 0 400.86-54.65 1.82-.91 3.64-.91 5.47-1.82 10.47-4.56 20.04-9.57 30.52-14.12 10.02-5.01 19.58-10.02 29.6-15.03 15.95-9.11 30.98-17.77 46.92-27.33 1.37-.91 2.74-2.28 4.1-3.19 61.04-38.26 111.15-80.16 159.89-131.63 34.16-36.43 63.31-72.42 91.56-115.23.91-1.37 1.82-1.82 2.73-3.19 5.47-8.2 10.02-15.94 15.49-24.14 9.11-15.03 17.31-28.69 25.51-43.72 10.93-20.5 20.49-40.08 30.52-61.03 10.93-24.14 20.49-47.83 29.6-72.42 18.68-51.92 32.35-102.93 46.01-157.59.91-5.01 1.82-10.48 5.47-14.57h.91c2.28 3.18 1.82 7.74 1.82 11.38.91 48.74-6.83 95.65-18.22 144.84-1.37 5.92-2.73 10.93-4.1 16.85-.45 1.82-1.37 3.64-1.82 5.47-24.14 94.73-61.04 176.26-114.79 259.61-.91 1.36-1.37 2.73-2.28 4.1-3.64 5.46-7.29 10.02-10.48 15.94-3.64 5.46-7.74 10.47-11.38 15.94-16.4 23.23-31.89 42.81-50.11 63.76-10.93 12.3-20.95 23.69-32.34 35.53-20.05 20.5-38.72 39.17-61.04 57.39l-4.1 4.1c-31.89 25.96-61.04 49.19-96.12 70.59-1.82 1.37-3.18 2.28-5.01 3.65-12.75 7.74-24.59 15.03-37.35 22.31-7.74 4.1-14.57 8.2-22.32 12.3-98.39 51.47-201.34 82.9-311.12 93.83-113.88 11.38-225.93-.46-334.8-36.44-135.29-44.64-252.358-122.06-345.283-233.2-3.644-4.55-6.833-8.65-10.477-13.2-47.374-59.21-82.449-120.7-108.413-189.93-6.833-18.67-13.21-36.89-18.676-56.48-10.022-36.43-16.854-71.96-21.41-109.31-16.854-147.11 13.21-289.67 97.937-417.65 3.188-5.01 6.377-9.11 9.565-14.12 59.673-83.809 132.1-145.751 222.293-187.653l15.032-6.832c52.842-22.773 108.412-35.982 165.352-40.992-46.01-2.277-91.1 1.367-137.11 12.753-1.82.456-3.64.456-5.47.911-5.46 1.367-10.47 2.733-15.48 4.555-7.292 1.822-14.125 3.643-20.958 6.376l-5.466 1.367c-3.644 1.366-6.833 2.277-10.477 3.643-3.644 1.367-6.833 2.733-10.477 4.099-1.822.456-3.188 1.367-5.01 2.278-1.823.455-3.645.911-5.467 1.821-12.299 5.466-24.142 10.476-35.985 16.397-10.477 5.466-20.043 10.931-30.52 16.397-8.655 4.554-15.943 10.02-24.598 15.485-71.972 46.457-125.723 100.655-173.096 172.615-2.278 3.65-4.1 6.84-6.833 10.48-5.011 7.29-8.199 13.66-12.755 20.95l-2.733 5.47c-50.107 86.08-76.071 177.63-85.637 274.64-11.388 119.33 7.744 237.75 52.385 348.43 24.142 59.66 52.839 112.95 91.558 167.6 4.1 5.93 8.2 10.94 12.299 16.86 63.317 84.71 132.556 148.02 221.382 206.32 1.366.91 2.277.91 3.644 1.82 19.587 13.21 37.352 23.23 57.394 34.62 2.28 1.36 4.56 2.27 6.83 3.18 87.92 48.28 177.66 76.52 275.59 100.66 8.2 1.82 16.4 2.73 23.23 7.74.46.46-.45.92-.45 1.37-1.37.91-3.19.91-5.01 1.37-1.83.45-4.1 0-5.93 0-16.39.91-32.79 0-49.19-2.28h-3.65c-6.37-.91-12.75-1.37-19.13-2.28-51.93-7.74-101.12-18.67-150.32-35.98-2.28-.91-4.55-.91-6.83-1.82-69.69-25.05-133.467-53.75-197.695-96.56-1.366-.91-2.733-1.36-4.099-2.28-6.833-5.01-13.21-8.19-20.043-13.2-5.466-4.1-10.477-7.29-15.943-11.39-1.367-.91-2.278-2.28-3.644-3.19-122.534-89.27-213.182-199.03-276.043-331.57-1.822-4.1-4.1-7.29-5.922-11.39-12.755-28.69-24.143-56.93-34.164-86.54-12.299-37.8-21.865-73.78-29.608-113.41-.456-2.73-.456-5.01-.912-7.28-25.964-142.11-14.576-280.11 32.342-413.11 2.733-7.74 5.466-15.03 8.199-22.31 12.755-32.34 26.876-62.86 43.73-93.83 9.566-16.85 18.221-31.88 29.153-48.277 33.253-50.1 67.417-92.002 109.78-132.538 4.099-3.644 8.199-7.288 12.299-11.387 25.053-23.228 49.651-42.358 78.349-62.398 19.587-13.208 37.352-24.139 57.395-35.526 2.733-1.366 5.01-2.277 7.743-3.643 94.292-51.923 196.783-79.25 302.013-82.894 68.78-2.277 136.65 5.921 203.61 25.961 27.79 8.654 53.75 18.219 80.17 30.06 75.62 34.615 141.21 81.983 197.24 145.292 78.35 88.815 125.72 197.21 134.83 312.45"/>
  </g>
  <g filter="url(#d)">
    <use href="#e"/>
  </g>
  <g filter="url(#f)">
    <path fill="#7e18ea" d="M929.1 1407.53c-6.41 114.44 42.404 224.94 123.76 306.82 23.18 23.19 46.84 42.43 74.95 61.17 32.54 21.21 64.1 37 99.11 50.32 29.09 10.85 57.2 18.74 88.26 24.66 91.22 17.27 177.51 10.85 264.78-14.8 38.96-11.84 74.95-26.63 110.95-45.38 121.29-64.13 214.98-164.27 277.6-286.11 1.48-3.45 2.96-6.41 4.93-9.86 31.56-63.15 50.29-127.27 67.06-196.83.99-3.45 2.46-6.41 3.94-9.86h.99c2.96 3.45.49 8.38 1.97 12.33-.49 21.7-2.46 42.92-5.91 64.62-5.92 35.52-14.3 68.07-25.15 101.62-9.37 28.12-20.71 54.75-33.04 81.39-9.37 19.73-19.72 37.49-30.57 56.73-.98 1.48-1.97 2.47-2.96 3.95-45.36 76.46-100.59 136.14-171.59 189.91-40.43 30.59-79.88 54.76-124.75 74.98-12.82 5.92-25.64 10.86-38.95 16.28-29.59 11.35-58.68 19.73-90.23 27.13-77.91 17.76-152.37 20.23-230.77 8.88-50.29-7.4-96.64-20.72-142.99-39.46-26.62-10.85-50.79-23.19-75.93-37.98-98.618-59.2-175.045-141.09-222.381-243.69l-7.396-16.28c-25.147-58.7-39.446-121.35-41.912-184.98-1.972-61.17 6.41-121.35 26.627-179.56 1.972-5.92 4.437-11.35 6.41-17.27 31.064-78.92 80.372-146.01 150.882-198.3 17.26-12.33 34.02-23.182 52.27-33.048 28.59-15.292 57.69-26.145 89.24-34.531 22.69-5.919 44.87-8.879 67.56-11.345-82.35-4.933-161.24 18.745-233.231 64.621-63.607 40.943-110.45 92.243-148.417 156.373-1.972 3.95-3.944 7.4-6.41 11.35-13.806 25.65-25.147 50.8-34.515 77.94-18.737 53.76-28.106 109.51-29.585 166.23-3.945 176.11 75.441 345.31 209.558 463.7 2.466 1.97 4.931 3.94 7.397 6.41 1.479.99 2.465 1.97 3.944 2.96 1.48.99 1.973 2.47 3.452 3.45 37.477 31.08 74.457 56.73 116.857 79.42 43.89 23.19 87.28 41.44 134.12 56.24 31.56 10.36 63.61 15.78 95.16 26.63.5 0 1.48 0 1.48.99 0 .49 0 .99-.49.99-3.45 1.48-7.4.98-11.34.98-36.98.5-72.48-5.92-109.46-14.3-69.53-16.77-130.18-41.93-191.32-77.45-2.96-1.48-4.929-3.45-7.888-5.42-29.091-17.27-54.239-35.52-80.372-56.73l-3.944-3.95c-21.696-17.26-39.447-35.52-58.677-54.75-11.341-11.84-21.202-23.68-32.05-36.51-64.593-80.4-107.984-165.74-131.652-266.37-26.133-110.5-23.175-219.02 9.369-326.07 15.778-51.79 36.487-98.66 66.565-145.52 16.272-25.16 32.543-46.86 51.774-69.553 23.667-27.131 47.828-50.316 76.427-73.007 43.391-34.53 89.247-60.181 139.538-79.913 31.07-11.839 62.13-20.718 95.66-27.131 80.37-14.799 157.79-10.359 234.71 13.319 5.91 1.973 11.34 3.453 17.25 5.426 108.97 37.49 200.19 113.95 252.46 217.539 23.67 47.36 37.47 97.18 41.91 148.98.99-15.79.49-31.57-.49-47.36-1.48-18.75-4.44-36.01-8.38-54.76-11.84-52.78-32.05-96.187-62.62-141.57-2.47-3.453-4.94-6.412-7.4-10.359-6.41-8.879-12.33-16.772-19.23-24.664-2.96-2.96-5.42-5.92-8.38-9.373-52.76-59.688-117.85-102.604-191.32-130.228-3.94-1.48-8.38-2.96-12.32-4.44-141.52-49.822-296.35-35.517-430.956 29.598-93.685 45.382-170.605 109.51-235.198 194.849-1.973 2.467-3.452 4.937-5.424 7.397-.986 1.48-1.479 2.47-2.466 3.95-.986 1.48-1.972 1.97-2.958 3.45-30.571 43.9-53.253 85.83-73.962 132.7-.493.98-.493 2.46-.986 3.45-9.862 21.21-17.258 43.41-24.654 65.61-7.396 24.17-13.806 47.35-19.723 72.51-.493 1.48-1.479 2.47-1.479 3.95s-.493 2.46-.987 3.94c-1.972 7.4-2.465 14.8-6.903 21.22-.493.49-.986 0-.986-.5-1.972-6.41-1.479-13.32-1.479-19.73.493-9.37.986-18.25 1.972-27.62.986-6.91 1.48-13.32 2.466-20.23 3.451-24.66 8.382-47.35 14.792-71.53 2.465-8.88 4.438-17.26 7.396-25.65 2.959-7.89 4.931-15.78 7.889-23.67 3.945-9.87 7.397-19.24 10.848-29.11.493-.99 1.479-2.47 1.973-3.45 35.994-90.27 90.233-169.694 161.729-237.768 1.48-1.48 2.466-2.96 3.945-4.439 86.782-80.9 185.891-136.148 302.751-163.773 110.45-26.144 218.93-23.184 325.92 9.373 154.83 46.862 285.5 154.4 353.54 301.4l7.4 16.277c31.06 73.01 45.36 151.44 41.42 230.37-.99 18.25-2.96 36.01-5.92 54.75-6.41 37-16.27 71.04-30.08 105.07l-7.39 16.28c-38.96 85.34-101.58 155.88-184.91 202.25-5.42 2.96-10.35 5.43-15.28 8.39-47.34 23.68-97.63 37.49-149.41 41.93 27.12 1.48 53.26 0 80.37-4.44 7.4-1.48 14.3-2.96 22.19-4.44 21.7-4.94 40.93-11.35 61.15-19.24 24.65-9.87 46.84-22.2 70.01-36.5 16.27-10.86 30.57-21.22 45.37-33.55 2.95-2.96 5.91-5.42 9.36-8.38 59.67-53.28 102.56-117.9 130.18-191.4 1.48-3.95 2.96-8.39 4.43-12.33 41.42-118.39 38.46-246.15-1.97-364.544-.49-1.973-1.97-3.453-2.46-5.426-28.6-83.366-74.95-156.373-135.6-220.994-51.77-54.755-108.97-97.671-175.04-133.188-1.48-.493-2.47-.987-3.95-1.48-17.26-10.359-35.01-17.265-52.76-25.651-11.34-4.933-22.19-8.879-33.53-13.319-11.83-4.44-23.66-8.386-35.5-12.332-11.34-3.453-21.69-6.413-33.03-9.866-21.7-5.426-41.92-10.359-63.12-16.279-1.48-.493-3.45-.986-4.44-1.973 0-.493-.98-.493-.98-1.48 0-.986 1.48 0 .98-.986 2.47-.493 5.43-.493 7.89-.493 12.82-.987 25.64.493 38.46 1.479 14.8 1.48 29.1 3.947 44.38 6.413 20.71 3.947 39.94 8.879 60.16 14.799.98.493 2.46 0 3.45.493 13.8 4.44 27.12 8.386 40.43 13.812 1.48.494 2.47.494 3.94.987 37.97 14.305 72.98 31.077 108.48 51.302 22.68 12.826 41.91 26.144 63.12 41.436 29.58 21.705 54.23 43.903 79.87 69.061 5.43 5.919 10.85 11.346 16.28 17.265 44.37 48.343 79.88 99.645 108.97 157.853 54.73 110.501 77.9 232.341 64.1 355.171-10.36 95.2-39.94 181.53-94.18 264.4-59.17 90.27-135.1 156.87-229.78 200.77l-16.27 7.4c-33.53 14.3-66.56 24.66-103.54 32.06-6.41.99-11.84 2.47-18.25 3.46-43.39 6.9-84.31 7.89-127.21 4.44-45.86-3.95-89.74-14.8-132.64-31.08-50.79-20.23-96.64-47.85-138.06-84.85-22.68-20.72-41.42-40.94-60.16-66.1-16.269-22.69-29.583-43.9-40.923-68.07-20.71-44.89-34.023-92.25-37.967-141.08"/>
  </g>
  <g filter="url(#g)">
    <use href="#e"/>
  </g>
  <g filter="url(#h)">
    <use href="#i"/>
  </g>
  <g filter="url(#j)">
    <path fill="#ff3d7a" d="M1595.09 1218.43c3.69-58.98-11.68-117.35-41.8-169.58-11.07-18.43-22.13-34.41-35.66-50.383-12.91-14.747-24.58-27.65-39.34-39.938-31.96-27.035-65.16-47.926-102.66-63.901-60.24-25.191-125.4-36.251-190.56-31.95-33.81 2.458-67 7.373-100.19 17.204-29.51 8.602-56.56 19.662-83.61 33.179-4.299 2.458-8.602 4.301-12.905 6.759-36.883 20.276-68.848 43.624-100.198 72.502-1.845 1.844-2.459 3.073-4.303 4.916-35.654 32.562-63.316 68.202-87.905 109.372-4.917 7.98-9.835 14.13-13.523 22.12-.615 1.84-1.23 3.07-1.844 4.91-28.277 51.61-45.489 103.84-59.013 161.6-1.844 6.14-2.459 11.67-5.532 17.2-3.074 0-1.845-2.46-1.845-4.3-1.844-23.96 1.845-47.31 6.762-71.89 6.147-28.88 12.295-54.68 23.359-81.1.615-1.85.615-3.08 1.23-4.92 22.13-57.14 51.636-108.14 91.592-156.064 3.074-3.687 6.147-6.759 9.221-10.446l4.918-4.915c1.844-1.843 2.459-3.687 4.303-5.53 22.744-23.963 45.489-44.853 72.536-65.129l12.909-9.217c51.636-36.251 102.658-59.6 161.668-76.189 6.15-1.229 11.68-2.458 17.83-4.301 155.52-38.095 317.81 0 435.22 108.754 44.26 41.167 78.68 88.477 103.27 142.547 21.51 48.54 34.42 100.77 35.65 153.61 1.85 71.89-14.14 141.93-51.63 205.83-55.33 94.62-151.22 157.91-258.18 165.9 113.1 6.76 218.22-52.23 284.61-148.69 65.16-94.01 84.21-199.08 65.77-308.45-13.52-79.87-44.26-148.69-94.05-213.819-62.7-81.719-143.23-137.632-236.05-173.269-35.04-12.903-69.46-22.12-106.34-31.336-3.08-.615-5.54-1.844-8-3.072.62-.615-1.23-.615-.61-1.229 14.14-3.687 28.28.614 42.41.614 39.35 5.53 78.07 14.132 115.57 28.878 1.85.615 3.07.615 4.92 1.229 65.77 25.806 124.17 61.443 177.04 109.983l20.28 20.276c94.67 96.466 147.53 224.885 148.15 357.595 0 36.25-3.69 71.89-11.68 108.76-8.61 38.71-21.52 72.5-38.11 107.52-35.66 72.51-86.68 131.49-156.76 176.96-85.44 55.91-180.72 78.03-279.69 63.9-65.16-9.22-123.56-31.95-175.81-73.12-36.27-28.88-65.16-60.21-87.29-100.15-3.69-6.76-6.76-12.29-10.45-19.05-16.6-36.25-28.28-74.34-30.73-113.67-3.08 38.71 3.68 78.04 17.21 114.9 4.92 14.13 10.45 27.65 17.21 41.17 7.38 13.52 14.75 25.8 23.97 39.32 12.91 17.82 25.21 33.18 40.57 47.93 27.67 27.03 57.17 48.54 90.98 66.36 68.24 36.25 143.85 50.38 220.07 46.08 95.28-5.53 183.18-39.94 261.25-99.54 48.57-38.09 86.06-78.65 119.87-130.87 1.23-1.85 1.23-3.08 2.46-4.92 1.85-3.07 4.3-5.53 6.15-8.6 7.99-15.36 16.6-28.88 23.36-44.24.61-1.23 1.84-2.46 2.46-3.69 22.13-46.08 36.26-92.78 49.17-143.77 1.23-4.92 1.85-10.45 4.92-14.75 2.46 1.84 1.23 4.3 1.23 6.76 1.85 16.59-1.23 31.95-3.69 48.54-1.23 8.6-1.84 15.97-3.69 24.58-12.9 62.67-34.42 116.12-67 170.81-1.23 1.84-2.46 3.07-3.69 4.91-27.05 44.24-57.17 80.49-94.66 114.9-42.42 39.33-89.14 69.43-140.77 92.78-98.97 44.24-205.93 57.14-314.74 33.18-74.38-17.2-138.92-47.31-197.32-96.47-57.78-49.15-101.428-108.14-127.861-177.57-30.12-78.64-36.268-162.21-14.753-245.15 14.753-55.92 40.571-104.46 78.684-148.08 30.12-33.79 64.54-60.83 105.12-80.49 36.26-16.59 74.38-28.26 113.72-30.72-38.73-3.07-77.46 4.3-114.95 16.59-4.92 1.84-9.22 3.68-14.14 5.53-94.668 37.48-165.36 118.58-201.013 212.59-9.221 25.81-15.983 51-20.901 78.65-11.065 67.58-6.147 132.1 12.295 196.61 5.532 17.21 11.064 33.18 17.826 49.77 15.983 38.1 35.039 71.89 60.242 105.68 39.957 52.23 84.221 92.78 140.151 128.42 63.32 39.94 127.86 62.67 199.79 79.88 4.91 1.23 9.83 3.07 14.75 4.91v1.23c-5.53 1.84-11.68 1.23-17.83 1.23-16.59-1.23-31.96-3.07-48.56-5.53-3.07-.61-6.76-1.23-9.84-1.84-17.82-4.3-34.42-7.99-51.63-12.91l-16.6-5.53c-103.89-35.02-191.789-98.31-260.023-188.63l-9.22-12.9c-7.377-12.29-15.983-22.12-22.13-34.41-2.459-4.91-4.918-9.21-7.991-14.13-63.931-114.9-81.757-245.16-47.333-372.34 19.671-73.12 54.095-137.64 105.731-193.55 33.194-36.25 69.462-65.128 112.496-88.477 47.33-25.191 96.51-41.781 149.37-47.925 49.79-6.145 97.74-3.072 146.92 9.831 55.94 14.746 104.5 40.552 148.14 78.647 19.68 17.814 36.27 35.634 52.26 57.754 35.03 49.77 54.7 103.23 59.01 160.98"/>
  </g>
  <g filter="url(#k)">
    <use href="#i"/>
  </g>
  <g filter="url(#l)">
    <use href="#m"/>
  </g>
  <g filter="url(#n)">
    <path fill="#ff996a" d="M1078.56 1365.18c-4.25 52.61 12.75 103.52 44.19 148.5 45.04 64.49 107.93 100.98 183.56 116.25 84.13 16.97 164.86.85 238.79-40.73 71.39-40.73 126.62-100.98 160.61-174.8.85-1.7 2.55-3.4 3.4-5.1 15.3-33.09 24.65-67.03 34-102.67 1.7-4.24 1.7-9.34 4.24-13.58.85-.85 1.7 0 1.7.85.85 66.19-22.09 128.98-55.23 187.53-3.4 5.09-5.95 9.34-9.35 14.43-9.35 12.73-16.15 24.61-26.34 36.49-4.25 5.09-8.5 9.33-12.75 14.42-53.54 59.4-119.82 100.98-198 120.5-57.79 14.43-113.03 16.97-172.51 4.24-19.55-4.24-36.55-10.18-54.39-16.12-66.29-24.61-119.82-66.19-162.31-126.44-59.489-85.7-73.086-189.23-36.54-282.57 9.34-24.61 21.24-45.82 37.39-67.89 12.74-16.97 26.34-30.54 42.49-44.12 39.94-33.1 86.68-51.76 136.81-56.01-86.68-5.09-167.41 39.89-217.54 114.56-49.293 71.28-62.89 151.05-49.293 234.2 1.7 7.64 2.55 13.58 4.249 21.22 21.245 86.55 67.984 156.98 138.514 211.29 57.79 44.98 119.83 69.59 191.21 84.86l5.1 2.55c-11.05 4.24-22.95.84-33.99-.85-16.15-.85-31.45-4.25-47.59-8.49-41.64-11.03-78.18-26.3-114.73-49.22-5.1-3.39-9.34-5.94-14.44-9.33-91.78-62.79-150.418-150.2-169.963-257.97-13.597-74.67-5.949-146.8 22.945-214.68 22.094-50.07 53.538-94.19 96.878-129.83 28.89-23.76 58.64-41.58 92.63-54.31 63.73-23.763 133.42-27.157 199.7-5.94 98.58 30.55 175.91 118.8 183.56 221.47 2.55-60.24-18.7-117.95-57.79-165.47-67.13-79.763-169.11-114.554-270.24-103.522-90.07 10.182-171.66 52.612-232.841 119.652-3.399 4.24-6.799 8.48-11.048 12.72-47.588 56.86-76.482 120.5-92.628 192.63-1.699 5.94-1.699 11.03-5.099 16.12-.849.85 0-1.69-1.699-1.69-.85-25.46 3.399-49.22 9.348-74.68 2.549-7.64 3.399-14.42 5.948-21.21 27.194-84.86 74.783-156.99 149.569-211.3l17.84-12.725c61.19-40.732 126.62-61.097 196.31-64.492 27.19-.848 53.53.849 81.58 5.092 39.09 5.94 73.08 18.668 107.92 36.488 54.39 28.852 98.58 67.887 130.87 121.347 19.55 32.24 32.29 63.64 40.79 100.13 9.35 42.43 9.35 82.31.85 124.74-13.6 68.73-48.44 124.74-105.37 166.32-38.25 28-79.89 42.43-124.93 46.67 39.1 1.7 77.34-5.94 113.03-22.91 49.29-24.61 89.23-61.95 117.27-110.32 21.25-37.33 33.14-75.52 39.09-117.1 2.55-22.06 3.4-44.12 1.7-66.19-3.4-32.24-8.5-63.64-20.39-94.19-10.2-25.45-19.55-48.37-35.7-72.13-4.24-5.09-7.64-10.18-11.04-16.12-32.3-46.67-69.69-79.764-117.28-108.615-19.54-11.032-38.24-21.214-58.63-29.7-16.15-5.94-31.44-11.88-47.59-16.971-17-5.092-33.99-8.486-50.99-13.578-.85 0-.85-1.697-.85-1.697 13.6-2.545 27.2 0 40.79 1.697 25.5 3.395 49.29 10.183 73.93 18.669 48.44 16.971 92.63 41.58 131.72 76.371 5.1 4.243 9.35 8.486 14.45 12.729l14.45 14.425c48.44 50.91 81.58 109.47 99.42 177.35 16.15 61.95 16.15 123.04.85 185.84-8.49 33.94-21.24 62.79-38.24 93.34-33.14 58.55-81.58 102.68-141.06 132.38-90.08 44.97-197.16 45.82-285.54-6.79-71.38-42.43-120.67-114.56-125.77-196.02"/>
  </g>
  <g filter="url(#o)">
    <use href="#m"/>
  </g>
  <defs>
    <filter id="a" width="2603.19" height="2603.19" x="0" y="0" color-interpolation-filters="sRGB" filterUnits="userSpaceOnUse">
      <feFlood flood-opacity="0" result="BackgroundImageFix"/>
      <feBlend in="SourceGraphic" in2="BackgroundImageFix" result="shape"/>
      <feGaussianBlur result="effect1_foregroundBlur_244_34" stdDeviation="163.828"/>
    </filter>
    <filter id="b" width="1973.68" height="1973.68" x="314.756" y="314.756" color-interpolation-filters="sRGB" filterUnits="userSpaceOnUse">
      <feFlood flood-opacity="0" result="BackgroundImageFix"/>
      <feBlend in="SourceGraphic" in2="BackgroundImageFix" result="shape"/>
      <feGaussianBlur result="effect1_foregroundBlur_244_34" stdDeviation="6.44993"/>
    </filter>
    <filter id="c" width="2033.02" height="2033.02" x="285.087" y="285.087" color-interpolation-filters="sRGB" filterUnits="userSpaceOnUse">
      <feFlood flood-opacity="0" result="BackgroundImageFix"/>
      <feBlend in="SourceGraphic" in2="BackgroundImageFix" result="shape"/>
      <feGaussianBlur result="effect1_foregroundBlur_244_34" stdDeviation="21.2848"/>
    </filter>
    <filter id="d" width="1723.82" height="1723.82" x="439.685" y="439.685" color-interpolation-filters="sRGB" filterUnits="userSpaceOnUse">
      <feFlood flood-opacity="0" result="BackgroundImageFix"/>
      <feBlend in="SourceGraphic" in2="BackgroundImageFix" result="shape"/>
      <feGaussianBlur result="effect1_foregroundBlur_244_34" stdDeviation="58.0493"/>
    </filter>
    <filter id="f" width="1509.68" height="1509.68" x="546.754" y="546.753" color-interpolation-filters="sRGB" filterUnits="userSpaceOnUse">
      <feFlood flood-opacity="0" result="BackgroundImageFix"/>
      <feBlend in="SourceGraphic" in2="BackgroundImageFix" result="shape"/>
      <feGaussianBlur result="effect1_foregroundBlur_244_34" stdDeviation="4.51495"/>
    </filter>
    <filter id="g" width="1558.7" height="1558.7" x="522.245" y="522.244" color-interpolation-filters="sRGB" filterUnits="userSpaceOnUse">
      <feFlood flood-opacity="0" result="BackgroundImageFix"/>
      <feBlend in="SourceGraphic" in2="BackgroundImageFix" result="shape"/>
      <feGaussianBlur result="effect1_foregroundBlur_244_34" stdDeviation="16.7698"/>
    </filter>
    <filter id="h" width="1681.44" height="1681.44" x="460.882" y="460.885" color-interpolation-filters="sRGB" filterUnits="userSpaceOnUse">
      <feFlood flood-opacity="0" result="BackgroundImageFix"/>
      <feBlend in="SourceGraphic" in2="BackgroundImageFix" result="shape"/>
      <feGaussianBlur result="effect1_foregroundBlur_244_34" stdDeviation="126.419"/>
    </filter>
    <filter id="j" width="1183.5" height="1183.51" x="709.849" y="709.852" color-interpolation-filters="sRGB" filterUnits="userSpaceOnUse">
      <feFlood flood-opacity="0" result="BackgroundImageFix"/>
      <feBlend in="SourceGraphic" in2="BackgroundImageFix" result="shape"/>
      <feGaussianBlur result="effect1_foregroundBlur_244_34" stdDeviation="1.93498"/>
    </filter>
    <filter id="k" width="1227.36" height="1227.37" x="687.92" y="687.922" color-interpolation-filters="sRGB" filterUnits="userSpaceOnUse">
      <feFlood flood-opacity="0" result="BackgroundImageFix"/>
      <feBlend in="SourceGraphic" in2="BackgroundImageFix" result="shape"/>
      <feGaussianBlur result="effect1_foregroundBlur_244_34" stdDeviation="12.8999"/>
    </filter>
    <filter id="l" width="1333.57" height="1333.57" x="634.809" y="634.815" color-interpolation-filters="sRGB" filterUnits="userSpaceOnUse">
      <feFlood flood-opacity="0" result="BackgroundImageFix"/>
      <feBlend in="SourceGraphic" in2="BackgroundImageFix" result="shape"/>
      <feGaussianBlur result="effect1_foregroundBlur_244_34" stdDeviation="109.649"/>
    </filter>
    <filter id="n" width="900.131" height="900.132" x="851.526" y="851.532" color-interpolation-filters="sRGB" filterUnits="userSpaceOnUse">
      <feFlood flood-opacity="0" result="BackgroundImageFix"/>
      <feBlend in="SourceGraphic" in2="BackgroundImageFix" result="shape"/>
      <feGaussianBlur result="effect1_foregroundBlur_244_34" stdDeviation="1.28999"/>
    </filter>
    <filter id="o" width="949.15" height="949.151" x="827.017" y="827.023" color-interpolation-filters="sRGB" filterUnits="userSpaceOnUse">
      <feFlood flood-opacity="0" result="BackgroundImageFix"/>
      <feBlend in="SourceGraphic" in2="BackgroundImageFix" result="shape"/>
      <feGaussianBlur result="effect1_foregroundBlur_244_34" stdDeviation="13.5448"/>
    </filter>
    <path id="e" fill="#bb7aff" d="M929.1 1407.53c-6.41 114.44 42.404 224.94 123.76 306.82 23.18 23.19 46.84 42.43 74.95 61.17 32.54 21.21 64.1 37 99.11 50.32 29.09 10.85 57.2 18.74 88.26 24.66 91.22 17.27 177.51 10.85 264.78-14.8 38.96-11.84 74.95-26.63 110.95-45.38 121.29-64.13 214.98-164.27 277.6-286.11 1.48-3.45 2.96-6.41 4.93-9.86 31.56-63.15 50.29-127.27 67.06-196.83.99-3.45 2.46-6.41 3.94-9.86h.99c2.96 3.45.49 8.38 1.97 12.33-.49 21.7-2.46 42.92-5.91 64.62-5.92 35.52-14.3 68.07-25.15 101.62-9.37 28.12-20.71 54.75-33.04 81.39-9.37 19.73-19.72 37.49-30.57 56.73-.98 1.48-1.97 2.47-2.96 3.95-45.36 76.46-100.59 136.14-171.59 189.91-40.43 30.59-79.88 54.76-124.75 74.98-12.82 5.92-25.64 10.86-38.95 16.28-29.59 11.35-58.68 19.73-90.23 27.13-77.91 17.76-152.37 20.23-230.77 8.88-50.29-7.4-96.64-20.72-142.99-39.46-26.62-10.85-50.79-23.19-75.93-37.98-98.618-59.2-175.045-141.09-222.381-243.69l-7.396-16.28c-25.147-58.7-39.446-121.35-41.912-184.98-1.972-61.17 6.41-121.35 26.627-179.56 1.972-5.92 4.437-11.35 6.41-17.27 31.064-78.92 80.372-146.01 150.882-198.3 17.26-12.33 34.02-23.182 52.27-33.048 28.59-15.292 57.69-26.145 89.24-34.531 22.69-5.919 44.87-8.879 67.56-11.345-82.35-4.933-161.24 18.745-233.231 64.621-63.607 40.943-110.45 92.243-148.417 156.373-1.972 3.95-3.944 7.4-6.41 11.35-13.806 25.65-25.147 50.8-34.515 77.94-18.737 53.76-28.106 109.51-29.585 166.23-3.945 176.11 75.441 345.31 209.558 463.7 2.466 1.97 4.931 3.94 7.397 6.41 1.479.99 2.465 1.97 3.944 2.96 1.48.99 1.973 2.47 3.452 3.45 37.477 31.08 74.457 56.73 116.857 79.42 43.89 23.19 87.28 41.44 134.12 56.24 31.56 10.36 63.61 15.78 95.16 26.63.5 0 1.48 0 1.48.99 0 .49 0 .99-.49.99-3.45 1.48-7.4.98-11.34.98-36.98.5-72.48-5.92-109.46-14.3-69.53-16.77-130.18-41.93-191.32-77.45-2.96-1.48-4.929-3.45-7.888-5.42-29.091-17.27-54.239-35.52-80.372-56.73l-3.944-3.95c-21.696-17.26-39.447-35.52-58.677-54.75-11.341-11.84-21.202-23.68-32.05-36.51-64.593-80.4-107.984-165.74-131.652-266.37-26.133-110.5-23.175-219.02 9.369-326.07 15.778-51.79 36.487-98.66 66.565-145.52 16.272-25.16 32.543-46.86 51.774-69.553 23.667-27.131 47.828-50.316 76.427-73.007 43.391-34.53 89.247-60.181 139.538-79.913 31.07-11.839 62.13-20.718 95.66-27.131 80.37-14.799 157.79-10.359 234.71 13.319 5.91 1.973 11.34 3.453 17.25 5.426 108.97 37.49 200.19 113.95 252.46 217.539 23.67 47.36 37.47 97.18 41.91 148.98.99-15.79.49-31.57-.49-47.36-1.48-18.75-4.44-36.01-8.38-54.76-11.84-52.78-32.05-96.187-62.62-141.57-2.47-3.453-4.94-6.412-7.4-10.359-6.41-8.879-12.33-16.772-19.23-24.664-2.96-2.96-5.42-5.92-8.38-9.373-52.76-59.688-117.85-102.604-191.32-130.228-3.94-1.48-8.38-2.96-12.32-4.44-141.52-49.822-296.35-35.517-430.956 29.598-93.685 45.382-170.605 109.51-235.198 194.849-1.973 2.467-3.452 4.937-5.424 7.397-.986 1.48-1.479 2.47-2.466 3.95-.986 1.48-1.972 1.97-2.958 3.45-30.571 43.9-53.253 85.83-73.962 132.7-.493.98-.493 2.46-.986 3.45-9.862 21.21-17.258 43.41-24.654 65.61-7.396 24.17-13.806 47.35-19.723 72.51-.493 1.48-1.479 2.47-1.479 3.95s-.493 2.46-.987 3.94c-1.972 7.4-2.465 14.8-6.903 21.22-.493.49-.986 0-.986-.5-1.972-6.41-1.479-13.32-1.479-19.73.493-9.37.986-18.25 1.972-27.62.986-6.91 1.48-13.32 2.466-20.23 3.451-24.66 8.382-47.35 14.792-71.53 2.465-8.88 4.438-17.26 7.396-25.65 2.959-7.89 4.931-15.78 7.889-23.67 3.945-9.87 7.397-19.24 10.848-29.11.493-.99 1.479-2.47 1.973-3.45 35.994-90.27 90.233-169.694 161.729-237.768 1.48-1.48 2.466-2.96 3.945-4.439 86.782-80.9 185.891-136.148 302.751-163.773 110.45-26.144 218.93-23.184 325.92 9.373 154.83 46.862 285.5 154.4 353.54 301.4l7.4 16.277c31.06 73.01 45.36 151.44 41.42 230.37-.99 18.25-2.96 36.01-5.92 54.75-6.41 37-16.27 71.04-30.08 105.07l-7.39 16.28c-38.96 85.34-101.58 155.88-184.91 202.25-5.42 2.96-10.35 5.43-15.28 8.39-47.34 23.68-97.63 37.49-149.41 41.93 27.12 1.48 53.26 0 80.37-4.44 7.4-1.48 14.3-2.96 22.19-4.44 21.7-4.94 40.93-11.35 61.15-19.24 24.65-9.87 46.84-22.2 70.01-36.5 16.27-10.86 30.57-21.22 45.37-33.55 2.95-2.96 5.91-5.42 9.36-8.38 59.67-53.28 102.56-117.9 130.18-191.4 1.48-3.95 2.96-8.39 4.43-12.33 41.42-118.39 38.46-246.15-1.97-364.544-.49-1.973-1.97-3.453-2.46-5.426-28.6-83.366-74.95-156.373-135.6-220.994-51.77-54.755-108.97-97.671-175.04-133.188-1.48-.493-2.47-.987-3.95-1.48-17.26-10.359-35.01-17.265-52.76-25.651-11.34-4.933-22.19-8.879-33.53-13.319-11.83-4.44-23.66-8.386-35.5-12.332-11.34-3.453-21.69-6.413-33.03-9.866-21.7-5.426-41.92-10.359-63.12-16.279-1.48-.493-3.45-.986-4.44-1.973 0-.493-.98-.493-.98-1.48 0-.986 1.48 0 .98-.986 2.47-.493 5.43-.493 7.89-.493 12.82-.987 25.64.493 38.46 1.479 14.8 1.48 29.1 3.947 44.38 6.413 20.71 3.947 39.94 8.879 60.16 14.799.98.493 2.46 0 3.45.493 13.8 4.44 27.12 8.386 40.43 13.812 1.48.494 2.47.494 3.94.987 37.97 14.305 72.98 31.077 108.48 51.302 22.68 12.826 41.91 26.144 63.12 41.436 29.58 21.705 54.23 43.903 79.87 69.061 5.43 5.919 10.85 11.346 16.28 17.265 44.37 48.343 79.88 99.645 108.97 157.853 54.73 110.501 77.9 232.341 64.1 355.171-10.36 95.2-39.94 181.53-94.18 264.4-59.17 90.27-135.1 156.87-229.78 200.77l-16.27 7.4c-33.53 14.3-66.56 24.66-103.54 32.06-6.41.99-11.84 2.47-18.25 3.46-43.39 6.9-84.31 7.89-127.21 4.44-45.86-3.95-89.74-14.8-132.64-31.08-50.79-20.23-96.64-47.85-138.06-84.85-22.68-20.72-41.42-40.94-60.16-66.1-16.269-22.69-29.583-43.9-40.923-68.07-20.71-44.89-34.023-92.25-37.967-141.08"/>
    <path id="i" fill="#ff719d" d="M1595.09 1218.43c3.69-58.98-11.68-117.35-41.8-169.58-11.07-18.43-22.13-34.41-35.66-50.383-12.91-14.747-24.58-27.65-39.34-39.938-31.96-27.035-65.16-47.926-102.66-63.901-60.24-25.191-125.4-36.251-190.56-31.95-33.81 2.458-67 7.373-100.19 17.204-29.51 8.602-56.56 19.662-83.61 33.179-4.299 2.458-8.602 4.301-12.905 6.759-36.883 20.276-68.848 43.624-100.198 72.502-1.845 1.844-2.459 3.073-4.303 4.916-35.654 32.562-63.316 68.202-87.905 109.372-4.917 7.98-9.835 14.13-13.523 22.12-.615 1.84-1.23 3.07-1.844 4.91-28.277 51.61-45.489 103.84-59.013 161.6-1.844 6.14-2.459 11.67-5.532 17.2-3.074 0-1.845-2.46-1.845-4.3-1.844-23.96 1.845-47.31 6.762-71.89 6.147-28.88 12.295-54.68 23.359-81.1.615-1.85.615-3.08 1.23-4.92 22.13-57.14 51.636-108.14 91.592-156.064 3.074-3.687 6.147-6.759 9.221-10.446l4.918-4.915c1.844-1.843 2.459-3.687 4.303-5.53 22.744-23.963 45.489-44.853 72.536-65.129l12.909-9.217c51.636-36.251 102.658-59.6 161.668-76.189 6.15-1.229 11.68-2.458 17.83-4.301 155.52-38.095 317.81 0 435.22 108.754 44.26 41.167 78.68 88.477 103.27 142.547 21.51 48.54 34.42 100.77 35.65 153.61 1.85 71.89-14.14 141.93-51.63 205.83-55.33 94.62-151.22 157.91-258.18 165.9 113.1 6.76 218.22-52.23 284.61-148.69 65.16-94.01 84.21-199.08 65.77-308.45-13.52-79.87-44.26-148.69-94.05-213.819-62.7-81.719-143.23-137.632-236.05-173.269-35.04-12.903-69.46-22.12-106.34-31.336-3.08-.615-5.54-1.844-8-3.072.62-.615-1.23-.615-.61-1.229 14.14-3.687 28.28.614 42.41.614 39.35 5.53 78.07 14.132 115.57 28.878 1.85.615 3.07.615 4.92 1.229 65.77 25.806 124.17 61.443 177.04 109.983l20.28 20.276c94.67 96.466 147.53 224.885 148.15 357.595 0 36.25-3.69 71.89-11.68 108.76-8.61 38.71-21.52 72.5-38.11 107.52-35.66 72.51-86.68 131.49-156.76 176.96-85.44 55.91-180.72 78.03-279.69 63.9-65.16-9.22-123.56-31.95-175.81-73.12-36.27-28.88-65.16-60.21-87.29-100.15-3.69-6.76-6.76-12.29-10.45-19.05-16.6-36.25-28.28-74.34-30.73-113.67-3.08 38.71 3.68 78.04 17.21 114.9 4.92 14.13 10.45 27.65 17.21 41.17 7.38 13.52 14.75 25.8 23.97 39.32 12.91 17.82 25.21 33.18 40.57 47.93 27.67 27.03 57.17 48.54 90.98 66.36 68.24 36.25 143.85 50.38 220.07 46.08 95.28-5.53 183.18-39.94 261.25-99.54 48.57-38.09 86.06-78.65 119.87-130.87 1.23-1.85 1.23-3.08 2.46-4.92 1.85-3.07 4.3-5.53 6.15-8.6 7.99-15.36 16.6-28.88 23.36-44.24.61-1.23 1.84-2.46 2.46-3.69 22.13-46.08 36.26-92.78 49.17-143.77 1.23-4.92 1.85-10.45 4.92-14.75 2.46 1.84 1.23 4.3 1.23 6.76 1.85 16.59-1.23 31.95-3.69 48.54-1.23 8.6-1.84 15.97-3.69 24.58-12.9 62.67-34.42 116.12-67 170.81-1.23 1.84-2.46 3.07-3.69 4.91-27.05 44.24-57.17 80.49-94.66 114.9-42.42 39.33-89.14 69.43-140.77 92.78-98.97 44.24-205.93 57.14-314.74 33.18-74.38-17.2-138.92-47.31-197.32-96.47-57.78-49.15-101.428-108.14-127.861-177.57-30.12-78.64-36.268-162.21-14.753-245.15 14.753-55.92 40.571-104.46 78.684-148.08 30.12-33.79 64.54-60.83 105.12-80.49 36.26-16.59 74.38-28.26 113.72-30.72-38.73-3.07-77.46 4.3-114.95 16.59-4.92 1.84-9.22 3.68-14.14 5.53-94.668 37.48-165.36 118.58-201.013 212.59-9.221 25.81-15.983 51-20.901 78.65-11.065 67.58-6.147 132.1 12.295 196.61 5.532 17.21 11.064 33.18 17.826 49.77 15.983 38.1 35.039 71.89 60.242 105.68 39.957 52.23 84.221 92.78 140.151 128.42 63.32 39.94 127.86 62.67 199.79 79.88 4.91 1.23 9.83 3.07 14.75 4.91v1.23c-5.53 1.84-11.68 1.23-17.83 1.23-16.59-1.23-31.96-3.07-48.56-5.53-3.07-.61-6.76-1.23-9.84-1.84-17.82-4.3-34.42-7.99-51.63-12.91l-16.6-5.53c-103.89-35.02-191.789-98.31-260.023-188.63l-9.22-12.9c-7.377-12.29-15.983-22.12-22.13-34.41-2.459-4.91-4.918-9.21-7.991-14.13-63.931-114.9-81.757-245.16-47.333-372.34 19.671-73.12 54.095-137.64 105.731-193.55 33.194-36.25 69.462-65.128 112.496-88.477 47.33-25.191 96.51-41.781 149.37-47.925 49.79-6.145 97.74-3.072 146.92 9.831 55.94 14.746 104.5 40.552 148.14 78.647 19.68 17.814 36.27 35.634 52.26 57.754 35.03 49.77 54.7 103.23 59.01 160.98"/>
    <path id="m" fill="#ffe2b9" d="M1078.56 1365.18c-4.25 52.61 12.75 103.52 44.19 148.5 45.04 64.49 107.93 100.98 183.56 116.25 84.13 16.97 164.86.85 238.79-40.73 71.39-40.73 126.62-100.98 160.61-174.8.85-1.7 2.55-3.4 3.4-5.1 15.3-33.09 24.65-67.03 34-102.67 1.7-4.24 1.7-9.34 4.24-13.58.85-.85 1.7 0 1.7.85.85 66.19-22.09 128.98-55.23 187.53-3.4 5.09-5.95 9.34-9.35 14.43-9.35 12.73-16.15 24.61-26.34 36.49-4.25 5.09-8.5 9.33-12.75 14.42-53.54 59.4-119.82 100.98-198 120.5-57.79 14.43-113.03 16.97-172.51 4.24-19.55-4.24-36.55-10.18-54.39-16.12-66.29-24.61-119.82-66.19-162.31-126.44-59.489-85.7-73.086-189.23-36.54-282.57 9.34-24.61 21.24-45.82 37.39-67.89 12.74-16.97 26.34-30.54 42.49-44.12 39.94-33.1 86.68-51.76 136.81-56.01-86.68-5.09-167.41 39.89-217.54 114.56-49.293 71.28-62.89 151.05-49.293 234.2 1.7 7.64 2.55 13.58 4.249 21.22 21.245 86.55 67.984 156.98 138.514 211.29 57.79 44.98 119.83 69.59 191.21 84.86l5.1 2.55c-11.05 4.24-22.95.84-33.99-.85-16.15-.85-31.45-4.25-47.59-8.49-41.64-11.03-78.18-26.3-114.73-49.22-5.1-3.39-9.34-5.94-14.44-9.33-91.78-62.79-150.418-150.2-169.963-257.97-13.597-74.67-5.949-146.8 22.945-214.68 22.094-50.07 53.538-94.19 96.878-129.83 28.89-23.76 58.64-41.58 92.63-54.31 63.73-23.763 133.42-27.157 199.7-5.94 98.58 30.55 175.91 118.8 183.56 221.47 2.55-60.24-18.7-117.95-57.79-165.47-67.13-79.763-169.11-114.554-270.24-103.522-90.07 10.182-171.66 52.612-232.841 119.652-3.399 4.24-6.799 8.48-11.048 12.72-47.588 56.86-76.482 120.5-92.628 192.63-1.699 5.94-1.699 11.03-5.099 16.12-.849.85 0-1.69-1.699-1.69-.85-25.46 3.399-49.22 9.348-74.68 2.549-7.64 3.399-14.42 5.948-21.21 27.194-84.86 74.783-156.99 149.569-211.3l17.84-12.725c61.19-40.732 126.62-61.097 196.31-64.492 27.19-.848 53.53.849 81.58 5.092 39.09 5.94 73.08 18.668 107.92 36.488 54.39 28.852 98.58 67.887 130.87 121.347 19.55 32.24 32.29 63.64 40.79 100.13 9.35 42.43 9.35 82.31.85 124.74-13.6 68.73-48.44 124.74-105.37 166.32-38.25 28-79.89 42.43-124.93 46.67 39.1 1.7 77.34-5.94 113.03-22.91 49.29-24.61 89.23-61.95 117.27-110.32 21.25-37.33 33.14-75.52 39.09-117.1 2.55-22.06 3.4-44.12 1.7-66.19-3.4-32.24-8.5-63.64-20.39-94.19-10.2-25.45-19.55-48.37-35.7-72.13-4.24-5.09-7.64-10.18-11.04-16.12-32.3-46.67-69.69-79.764-117.28-108.615-19.54-11.032-38.24-21.214-58.63-29.7-16.15-5.94-31.44-11.88-47.59-16.971-17-5.092-33.99-8.486-50.99-13.578-.85 0-.85-1.697-.85-1.697 13.6-2.545 27.2 0 40.79 1.697 25.5 3.395 49.29 10.183 73.93 18.669 48.44 16.971 92.63 41.58 131.72 76.371 5.1 4.243 9.35 8.486 14.45 12.729l14.45 14.425c48.44 50.91 81.58 109.47 99.42 177.35 16.15 61.95 16.15 123.04.85 185.84-8.49 33.94-21.24 62.79-38.24 93.34-33.14 58.55-81.58 102.68-141.06 132.38-90.08 44.97-197.16 45.82-285.54-6.79-71.38-42.43-120.67-114.56-125.77-196.02"/>
  </defs>
</svg>
