<svg width="2604" height="2604" viewBox="0 0 2604 2604" fill="none" xmlns="http://www.w3.org/2000/svg">
<g filter="url(#filter0_f_244_34)">
<path d="M1788.51 1163.87C1792.16 1093.72 1779.86 1024.04 1754.81 958.453C1753.44 954.809 1752.07 951.621 1750.71 947.978C1731.57 901.521 1706.98 860.074 1675.55 818.627C1670.53 812.251 1665.52 806.33 1660.51 799.953C1613.6 744.387 1561.21 701.118 1498.35 664.226C1395.86 604.561 1284.26 575.867 1169.47 573.134C1039.19 570.401 910.733 600.917 793.665 663.771C791.843 664.682 790.477 665.137 788.654 666.048C770.889 676.068 754.946 685.177 737.181 696.108C718.96 707.95 703.017 718.881 685.252 732.09C646.533 761.239 613.736 790.389 580.939 824.548C542.22 865.084 510.789 905.62 478.903 953.443C477.081 955.72 476.17 958.453 474.803 960.73C454.761 990.791 439.729 1019.48 423.785 1050.46C420.141 1057.74 416.953 1065.03 413.309 1072.32C405.565 1088.26 400.099 1104.2 392.81 1120.14C391.899 1121.96 391.899 1124.24 390.988 1126.06C369.579 1178.9 355.002 1231.27 341.337 1287.75C338.604 1297.77 336.782 1307.79 332.227 1317.36C331.771 1318.27 331.771 1321 329.949 1319.63C327.216 1317.81 328.127 1313.26 328.127 1310.07C326.76 1291.39 328.582 1272.72 330.86 1254.05V1250.4C334.96 1219.89 339.515 1191.19 347.259 1161.13C347.714 1159.31 347.714 1157.03 348.17 1155.21C348.625 1153.39 349.536 1151.57 349.992 1149.75C410.12 906.075 564.54 706.128 782.733 585.432C784.555 584.521 786.832 583.61 788.654 582.699C868.825 538.519 948.996 510.281 1040.1 492.518C1042.83 492.062 1045.11 492.062 1047.39 491.607C1170.83 468.834 1288.81 474.755 1408.16 507.548C1465.1 523.489 1517.48 544.44 1569.41 572.223C1640.47 610.482 1701.51 656.939 1757.54 714.782C1761.18 718.881 1764.83 722.98 1768.93 727.08C1828.6 792.666 1874.61 865.539 1906.49 947.067C1908.31 952.532 1910.14 957.542 1912.41 963.008C1965.25 1106.48 1968.9 1264.52 1916.51 1408.9C1914.24 1414.37 1912.41 1419.38 1910.59 1424.84C1857.3 1562.85 1754.35 1677.62 1619.52 1740.48C1562.12 1767.35 1501.99 1782.84 1439.59 1788.3C1526.59 1792.86 1612.68 1773.27 1691.49 1734.1C1830.42 1664.87 1932.91 1541.9 1986.66 1397.97C2013.99 1324.19 2028.57 1247.21 2030.39 1169.33C2031.76 1097.37 2023.56 1027.68 2004.43 956.631C1952.04 762.605 1837.71 605.927 1666.89 490.696C1665.52 489.785 1665.07 488.874 1663.7 487.963C1620.43 459.269 1579.43 435.585 1533.88 415.09C1532.97 414.634 1532.06 413.723 1531.15 413.268C1515.2 405.981 1499.26 400.06 1483.32 392.772C1481.5 391.861 1479.22 391.861 1477.4 390.95C1455.08 381.386 1433.21 374.098 1409.98 366.811C1399.96 364.078 1390.85 360.89 1380.83 358.157C1378.55 357.702 1376.27 357.246 1374.45 356.791C1370.8 354.969 1366.71 354.514 1363.06 353.603C1337.55 345.86 1311.59 341.305 1286.99 332.652H1286.08C1285.17 331.741 1282.89 331.285 1283.8 329.919C1285.62 327.186 1290.18 328.097 1293.37 328.097C1324.34 326.275 1353.95 330.374 1385.38 335.384C1414.99 340.394 1442.32 346.315 1471.02 354.058C1493.79 360.435 1515.2 367.267 1537.07 375.009C1549.82 380.019 1562.58 384.119 1574.88 389.584C1582.16 392.772 1589 395.505 1596.29 398.693C1598.56 399.604 1600.84 400.971 1603.12 402.337C1676.46 435.13 1741.6 476.121 1805.37 527.588L1809.01 531.232C1826.32 544.896 1840.9 559.015 1856.84 573.59C1877.34 593.174 1896.02 612.304 1914.24 634.621L1918.34 638.72C1957.06 684.722 1988.94 730.268 2018.09 782.646C2019.01 784.468 2019.92 786.745 2020.83 788.567C2076.86 889.679 2109.2 996.712 2121.04 1110.58C2122.86 1130.16 2124.23 1149.29 2124.69 1168.88C2126.05 1221.25 2122.86 1272.26 2114.21 1325.1C2099.63 1412.55 2073.21 1491.8 2031.3 1569.22C2028.57 1573.78 2026.29 1578.33 2023.56 1583.34C1978.46 1663.96 1922.89 1730.91 1851.38 1790.58C1846.82 1794.22 1842.72 1797.41 1838.17 1801.05C1785.78 1842.5 1732.03 1874.38 1671.9 1899.89C1554.83 1948.62 1430.48 1966.39 1302.48 1944.52C1296.56 1943.61 1291.55 1942.25 1285.62 1941.34C1138.04 1913.1 1014.14 1839.31 923.032 1719.07C859.26 1634.81 823.274 1540.53 815.074 1439.42C812.797 1485.42 816.441 1530.51 827.829 1576.51C828.284 1578.33 828.284 1580.16 828.74 1581.98C830.107 1587.44 831.473 1592.45 833.295 1597.46C835.117 1604.75 836.939 1611.58 839.672 1618.41L841.039 1623.88C842.861 1628.89 844.683 1634.36 846.505 1639.37C861.082 1677.17 878.847 1711.33 900.712 1746.4C901.623 1748.22 902.989 1749.13 904.356 1750.95C926.676 1786.02 951.274 1814.26 979.972 1842.5C1011.86 1874.84 1045.11 1901.25 1084.28 1925.85C1086.11 1927.22 1087.47 1928.13 1089.3 1929.49C1127.56 1952.72 1164.46 1970.94 1205.45 1986.43C1251.92 2003.73 1298.83 2015.57 1348.48 2022.86C1486.51 2042.45 1623.16 2022.86 1749.34 1968.21C1751.16 1967.3 1752.98 1967.3 1754.81 1966.39C1765.28 1961.83 1774.85 1956.82 1785.33 1952.27C1795.35 1947.26 1804.91 1942.25 1814.93 1937.24C1830.88 1928.13 1845.91 1919.47 1861.85 1909.91C1863.22 1909 1864.59 1907.63 1865.95 1906.72C1926.99 1868.46 1977.1 1826.56 2025.84 1775.09C2060 1738.66 2089.15 1702.67 2117.4 1659.86C2118.31 1658.49 2119.22 1658.04 2120.13 1656.67C2125.6 1648.47 2130.15 1640.73 2135.62 1632.53C2144.73 1617.5 2152.93 1603.84 2161.13 1588.81C2172.06 1568.31 2181.62 1548.73 2191.65 1527.78C2202.58 1503.64 2212.14 1479.95 2221.25 1455.36C2239.93 1403.44 2253.6 1352.43 2267.26 1297.77C2268.17 1292.76 2269.08 1287.29 2272.73 1283.2H2273.64C2275.92 1286.38 2275.46 1290.94 2275.46 1294.58C2276.37 1343.32 2268.63 1390.23 2257.24 1439.42C2255.87 1445.34 2254.51 1450.35 2253.14 1456.27C2252.69 1458.09 2251.77 1459.91 2251.32 1461.74C2227.18 1556.47 2190.28 1638 2136.53 1721.35C2135.62 1722.71 2135.16 1724.08 2134.25 1725.45C2130.61 1730.91 2126.96 1735.47 2123.77 1741.39C2120.13 1746.85 2116.03 1751.86 2112.39 1757.33C2095.99 1780.56 2080.5 1800.14 2062.28 1821.09C2051.35 1833.39 2041.33 1844.78 2029.94 1856.62C2009.89 1877.12 1991.22 1895.79 1968.9 1914.01L1964.8 1918.11C1932.91 1944.07 1903.76 1967.3 1868.68 1988.7C1866.86 1990.07 1865.5 1990.98 1863.67 1992.35C1850.92 2000.09 1839.08 2007.38 1826.32 2014.66C1818.58 2018.76 1811.75 2022.86 1804 2026.96C1705.61 2078.43 1602.66 2109.86 1492.88 2120.79C1379 2132.17 1266.95 2120.33 1158.08 2084.35C1022.79 2039.71 905.722 1962.29 812.797 1851.15C809.153 1846.6 805.964 1842.5 802.32 1837.95C754.946 1778.74 719.871 1717.25 693.907 1648.02C687.074 1629.35 680.697 1611.13 675.231 1591.54C665.209 1555.11 658.377 1519.58 653.821 1482.23C636.967 1335.12 667.031 1192.56 751.758 1064.58C754.946 1059.57 758.135 1055.47 761.323 1050.46C820.996 966.651 893.423 904.709 983.616 862.807L998.648 855.975C1051.49 833.202 1107.06 819.993 1164 814.983C1117.99 812.706 1072.9 816.35 1026.89 827.736C1025.07 828.192 1023.25 828.192 1021.42 828.647C1015.96 830.014 1010.95 831.38 1005.94 833.202C998.648 835.024 991.815 836.845 984.982 839.578L979.516 840.945C975.872 842.311 972.683 843.222 969.039 844.588C965.395 845.955 962.206 847.321 958.562 848.687C956.74 849.143 955.374 850.054 953.552 850.965C951.729 851.42 949.907 851.876 948.085 852.786C935.786 858.252 923.943 863.262 912.1 869.183C901.623 874.649 892.057 880.114 881.58 885.58C872.925 890.134 865.637 895.6 856.982 901.065C785.01 947.522 731.259 1001.72 683.886 1073.68C681.608 1077.33 679.786 1080.52 677.053 1084.16C672.042 1091.45 668.854 1097.82 664.298 1105.11L661.565 1110.58C611.458 1196.66 585.494 1288.21 575.928 1385.22C564.54 1504.55 583.672 1622.97 628.313 1733.65C652.455 1793.31 681.152 1846.6 719.871 1901.25C723.971 1907.18 728.071 1912.19 732.17 1918.11C795.487 2002.82 864.726 2066.13 953.552 2124.43C954.918 2125.34 955.829 2125.34 957.196 2126.25C976.783 2139.46 994.548 2149.48 1014.59 2160.87C1016.87 2162.23 1019.15 2163.14 1021.42 2164.05C1109.34 2212.33 1199.08 2240.57 1297.01 2264.71C1305.21 2266.53 1313.41 2267.44 1320.24 2272.45C1320.7 2272.91 1319.79 2273.37 1319.79 2273.82C1318.42 2274.73 1316.6 2274.73 1314.78 2275.19C1312.95 2275.64 1310.68 2275.19 1308.85 2275.19C1292.46 2276.1 1276.06 2275.19 1259.66 2272.91H1256.01C1249.64 2272 1243.26 2271.54 1236.88 2270.63C1184.95 2262.89 1135.76 2251.96 1086.56 2234.65C1084.28 2233.74 1082.01 2233.74 1079.73 2232.83C1010.04 2207.78 946.263 2179.08 882.035 2136.27C880.669 2135.36 879.302 2134.91 877.936 2133.99C871.103 2128.98 864.726 2125.8 857.893 2120.79C852.427 2116.69 847.416 2113.5 841.95 2109.4C840.583 2108.49 839.672 2107.12 838.306 2106.21C715.772 2016.94 625.124 1907.18 562.263 1774.64C560.441 1770.54 558.163 1767.35 556.341 1763.25C543.586 1734.56 532.198 1706.32 522.177 1676.71C509.878 1638.91 500.312 1602.93 492.569 1563.3C492.113 1560.57 492.113 1558.29 491.657 1556.02C465.693 1413.91 477.081 1275.91 523.999 1142.91C526.732 1135.17 529.465 1127.88 532.198 1120.6C544.953 1088.26 559.074 1057.74 575.928 1026.77C585.494 1009.92 594.149 994.89 605.081 978.493C638.334 928.393 672.498 886.491 714.861 845.955C718.96 842.311 723.06 838.667 727.16 834.568C752.213 811.34 776.811 792.21 805.509 772.17C825.096 758.962 842.861 748.031 862.904 736.644C865.637 735.278 867.914 734.367 870.647 733.001C964.939 681.078 1067.43 653.751 1172.66 650.107C1241.44 647.83 1309.31 656.028 1376.27 676.068C1404.06 684.722 1430.02 694.287 1456.44 706.128C1532.06 740.743 1597.65 788.111 1653.68 851.42C1732.03 940.235 1779.4 1048.63 1788.51 1163.87Z" fill="#356BEC"/>
</g>
<g filter="url(#filter1_f_244_34)">
<path d="M1788.51 1163.87C1792.16 1093.72 1779.86 1024.04 1754.81 958.453C1753.44 954.809 1752.07 951.621 1750.71 947.978C1731.57 901.521 1706.98 860.074 1675.55 818.627C1670.53 812.251 1665.52 806.33 1660.51 799.953C1613.6 744.387 1561.21 701.118 1498.35 664.226C1395.86 604.561 1284.26 575.867 1169.47 573.134C1039.19 570.401 910.733 600.917 793.665 663.771C791.843 664.682 790.477 665.137 788.654 666.048C770.889 676.068 754.946 685.177 737.181 696.108C718.96 707.95 703.017 718.881 685.252 732.09C646.533 761.239 613.736 790.389 580.939 824.548C542.22 865.084 510.789 905.62 478.903 953.443C477.081 955.72 476.17 958.453 474.803 960.73C454.761 990.791 439.729 1019.48 423.785 1050.46C420.141 1057.74 416.953 1065.03 413.309 1072.32C405.565 1088.26 400.099 1104.2 392.81 1120.14C391.899 1121.96 391.899 1124.24 390.988 1126.06C369.579 1178.9 355.002 1231.27 341.337 1287.75C338.604 1297.77 336.782 1307.79 332.227 1317.36C331.771 1318.27 331.771 1321 329.949 1319.63C327.216 1317.81 328.127 1313.26 328.127 1310.07C326.76 1291.39 328.582 1272.72 330.86 1254.05V1250.4C334.96 1219.89 339.515 1191.19 347.259 1161.13C347.714 1159.31 347.714 1157.03 348.17 1155.21C348.625 1153.39 349.536 1151.57 349.992 1149.75C410.12 906.075 564.54 706.128 782.733 585.432C784.555 584.521 786.832 583.61 788.654 582.699C868.825 538.519 948.996 510.281 1040.1 492.518C1042.83 492.062 1045.11 492.062 1047.39 491.607C1170.83 468.834 1288.81 474.755 1408.16 507.548C1465.1 523.489 1517.48 544.44 1569.41 572.223C1640.47 610.482 1701.51 656.939 1757.54 714.782C1761.18 718.881 1764.83 722.98 1768.93 727.08C1828.6 792.666 1874.61 865.539 1906.49 947.067C1908.31 952.532 1910.14 957.542 1912.41 963.008C1965.25 1106.48 1968.9 1264.52 1916.51 1408.9C1914.24 1414.37 1912.41 1419.38 1910.59 1424.84C1857.3 1562.85 1754.35 1677.62 1619.52 1740.48C1562.12 1767.35 1501.99 1782.84 1439.59 1788.3C1526.59 1792.86 1612.68 1773.27 1691.49 1734.1C1830.42 1664.87 1932.91 1541.9 1986.66 1397.97C2013.99 1324.19 2028.57 1247.21 2030.39 1169.33C2031.76 1097.37 2023.56 1027.68 2004.43 956.631C1952.04 762.605 1837.71 605.927 1666.89 490.696C1665.52 489.785 1665.07 488.874 1663.7 487.963C1620.43 459.269 1579.43 435.585 1533.88 415.09C1532.97 414.634 1532.06 413.723 1531.15 413.268C1515.2 405.981 1499.26 400.06 1483.32 392.772C1481.5 391.861 1479.22 391.861 1477.4 390.95C1455.08 381.386 1433.21 374.098 1409.98 366.811C1399.96 364.078 1390.85 360.89 1380.83 358.157C1378.55 357.702 1376.27 357.246 1374.45 356.791C1370.8 354.969 1366.71 354.514 1363.06 353.603C1337.55 345.86 1311.59 341.305 1286.99 332.652H1286.08C1285.17 331.741 1282.89 331.285 1283.8 329.919C1285.62 327.186 1290.18 328.097 1293.37 328.097C1324.34 326.275 1353.95 330.374 1385.38 335.384C1414.99 340.394 1442.32 346.315 1471.02 354.058C1493.79 360.435 1515.2 367.267 1537.07 375.009C1549.82 380.019 1562.58 384.119 1574.88 389.584C1582.16 392.772 1589 395.505 1596.29 398.693C1598.56 399.604 1600.84 400.971 1603.12 402.337C1676.46 435.13 1741.6 476.121 1805.37 527.588L1809.01 531.232C1826.32 544.896 1840.9 559.015 1856.84 573.59C1877.34 593.174 1896.02 612.304 1914.24 634.621L1918.34 638.72C1957.06 684.722 1988.94 730.268 2018.09 782.646C2019.01 784.468 2019.92 786.745 2020.83 788.567C2076.86 889.679 2109.2 996.712 2121.04 1110.58C2122.86 1130.16 2124.23 1149.29 2124.69 1168.88C2126.05 1221.25 2122.86 1272.26 2114.21 1325.1C2099.63 1412.55 2073.21 1491.8 2031.3 1569.22C2028.57 1573.78 2026.29 1578.33 2023.56 1583.34C1978.46 1663.96 1922.89 1730.91 1851.38 1790.58C1846.82 1794.22 1842.72 1797.41 1838.17 1801.05C1785.78 1842.5 1732.03 1874.38 1671.9 1899.89C1554.83 1948.62 1430.48 1966.39 1302.48 1944.52C1296.56 1943.61 1291.55 1942.25 1285.62 1941.34C1138.04 1913.1 1014.14 1839.31 923.032 1719.07C859.26 1634.81 823.274 1540.53 815.074 1439.42C812.797 1485.42 816.441 1530.51 827.829 1576.51C828.284 1578.33 828.284 1580.16 828.74 1581.98C830.107 1587.44 831.473 1592.45 833.295 1597.46C835.117 1604.75 836.939 1611.58 839.672 1618.41L841.039 1623.88C842.861 1628.89 844.683 1634.36 846.505 1639.37C861.082 1677.17 878.847 1711.33 900.712 1746.4C901.623 1748.22 902.989 1749.13 904.356 1750.95C926.676 1786.02 951.274 1814.26 979.972 1842.5C1011.86 1874.84 1045.11 1901.25 1084.28 1925.85C1086.11 1927.22 1087.47 1928.13 1089.3 1929.49C1127.56 1952.72 1164.46 1970.94 1205.45 1986.43C1251.92 2003.73 1298.83 2015.57 1348.48 2022.86C1486.51 2042.45 1623.16 2022.86 1749.34 1968.21C1751.16 1967.3 1752.98 1967.3 1754.81 1966.39C1765.28 1961.83 1774.85 1956.82 1785.33 1952.27C1795.35 1947.26 1804.91 1942.25 1814.93 1937.24C1830.88 1928.13 1845.91 1919.47 1861.85 1909.91C1863.22 1909 1864.59 1907.63 1865.95 1906.72C1926.99 1868.46 1977.1 1826.56 2025.84 1775.09C2060 1738.66 2089.15 1702.67 2117.4 1659.86C2118.31 1658.49 2119.22 1658.04 2120.13 1656.67C2125.6 1648.47 2130.15 1640.73 2135.62 1632.53C2144.73 1617.5 2152.93 1603.84 2161.13 1588.81C2172.06 1568.31 2181.62 1548.73 2191.65 1527.78C2202.58 1503.64 2212.14 1479.95 2221.25 1455.36C2239.93 1403.44 2253.6 1352.43 2267.26 1297.77C2268.17 1292.76 2269.08 1287.29 2272.73 1283.2H2273.64C2275.92 1286.38 2275.46 1290.94 2275.46 1294.58C2276.37 1343.32 2268.63 1390.23 2257.24 1439.42C2255.87 1445.34 2254.51 1450.35 2253.14 1456.27C2252.69 1458.09 2251.77 1459.91 2251.32 1461.74C2227.18 1556.47 2190.28 1638 2136.53 1721.35C2135.62 1722.71 2135.16 1724.08 2134.25 1725.45C2130.61 1730.91 2126.96 1735.47 2123.77 1741.39C2120.13 1746.85 2116.03 1751.86 2112.39 1757.33C2095.99 1780.56 2080.5 1800.14 2062.28 1821.09C2051.35 1833.39 2041.33 1844.78 2029.94 1856.62C2009.89 1877.12 1991.22 1895.79 1968.9 1914.01L1964.8 1918.11C1932.91 1944.07 1903.76 1967.3 1868.68 1988.7C1866.86 1990.07 1865.5 1990.98 1863.67 1992.35C1850.92 2000.09 1839.08 2007.38 1826.32 2014.66C1818.58 2018.76 1811.75 2022.86 1804 2026.96C1705.61 2078.43 1602.66 2109.86 1492.88 2120.79C1379 2132.17 1266.95 2120.33 1158.08 2084.35C1022.79 2039.71 905.722 1962.29 812.797 1851.15C809.153 1846.6 805.964 1842.5 802.32 1837.95C754.946 1778.74 719.871 1717.25 693.907 1648.02C687.074 1629.35 680.697 1611.13 675.231 1591.54C665.209 1555.11 658.377 1519.58 653.821 1482.23C636.967 1335.12 667.031 1192.56 751.758 1064.58C754.946 1059.57 758.135 1055.47 761.323 1050.46C820.996 966.651 893.423 904.709 983.616 862.807L998.648 855.975C1051.49 833.202 1107.06 819.993 1164 814.983C1117.99 812.706 1072.9 816.35 1026.89 827.736C1025.07 828.192 1023.25 828.192 1021.42 828.647C1015.96 830.014 1010.95 831.38 1005.94 833.202C998.648 835.024 991.815 836.845 984.982 839.578L979.516 840.945C975.872 842.311 972.683 843.222 969.039 844.588C965.395 845.955 962.206 847.321 958.562 848.687C956.74 849.143 955.374 850.054 953.552 850.965C951.729 851.42 949.907 851.876 948.085 852.786C935.786 858.252 923.943 863.262 912.1 869.183C901.623 874.649 892.057 880.114 881.58 885.58C872.925 890.134 865.637 895.6 856.982 901.065C785.01 947.522 731.259 1001.72 683.886 1073.68C681.608 1077.33 679.786 1080.52 677.053 1084.16C672.042 1091.45 668.854 1097.82 664.298 1105.11L661.565 1110.58C611.458 1196.66 585.494 1288.21 575.928 1385.22C564.54 1504.55 583.672 1622.97 628.313 1733.65C652.455 1793.31 681.152 1846.6 719.871 1901.25C723.971 1907.18 728.071 1912.19 732.17 1918.11C795.487 2002.82 864.726 2066.13 953.552 2124.43C954.918 2125.34 955.829 2125.34 957.196 2126.25C976.783 2139.46 994.548 2149.48 1014.59 2160.87C1016.87 2162.23 1019.15 2163.14 1021.42 2164.05C1109.34 2212.33 1199.08 2240.57 1297.01 2264.71C1305.21 2266.53 1313.41 2267.44 1320.24 2272.45C1320.7 2272.91 1319.79 2273.37 1319.79 2273.82C1318.42 2274.73 1316.6 2274.73 1314.78 2275.19C1312.95 2275.64 1310.68 2275.19 1308.85 2275.19C1292.46 2276.1 1276.06 2275.19 1259.66 2272.91H1256.01C1249.64 2272 1243.26 2271.54 1236.88 2270.63C1184.95 2262.89 1135.76 2251.96 1086.56 2234.65C1084.28 2233.74 1082.01 2233.74 1079.73 2232.83C1010.04 2207.78 946.263 2179.08 882.035 2136.27C880.669 2135.36 879.302 2134.91 877.936 2133.99C871.103 2128.98 864.726 2125.8 857.893 2120.79C852.427 2116.69 847.416 2113.5 841.95 2109.4C840.583 2108.49 839.672 2107.12 838.306 2106.21C715.772 2016.94 625.124 1907.18 562.263 1774.64C560.441 1770.54 558.163 1767.35 556.341 1763.25C543.586 1734.56 532.198 1706.32 522.177 1676.71C509.878 1638.91 500.312 1602.93 492.569 1563.3C492.113 1560.57 492.113 1558.29 491.657 1556.02C465.693 1413.91 477.081 1275.91 523.999 1142.91C526.732 1135.17 529.465 1127.88 532.198 1120.6C544.953 1088.26 559.074 1057.74 575.928 1026.77C585.494 1009.92 594.149 994.89 605.081 978.493C638.334 928.393 672.498 886.491 714.861 845.955C718.96 842.311 723.06 838.667 727.16 834.568C752.213 811.34 776.811 792.21 805.509 772.17C825.096 758.962 842.861 748.031 862.904 736.644C865.637 735.278 867.914 734.367 870.647 733.001C964.939 681.078 1067.43 653.751 1172.66 650.107C1241.44 647.83 1309.31 656.028 1376.27 676.068C1404.06 684.722 1430.02 694.287 1456.44 706.128C1532.06 740.743 1597.65 788.111 1653.68 851.42C1732.03 940.235 1779.4 1048.63 1788.51 1163.87Z" fill="#1441AC"/>
</g>
<g filter="url(#filter2_f_244_34)">
<path d="M1788.51 1163.87C1792.16 1093.72 1779.86 1024.04 1754.81 958.453C1753.44 954.809 1752.07 951.621 1750.71 947.978C1731.57 901.521 1706.98 860.074 1675.55 818.627C1670.53 812.251 1665.52 806.33 1660.51 799.953C1613.6 744.387 1561.21 701.118 1498.35 664.226C1395.86 604.561 1284.26 575.867 1169.47 573.134C1039.19 570.401 910.733 600.917 793.665 663.771C791.843 664.682 790.477 665.137 788.654 666.048C770.889 676.068 754.946 685.177 737.181 696.108C718.96 707.95 703.017 718.881 685.252 732.09C646.533 761.239 613.736 790.389 580.939 824.548C542.22 865.084 510.789 905.62 478.903 953.443C477.081 955.72 476.17 958.453 474.803 960.73C454.761 990.791 439.729 1019.48 423.785 1050.46C420.141 1057.74 416.953 1065.03 413.309 1072.32C405.565 1088.26 400.099 1104.2 392.81 1120.14C391.899 1121.96 391.899 1124.24 390.988 1126.06C369.579 1178.9 355.002 1231.27 341.337 1287.75C338.604 1297.77 336.782 1307.79 332.227 1317.36C331.771 1318.27 331.771 1321 329.949 1319.63C327.216 1317.81 328.127 1313.26 328.127 1310.07C326.76 1291.39 328.582 1272.72 330.86 1254.05V1250.4C334.96 1219.89 339.515 1191.19 347.259 1161.13C347.714 1159.31 347.714 1157.03 348.17 1155.21C348.625 1153.39 349.536 1151.57 349.992 1149.75C410.12 906.075 564.54 706.128 782.733 585.432C784.555 584.521 786.832 583.61 788.654 582.699C868.825 538.519 948.996 510.281 1040.1 492.518C1042.83 492.062 1045.11 492.062 1047.39 491.607C1170.83 468.834 1288.81 474.755 1408.16 507.548C1465.1 523.489 1517.48 544.44 1569.41 572.223C1640.47 610.482 1701.51 656.939 1757.54 714.782C1761.18 718.881 1764.83 722.98 1768.93 727.08C1828.6 792.666 1874.61 865.539 1906.49 947.067C1908.31 952.532 1910.14 957.542 1912.41 963.008C1965.25 1106.48 1968.9 1264.52 1916.51 1408.9C1914.24 1414.37 1912.41 1419.38 1910.59 1424.84C1857.3 1562.85 1754.35 1677.62 1619.52 1740.48C1562.12 1767.35 1501.99 1782.84 1439.59 1788.3C1526.59 1792.86 1612.68 1773.27 1691.49 1734.1C1830.42 1664.87 1932.91 1541.9 1986.66 1397.97C2013.99 1324.19 2028.57 1247.21 2030.39 1169.33C2031.76 1097.37 2023.56 1027.68 2004.43 956.631C1952.04 762.605 1837.71 605.927 1666.89 490.696C1665.52 489.785 1665.07 488.874 1663.7 487.963C1620.43 459.269 1579.43 435.585 1533.88 415.09C1532.97 414.634 1532.06 413.723 1531.15 413.268C1515.2 405.981 1499.26 400.06 1483.32 392.772C1481.5 391.861 1479.22 391.861 1477.4 390.95C1455.08 381.386 1433.21 374.098 1409.98 366.811C1399.96 364.078 1390.85 360.89 1380.83 358.157C1378.55 357.702 1376.27 357.246 1374.45 356.791C1370.8 354.969 1366.71 354.514 1363.06 353.603C1337.55 345.86 1311.59 341.305 1286.99 332.652H1286.08C1285.17 331.741 1282.89 331.285 1283.8 329.919C1285.62 327.186 1290.18 328.097 1293.37 328.097C1324.34 326.275 1353.95 330.374 1385.38 335.384C1414.99 340.394 1442.32 346.315 1471.02 354.058C1493.79 360.435 1515.2 367.267 1537.07 375.009C1549.82 380.019 1562.58 384.119 1574.88 389.584C1582.16 392.772 1589 395.505 1596.29 398.693C1598.56 399.604 1600.84 400.971 1603.12 402.337C1676.46 435.13 1741.6 476.121 1805.37 527.588L1809.01 531.232C1826.32 544.896 1840.9 559.015 1856.84 573.59C1877.34 593.174 1896.02 612.304 1914.24 634.621L1918.34 638.72C1957.06 684.722 1988.94 730.268 2018.09 782.646C2019.01 784.468 2019.92 786.745 2020.83 788.567C2076.86 889.679 2109.2 996.712 2121.04 1110.58C2122.86 1130.16 2124.23 1149.29 2124.69 1168.88C2126.05 1221.25 2122.86 1272.26 2114.21 1325.1C2099.63 1412.55 2073.21 1491.8 2031.3 1569.22C2028.57 1573.78 2026.29 1578.33 2023.56 1583.34C1978.46 1663.96 1922.89 1730.91 1851.38 1790.58C1846.82 1794.22 1842.72 1797.41 1838.17 1801.05C1785.78 1842.5 1732.03 1874.38 1671.9 1899.89C1554.83 1948.62 1430.48 1966.39 1302.48 1944.52C1296.56 1943.61 1291.55 1942.25 1285.62 1941.34C1138.04 1913.1 1014.14 1839.31 923.032 1719.07C859.26 1634.81 823.274 1540.53 815.074 1439.42C812.797 1485.42 816.441 1530.51 827.829 1576.51C828.284 1578.33 828.284 1580.16 828.74 1581.98C830.107 1587.44 831.473 1592.45 833.295 1597.46C835.117 1604.75 836.939 1611.58 839.672 1618.41L841.039 1623.88C842.861 1628.89 844.683 1634.36 846.505 1639.37C861.082 1677.17 878.847 1711.33 900.712 1746.4C901.623 1748.22 902.989 1749.13 904.356 1750.95C926.676 1786.02 951.274 1814.26 979.972 1842.5C1011.86 1874.84 1045.11 1901.25 1084.28 1925.85C1086.11 1927.22 1087.47 1928.13 1089.3 1929.49C1127.56 1952.72 1164.46 1970.94 1205.45 1986.43C1251.92 2003.73 1298.83 2015.57 1348.48 2022.86C1486.51 2042.45 1623.16 2022.86 1749.34 1968.21C1751.16 1967.3 1752.98 1967.3 1754.81 1966.39C1765.28 1961.83 1774.85 1956.82 1785.33 1952.27C1795.35 1947.26 1804.91 1942.25 1814.93 1937.24C1830.88 1928.13 1845.91 1919.47 1861.85 1909.91C1863.22 1909 1864.59 1907.63 1865.95 1906.72C1926.99 1868.46 1977.1 1826.56 2025.84 1775.09C2060 1738.66 2089.15 1702.67 2117.4 1659.86C2118.31 1658.49 2119.22 1658.04 2120.13 1656.67C2125.6 1648.47 2130.15 1640.73 2135.62 1632.53C2144.73 1617.5 2152.93 1603.84 2161.13 1588.81C2172.06 1568.31 2181.62 1548.73 2191.65 1527.78C2202.58 1503.64 2212.14 1479.95 2221.25 1455.36C2239.93 1403.44 2253.6 1352.43 2267.26 1297.77C2268.17 1292.76 2269.08 1287.29 2272.73 1283.2H2273.64C2275.92 1286.38 2275.46 1290.94 2275.46 1294.58C2276.37 1343.32 2268.63 1390.23 2257.24 1439.42C2255.87 1445.34 2254.51 1450.35 2253.14 1456.27C2252.69 1458.09 2251.77 1459.91 2251.32 1461.74C2227.18 1556.47 2190.28 1638 2136.53 1721.35C2135.62 1722.71 2135.16 1724.08 2134.25 1725.45C2130.61 1730.91 2126.96 1735.47 2123.77 1741.39C2120.13 1746.85 2116.03 1751.86 2112.39 1757.33C2095.99 1780.56 2080.5 1800.14 2062.28 1821.09C2051.35 1833.39 2041.33 1844.78 2029.94 1856.62C2009.89 1877.12 1991.22 1895.79 1968.9 1914.01L1964.8 1918.11C1932.91 1944.07 1903.76 1967.3 1868.68 1988.7C1866.86 1990.07 1865.5 1990.98 1863.67 1992.35C1850.92 2000.09 1839.08 2007.38 1826.32 2014.66C1818.58 2018.76 1811.75 2022.86 1804 2026.96C1705.61 2078.43 1602.66 2109.86 1492.88 2120.79C1379 2132.17 1266.95 2120.33 1158.08 2084.35C1022.79 2039.71 905.722 1962.29 812.797 1851.15C809.153 1846.6 805.964 1842.5 802.32 1837.95C754.946 1778.74 719.871 1717.25 693.907 1648.02C687.074 1629.35 680.697 1611.13 675.231 1591.54C665.209 1555.11 658.377 1519.58 653.821 1482.23C636.967 1335.12 667.031 1192.56 751.758 1064.58C754.946 1059.57 758.135 1055.47 761.323 1050.46C820.996 966.651 893.423 904.709 983.616 862.807L998.648 855.975C1051.49 833.202 1107.06 819.993 1164 814.983C1117.99 812.706 1072.9 816.35 1026.89 827.736C1025.07 828.192 1023.25 828.192 1021.42 828.647C1015.96 830.014 1010.95 831.38 1005.94 833.202C998.648 835.024 991.815 836.845 984.982 839.578L979.516 840.945C975.872 842.311 972.683 843.222 969.039 844.588C965.395 845.955 962.206 847.321 958.562 848.687C956.74 849.143 955.374 850.054 953.552 850.965C951.729 851.42 949.907 851.876 948.085 852.786C935.786 858.252 923.943 863.262 912.1 869.183C901.623 874.649 892.057 880.114 881.58 885.58C872.925 890.134 865.637 895.6 856.982 901.065C785.01 947.522 731.259 1001.72 683.886 1073.68C681.608 1077.33 679.786 1080.52 677.053 1084.16C672.042 1091.45 668.854 1097.82 664.298 1105.11L661.565 1110.58C611.458 1196.66 585.494 1288.21 575.928 1385.22C564.54 1504.55 583.672 1622.97 628.313 1733.65C652.455 1793.31 681.152 1846.6 719.871 1901.25C723.971 1907.18 728.071 1912.19 732.17 1918.11C795.487 2002.82 864.726 2066.13 953.552 2124.43C954.918 2125.34 955.829 2125.34 957.196 2126.25C976.783 2139.46 994.548 2149.48 1014.59 2160.87C1016.87 2162.23 1019.15 2163.14 1021.42 2164.05C1109.34 2212.33 1199.08 2240.57 1297.01 2264.71C1305.21 2266.53 1313.41 2267.44 1320.24 2272.45C1320.7 2272.91 1319.79 2273.37 1319.79 2273.82C1318.42 2274.73 1316.6 2274.73 1314.78 2275.19C1312.95 2275.64 1310.68 2275.19 1308.85 2275.19C1292.46 2276.1 1276.06 2275.19 1259.66 2272.91H1256.01C1249.64 2272 1243.26 2271.54 1236.88 2270.63C1184.95 2262.89 1135.76 2251.96 1086.56 2234.65C1084.28 2233.74 1082.01 2233.74 1079.73 2232.83C1010.04 2207.78 946.263 2179.08 882.035 2136.27C880.669 2135.36 879.302 2134.91 877.936 2133.99C871.103 2128.98 864.726 2125.8 857.893 2120.79C852.427 2116.69 847.416 2113.5 841.95 2109.4C840.583 2108.49 839.672 2107.12 838.306 2106.21C715.772 2016.94 625.124 1907.18 562.263 1774.64C560.441 1770.54 558.163 1767.35 556.341 1763.25C543.586 1734.56 532.198 1706.32 522.177 1676.71C509.878 1638.91 500.312 1602.93 492.569 1563.3C492.113 1560.57 492.113 1558.29 491.657 1556.02C465.693 1413.91 477.081 1275.91 523.999 1142.91C526.732 1135.17 529.465 1127.88 532.198 1120.6C544.953 1088.26 559.074 1057.74 575.928 1026.77C585.494 1009.92 594.149 994.89 605.081 978.493C638.334 928.393 672.498 886.491 714.861 845.955C718.96 842.311 723.06 838.667 727.16 834.568C752.213 811.34 776.811 792.21 805.509 772.17C825.096 758.962 842.861 748.031 862.904 736.644C865.637 735.278 867.914 734.367 870.647 733.001C964.939 681.078 1067.43 653.751 1172.66 650.107C1241.44 647.83 1309.31 656.028 1376.27 676.068C1404.06 684.722 1430.02 694.287 1456.44 706.128C1532.06 740.743 1597.65 788.111 1653.68 851.42C1732.03 940.235 1779.4 1048.63 1788.51 1163.87Z" fill="#3169EF"/>
</g>
<g filter="url(#filter3_f_244_34)">
<path d="M929.1 1407.53C922.69 1521.97 971.504 1632.47 1052.86 1714.35C1076.04 1737.54 1099.7 1756.78 1127.81 1775.52C1160.35 1796.73 1191.91 1812.52 1226.92 1825.84C1256.01 1836.69 1284.12 1844.58 1315.18 1850.5C1406.4 1867.77 1492.69 1861.35 1579.96 1835.7C1618.92 1823.86 1654.91 1809.07 1690.91 1790.32C1812.2 1726.19 1905.89 1626.05 1968.51 1504.21C1969.99 1500.76 1971.47 1497.8 1973.44 1494.35C2005 1431.2 2023.73 1367.08 2040.5 1297.52C2041.49 1294.07 2042.96 1291.11 2044.44 1287.66H2045.43C2048.39 1291.11 2045.92 1296.04 2047.4 1299.99C2046.91 1321.69 2044.94 1342.91 2041.49 1364.61C2035.57 1400.13 2027.19 1432.68 2016.34 1466.23C2006.97 1494.35 1995.63 1520.98 1983.3 1547.62C1973.93 1567.35 1963.58 1585.11 1952.73 1604.35C1951.75 1605.83 1950.76 1606.82 1949.77 1608.3C1904.41 1684.76 1849.18 1744.44 1778.18 1798.21C1737.75 1828.8 1698.3 1852.97 1653.43 1873.19C1640.61 1879.11 1627.79 1884.05 1614.48 1889.47C1584.89 1900.82 1555.8 1909.2 1524.25 1916.6C1446.34 1934.36 1371.88 1936.83 1293.48 1925.48C1243.19 1918.08 1196.84 1904.76 1150.49 1886.02C1123.87 1875.17 1099.7 1862.83 1074.56 1848.04C975.942 1788.84 899.515 1706.95 852.179 1604.35L844.783 1588.07C819.636 1529.37 805.337 1466.72 802.871 1403.09C800.899 1341.92 809.281 1281.74 829.498 1223.53C831.47 1217.61 833.935 1212.18 835.908 1206.26C866.972 1127.34 916.28 1060.25 986.79 1007.96C1004.05 995.63 1020.81 984.778 1039.06 974.912C1067.65 959.62 1096.75 948.767 1128.3 940.381C1150.99 934.462 1173.17 931.502 1195.86 929.036C1113.51 924.103 1034.62 947.781 962.629 993.657C899.022 1034.6 852.179 1085.9 814.212 1150.03C812.24 1153.98 810.268 1157.43 807.802 1161.38C793.996 1187.03 782.655 1212.18 773.287 1239.32C754.55 1293.08 745.181 1348.83 743.702 1405.55C739.757 1581.66 819.143 1750.86 953.26 1869.25C955.726 1871.22 958.191 1873.19 960.657 1875.66C962.136 1876.65 963.122 1877.63 964.601 1878.62C966.081 1879.61 966.574 1881.09 968.053 1882.07C1005.53 1913.15 1042.51 1938.8 1084.91 1961.49C1128.8 1984.68 1172.19 2002.93 1219.03 2017.73C1250.59 2028.09 1282.64 2033.51 1314.19 2044.36C1314.69 2044.36 1315.67 2044.36 1315.67 2045.35C1315.67 2045.84 1315.67 2046.34 1315.18 2046.34C1311.73 2047.82 1307.78 2047.32 1303.84 2047.32C1266.86 2047.82 1231.36 2041.4 1194.38 2033.02C1124.85 2016.25 1064.2 1991.09 1003.06 1955.57C1000.1 1954.09 998.131 1952.12 995.172 1950.15C966.081 1932.88 940.933 1914.63 914.8 1893.42L910.856 1889.47C889.16 1872.21 871.409 1853.95 852.179 1834.72C840.838 1822.88 830.977 1811.04 820.129 1798.21C755.536 1717.81 712.145 1632.47 688.477 1531.84C662.344 1421.34 665.302 1312.82 697.846 1205.77C713.624 1153.98 734.333 1107.11 764.411 1060.25C780.683 1035.09 796.954 1013.39 816.185 990.697C839.852 963.566 864.013 940.381 892.612 917.69C936.003 883.16 981.859 857.509 1032.15 837.777C1063.22 825.938 1094.28 817.059 1127.81 810.646C1208.18 795.847 1285.6 800.287 1362.52 823.965C1368.43 825.938 1373.86 827.418 1379.77 829.391C1488.74 866.881 1579.96 943.341 1632.23 1046.93C1655.9 1094.29 1669.7 1144.11 1674.14 1195.91C1675.13 1180.12 1674.63 1164.34 1673.65 1148.55C1672.17 1129.8 1669.21 1112.54 1665.27 1093.79C1653.43 1041.01 1633.22 997.603 1602.65 952.22C1600.18 948.767 1597.71 945.808 1595.25 941.861C1588.84 932.982 1582.92 925.089 1576.02 917.197C1573.06 914.237 1570.6 911.277 1567.64 907.824C1514.88 848.136 1449.79 805.22 1376.32 777.596C1372.38 776.116 1367.94 774.636 1364 773.156C1222.48 723.334 1067.65 737.639 933.044 802.754C839.359 848.136 762.439 912.264 697.846 997.603C695.873 1000.07 694.394 1002.54 692.422 1005C691.436 1006.48 690.943 1007.47 689.956 1008.95C688.97 1010.43 687.984 1010.92 686.998 1012.4C656.427 1056.3 633.745 1098.23 613.036 1145.1C612.543 1146.08 612.543 1147.56 612.05 1148.55C602.188 1169.76 594.792 1191.96 587.396 1214.16C580 1238.33 573.59 1261.51 567.673 1286.67C567.18 1288.15 566.194 1289.14 566.194 1290.62C566.194 1292.1 565.701 1293.08 565.207 1294.56C563.235 1301.96 562.742 1309.36 558.304 1315.78C557.811 1316.27 557.318 1315.78 557.318 1315.28C555.346 1308.87 555.839 1301.96 555.839 1295.55C556.332 1286.18 556.825 1277.3 557.811 1267.93C558.797 1261.02 559.291 1254.61 560.277 1247.7C563.728 1223.04 568.659 1200.35 575.069 1176.17C577.534 1167.29 579.507 1158.91 582.465 1150.52C585.424 1142.63 587.396 1134.74 590.354 1126.85C594.299 1116.98 597.751 1107.61 601.202 1097.74C601.695 1096.75 602.681 1095.27 603.175 1094.29C639.169 1004.02 693.408 924.596 764.904 856.522C766.384 855.042 767.37 853.562 768.849 852.083C855.631 771.183 954.74 715.935 1071.6 688.31C1182.05 662.166 1290.53 665.126 1397.52 697.683C1552.35 744.545 1683.02 852.083 1751.06 999.083L1758.46 1015.36C1789.52 1088.37 1803.82 1166.8 1799.88 1245.73C1798.89 1263.98 1796.92 1281.74 1793.96 1300.48C1787.55 1337.48 1777.69 1371.52 1763.88 1405.55L1756.49 1421.83C1717.53 1507.17 1654.91 1577.71 1571.58 1624.08C1566.16 1627.04 1561.23 1629.51 1556.3 1632.47C1508.96 1656.15 1458.67 1669.96 1406.89 1674.4C1434.01 1675.88 1460.15 1674.4 1487.26 1669.96C1494.66 1668.48 1501.56 1667 1509.45 1665.52C1531.15 1660.58 1550.38 1654.17 1570.6 1646.28C1595.25 1636.41 1617.44 1624.08 1640.61 1609.78C1656.88 1598.92 1671.18 1588.56 1685.98 1576.23C1688.93 1573.27 1691.89 1570.81 1695.34 1567.85C1755.01 1514.57 1797.9 1449.95 1825.52 1376.45C1827 1372.5 1828.48 1368.06 1829.95 1364.12C1871.37 1245.73 1868.41 1117.97 1827.98 999.576C1827.49 997.603 1826.01 996.123 1825.52 994.15C1796.92 910.784 1750.57 837.777 1689.92 773.156C1638.15 718.401 1580.95 675.485 1514.88 639.968C1513.4 639.475 1512.41 638.981 1510.93 638.488C1493.67 628.129 1475.92 621.223 1458.17 612.837C1446.83 607.904 1435.98 603.958 1424.64 599.518C1412.81 595.078 1400.98 591.132 1389.14 587.186C1377.8 583.733 1367.45 580.773 1356.11 577.32C1334.41 571.894 1314.19 566.961 1292.99 561.041C1291.51 560.548 1289.54 560.055 1288.55 559.068C1288.55 558.575 1287.57 558.575 1287.57 557.588C1287.57 556.602 1289.05 557.588 1288.55 556.602C1291.02 556.109 1293.98 556.109 1296.44 556.109C1309.26 555.122 1322.08 556.602 1334.9 557.588C1349.7 559.068 1364 561.535 1379.28 564.001C1399.99 567.948 1419.22 572.88 1439.44 578.8C1440.42 579.293 1441.9 578.8 1442.89 579.293C1456.69 583.733 1470.01 587.679 1483.32 593.105C1484.8 593.599 1485.79 593.599 1487.26 594.092C1525.23 608.397 1560.24 625.169 1595.74 645.394C1618.42 658.22 1637.65 671.538 1658.86 686.83C1688.44 708.535 1713.09 730.733 1738.73 755.891C1744.16 761.81 1749.58 767.237 1755.01 773.156C1799.38 821.499 1834.89 872.801 1863.98 931.009C1918.71 1041.51 1941.88 1163.35 1928.08 1286.18C1917.72 1381.38 1888.14 1467.71 1833.9 1550.58C1774.73 1640.85 1698.8 1707.45 1604.12 1751.35L1587.85 1758.75C1554.32 1773.05 1521.29 1783.41 1484.31 1790.81C1477.9 1791.8 1472.47 1793.28 1466.06 1794.27C1422.67 1801.17 1381.75 1802.16 1338.85 1798.71C1292.99 1794.76 1249.11 1783.91 1206.21 1767.63C1155.42 1747.4 1109.57 1719.78 1068.15 1682.78C1045.47 1662.06 1026.73 1641.84 1007.99 1616.68C991.721 1593.99 978.407 1572.78 967.067 1548.61C946.357 1503.72 933.044 1456.36 929.1 1407.53Z" fill="#BB7AFF"/>
</g>
<g filter="url(#filter4_f_244_34)">
<path d="M929.1 1407.53C922.69 1521.97 971.504 1632.47 1052.86 1714.35C1076.04 1737.54 1099.7 1756.78 1127.81 1775.52C1160.35 1796.73 1191.91 1812.52 1226.92 1825.84C1256.01 1836.69 1284.12 1844.58 1315.18 1850.5C1406.4 1867.77 1492.69 1861.35 1579.96 1835.7C1618.92 1823.86 1654.91 1809.07 1690.91 1790.32C1812.2 1726.19 1905.89 1626.05 1968.51 1504.21C1969.99 1500.76 1971.47 1497.8 1973.44 1494.35C2005 1431.2 2023.73 1367.08 2040.5 1297.52C2041.49 1294.07 2042.96 1291.11 2044.44 1287.66H2045.43C2048.39 1291.11 2045.92 1296.04 2047.4 1299.99C2046.91 1321.69 2044.94 1342.91 2041.49 1364.61C2035.57 1400.13 2027.19 1432.68 2016.34 1466.23C2006.97 1494.35 1995.63 1520.98 1983.3 1547.62C1973.93 1567.35 1963.58 1585.11 1952.73 1604.35C1951.75 1605.83 1950.76 1606.82 1949.77 1608.3C1904.41 1684.76 1849.18 1744.44 1778.18 1798.21C1737.75 1828.8 1698.3 1852.97 1653.43 1873.19C1640.61 1879.11 1627.79 1884.05 1614.48 1889.47C1584.89 1900.82 1555.8 1909.2 1524.25 1916.6C1446.34 1934.36 1371.88 1936.83 1293.48 1925.48C1243.19 1918.08 1196.84 1904.76 1150.49 1886.02C1123.87 1875.17 1099.7 1862.83 1074.56 1848.04C975.942 1788.84 899.515 1706.95 852.179 1604.35L844.783 1588.07C819.636 1529.37 805.337 1466.72 802.871 1403.09C800.899 1341.92 809.281 1281.74 829.498 1223.53C831.47 1217.61 833.935 1212.18 835.908 1206.26C866.972 1127.34 916.28 1060.25 986.79 1007.96C1004.05 995.63 1020.81 984.778 1039.06 974.912C1067.65 959.62 1096.75 948.767 1128.3 940.381C1150.99 934.462 1173.17 931.502 1195.86 929.036C1113.51 924.103 1034.62 947.781 962.629 993.657C899.022 1034.6 852.179 1085.9 814.212 1150.03C812.24 1153.98 810.268 1157.43 807.802 1161.38C793.996 1187.03 782.655 1212.18 773.287 1239.32C754.55 1293.08 745.181 1348.83 743.702 1405.55C739.757 1581.66 819.143 1750.86 953.26 1869.25C955.726 1871.22 958.191 1873.19 960.657 1875.66C962.136 1876.65 963.122 1877.63 964.601 1878.62C966.081 1879.61 966.574 1881.09 968.053 1882.07C1005.53 1913.15 1042.51 1938.8 1084.91 1961.49C1128.8 1984.68 1172.19 2002.93 1219.03 2017.73C1250.59 2028.09 1282.64 2033.51 1314.19 2044.36C1314.69 2044.36 1315.67 2044.36 1315.67 2045.35C1315.67 2045.84 1315.67 2046.34 1315.18 2046.34C1311.73 2047.82 1307.78 2047.32 1303.84 2047.32C1266.86 2047.82 1231.36 2041.4 1194.38 2033.02C1124.85 2016.25 1064.2 1991.09 1003.06 1955.57C1000.1 1954.09 998.131 1952.12 995.172 1950.15C966.081 1932.88 940.933 1914.63 914.8 1893.42L910.856 1889.47C889.16 1872.21 871.409 1853.95 852.179 1834.72C840.838 1822.88 830.977 1811.04 820.129 1798.21C755.536 1717.81 712.145 1632.47 688.477 1531.84C662.344 1421.34 665.302 1312.82 697.846 1205.77C713.624 1153.98 734.333 1107.11 764.411 1060.25C780.683 1035.09 796.954 1013.39 816.185 990.697C839.852 963.566 864.013 940.381 892.612 917.69C936.003 883.16 981.859 857.509 1032.15 837.777C1063.22 825.938 1094.28 817.059 1127.81 810.646C1208.18 795.847 1285.6 800.287 1362.52 823.965C1368.43 825.938 1373.86 827.418 1379.77 829.391C1488.74 866.881 1579.96 943.341 1632.23 1046.93C1655.9 1094.29 1669.7 1144.11 1674.14 1195.91C1675.13 1180.12 1674.63 1164.34 1673.65 1148.55C1672.17 1129.8 1669.21 1112.54 1665.27 1093.79C1653.43 1041.01 1633.22 997.603 1602.65 952.22C1600.18 948.767 1597.71 945.808 1595.25 941.861C1588.84 932.982 1582.92 925.089 1576.02 917.197C1573.06 914.237 1570.6 911.277 1567.64 907.824C1514.88 848.136 1449.79 805.22 1376.32 777.596C1372.38 776.116 1367.94 774.636 1364 773.156C1222.48 723.334 1067.65 737.639 933.044 802.754C839.359 848.136 762.439 912.264 697.846 997.603C695.873 1000.07 694.394 1002.54 692.422 1005C691.436 1006.48 690.943 1007.47 689.956 1008.95C688.97 1010.43 687.984 1010.92 686.998 1012.4C656.427 1056.3 633.745 1098.23 613.036 1145.1C612.543 1146.08 612.543 1147.56 612.05 1148.55C602.188 1169.76 594.792 1191.96 587.396 1214.16C580 1238.33 573.59 1261.51 567.673 1286.67C567.18 1288.15 566.194 1289.14 566.194 1290.62C566.194 1292.1 565.701 1293.08 565.207 1294.56C563.235 1301.96 562.742 1309.36 558.304 1315.78C557.811 1316.27 557.318 1315.78 557.318 1315.28C555.346 1308.87 555.839 1301.96 555.839 1295.55C556.332 1286.18 556.825 1277.3 557.811 1267.93C558.797 1261.02 559.291 1254.61 560.277 1247.7C563.728 1223.04 568.659 1200.35 575.069 1176.17C577.534 1167.29 579.507 1158.91 582.465 1150.52C585.424 1142.63 587.396 1134.74 590.354 1126.85C594.299 1116.98 597.751 1107.61 601.202 1097.74C601.695 1096.75 602.681 1095.27 603.175 1094.29C639.169 1004.02 693.408 924.596 764.904 856.522C766.384 855.042 767.37 853.562 768.849 852.083C855.631 771.183 954.74 715.935 1071.6 688.31C1182.05 662.166 1290.53 665.126 1397.52 697.683C1552.35 744.545 1683.02 852.083 1751.06 999.083L1758.46 1015.36C1789.52 1088.37 1803.82 1166.8 1799.88 1245.73C1798.89 1263.98 1796.92 1281.74 1793.96 1300.48C1787.55 1337.48 1777.69 1371.52 1763.88 1405.55L1756.49 1421.83C1717.53 1507.17 1654.91 1577.71 1571.58 1624.08C1566.16 1627.04 1561.23 1629.51 1556.3 1632.47C1508.96 1656.15 1458.67 1669.96 1406.89 1674.4C1434.01 1675.88 1460.15 1674.4 1487.26 1669.96C1494.66 1668.48 1501.56 1667 1509.45 1665.52C1531.15 1660.58 1550.38 1654.17 1570.6 1646.28C1595.25 1636.41 1617.44 1624.08 1640.61 1609.78C1656.88 1598.92 1671.18 1588.56 1685.98 1576.23C1688.93 1573.27 1691.89 1570.81 1695.34 1567.85C1755.01 1514.57 1797.9 1449.95 1825.52 1376.45C1827 1372.5 1828.48 1368.06 1829.95 1364.12C1871.37 1245.73 1868.41 1117.97 1827.98 999.576C1827.49 997.603 1826.01 996.123 1825.52 994.15C1796.92 910.784 1750.57 837.777 1689.92 773.156C1638.15 718.401 1580.95 675.485 1514.88 639.968C1513.4 639.475 1512.41 638.981 1510.93 638.488C1493.67 628.129 1475.92 621.223 1458.17 612.837C1446.83 607.904 1435.98 603.958 1424.64 599.518C1412.81 595.078 1400.98 591.132 1389.14 587.186C1377.8 583.733 1367.45 580.773 1356.11 577.32C1334.41 571.894 1314.19 566.961 1292.99 561.041C1291.51 560.548 1289.54 560.055 1288.55 559.068C1288.55 558.575 1287.57 558.575 1287.57 557.588C1287.57 556.602 1289.05 557.588 1288.55 556.602C1291.02 556.109 1293.98 556.109 1296.44 556.109C1309.26 555.122 1322.08 556.602 1334.9 557.588C1349.7 559.068 1364 561.535 1379.28 564.001C1399.99 567.948 1419.22 572.88 1439.44 578.8C1440.42 579.293 1441.9 578.8 1442.89 579.293C1456.69 583.733 1470.01 587.679 1483.32 593.105C1484.8 593.599 1485.79 593.599 1487.26 594.092C1525.23 608.397 1560.24 625.169 1595.74 645.394C1618.42 658.22 1637.65 671.538 1658.86 686.83C1688.44 708.535 1713.09 730.733 1738.73 755.891C1744.16 761.81 1749.58 767.237 1755.01 773.156C1799.38 821.499 1834.89 872.801 1863.98 931.009C1918.71 1041.51 1941.88 1163.35 1928.08 1286.18C1917.72 1381.38 1888.14 1467.71 1833.9 1550.58C1774.73 1640.85 1698.8 1707.45 1604.12 1751.35L1587.85 1758.75C1554.32 1773.05 1521.29 1783.41 1484.31 1790.81C1477.9 1791.8 1472.47 1793.28 1466.06 1794.27C1422.67 1801.17 1381.75 1802.16 1338.85 1798.71C1292.99 1794.76 1249.11 1783.91 1206.21 1767.63C1155.42 1747.4 1109.57 1719.78 1068.15 1682.78C1045.47 1662.06 1026.73 1641.84 1007.99 1616.68C991.721 1593.99 978.407 1572.78 967.067 1548.61C946.357 1503.72 933.044 1456.36 929.1 1407.53Z" fill="#7E18EA"/>
</g>
<g filter="url(#filter5_f_244_34)">
<path d="M929.1 1407.53C922.69 1521.97 971.504 1632.47 1052.86 1714.35C1076.04 1737.54 1099.7 1756.78 1127.81 1775.52C1160.35 1796.73 1191.91 1812.52 1226.92 1825.84C1256.01 1836.69 1284.12 1844.58 1315.18 1850.5C1406.4 1867.77 1492.69 1861.35 1579.96 1835.7C1618.92 1823.86 1654.91 1809.07 1690.91 1790.32C1812.2 1726.19 1905.89 1626.05 1968.51 1504.21C1969.99 1500.76 1971.47 1497.8 1973.44 1494.35C2005 1431.2 2023.73 1367.08 2040.5 1297.52C2041.49 1294.07 2042.96 1291.11 2044.44 1287.66H2045.43C2048.39 1291.11 2045.92 1296.04 2047.4 1299.99C2046.91 1321.69 2044.94 1342.91 2041.49 1364.61C2035.57 1400.13 2027.19 1432.68 2016.34 1466.23C2006.97 1494.35 1995.63 1520.98 1983.3 1547.62C1973.93 1567.35 1963.58 1585.11 1952.73 1604.35C1951.75 1605.83 1950.76 1606.82 1949.77 1608.3C1904.41 1684.76 1849.18 1744.44 1778.18 1798.21C1737.75 1828.8 1698.3 1852.97 1653.43 1873.19C1640.61 1879.11 1627.79 1884.05 1614.48 1889.47C1584.89 1900.82 1555.8 1909.2 1524.25 1916.6C1446.34 1934.36 1371.88 1936.83 1293.48 1925.48C1243.19 1918.08 1196.84 1904.76 1150.49 1886.02C1123.87 1875.17 1099.7 1862.83 1074.56 1848.04C975.942 1788.84 899.515 1706.95 852.179 1604.35L844.783 1588.07C819.636 1529.37 805.337 1466.72 802.871 1403.09C800.899 1341.92 809.281 1281.74 829.498 1223.53C831.47 1217.61 833.935 1212.18 835.908 1206.26C866.972 1127.34 916.28 1060.25 986.79 1007.96C1004.05 995.63 1020.81 984.778 1039.06 974.912C1067.65 959.62 1096.75 948.767 1128.3 940.381C1150.99 934.462 1173.17 931.502 1195.86 929.036C1113.51 924.103 1034.62 947.781 962.629 993.657C899.022 1034.6 852.179 1085.9 814.212 1150.03C812.24 1153.98 810.268 1157.43 807.802 1161.38C793.996 1187.03 782.655 1212.18 773.287 1239.32C754.55 1293.08 745.181 1348.83 743.702 1405.55C739.757 1581.66 819.143 1750.86 953.26 1869.25C955.726 1871.22 958.191 1873.19 960.657 1875.66C962.136 1876.65 963.122 1877.63 964.601 1878.62C966.081 1879.61 966.574 1881.09 968.053 1882.07C1005.53 1913.15 1042.51 1938.8 1084.91 1961.49C1128.8 1984.68 1172.19 2002.93 1219.03 2017.73C1250.59 2028.09 1282.64 2033.51 1314.19 2044.36C1314.69 2044.36 1315.67 2044.36 1315.67 2045.35C1315.67 2045.84 1315.67 2046.34 1315.18 2046.34C1311.73 2047.82 1307.78 2047.32 1303.84 2047.32C1266.86 2047.82 1231.36 2041.4 1194.38 2033.02C1124.85 2016.25 1064.2 1991.09 1003.06 1955.57C1000.1 1954.09 998.131 1952.12 995.172 1950.15C966.081 1932.88 940.933 1914.63 914.8 1893.42L910.856 1889.47C889.16 1872.21 871.409 1853.95 852.179 1834.72C840.838 1822.88 830.977 1811.04 820.129 1798.21C755.536 1717.81 712.145 1632.47 688.477 1531.84C662.344 1421.34 665.302 1312.82 697.846 1205.77C713.624 1153.98 734.333 1107.11 764.411 1060.25C780.683 1035.09 796.954 1013.39 816.185 990.697C839.852 963.566 864.013 940.381 892.612 917.69C936.003 883.16 981.859 857.509 1032.15 837.777C1063.22 825.938 1094.28 817.059 1127.81 810.646C1208.18 795.847 1285.6 800.287 1362.52 823.965C1368.43 825.938 1373.86 827.418 1379.77 829.391C1488.74 866.881 1579.96 943.341 1632.23 1046.93C1655.9 1094.29 1669.7 1144.11 1674.14 1195.91C1675.13 1180.12 1674.63 1164.34 1673.65 1148.55C1672.17 1129.8 1669.21 1112.54 1665.27 1093.79C1653.43 1041.01 1633.22 997.603 1602.65 952.22C1600.18 948.767 1597.71 945.808 1595.25 941.861C1588.84 932.982 1582.92 925.089 1576.02 917.197C1573.06 914.237 1570.6 911.277 1567.64 907.824C1514.88 848.136 1449.79 805.22 1376.32 777.596C1372.38 776.116 1367.94 774.636 1364 773.156C1222.48 723.334 1067.65 737.639 933.044 802.754C839.359 848.136 762.439 912.264 697.846 997.603C695.873 1000.07 694.394 1002.54 692.422 1005C691.436 1006.48 690.943 1007.47 689.956 1008.95C688.97 1010.43 687.984 1010.92 686.998 1012.4C656.427 1056.3 633.745 1098.23 613.036 1145.1C612.543 1146.08 612.543 1147.56 612.05 1148.55C602.188 1169.76 594.792 1191.96 587.396 1214.16C580 1238.33 573.59 1261.51 567.673 1286.67C567.18 1288.15 566.194 1289.14 566.194 1290.62C566.194 1292.1 565.701 1293.08 565.207 1294.56C563.235 1301.96 562.742 1309.36 558.304 1315.78C557.811 1316.27 557.318 1315.78 557.318 1315.28C555.346 1308.87 555.839 1301.96 555.839 1295.55C556.332 1286.18 556.825 1277.3 557.811 1267.93C558.797 1261.02 559.291 1254.61 560.277 1247.7C563.728 1223.04 568.659 1200.35 575.069 1176.17C577.534 1167.29 579.507 1158.91 582.465 1150.52C585.424 1142.63 587.396 1134.74 590.354 1126.85C594.299 1116.98 597.751 1107.61 601.202 1097.74C601.695 1096.75 602.681 1095.27 603.175 1094.29C639.169 1004.02 693.408 924.596 764.904 856.522C766.384 855.042 767.37 853.562 768.849 852.083C855.631 771.183 954.74 715.935 1071.6 688.31C1182.05 662.166 1290.53 665.126 1397.52 697.683C1552.35 744.545 1683.02 852.083 1751.06 999.083L1758.46 1015.36C1789.52 1088.37 1803.82 1166.8 1799.88 1245.73C1798.89 1263.98 1796.92 1281.74 1793.96 1300.48C1787.55 1337.48 1777.69 1371.52 1763.88 1405.55L1756.49 1421.83C1717.53 1507.17 1654.91 1577.71 1571.58 1624.08C1566.16 1627.04 1561.23 1629.51 1556.3 1632.47C1508.96 1656.15 1458.67 1669.96 1406.89 1674.4C1434.01 1675.88 1460.15 1674.4 1487.26 1669.96C1494.66 1668.48 1501.56 1667 1509.45 1665.52C1531.15 1660.58 1550.38 1654.17 1570.6 1646.28C1595.25 1636.41 1617.44 1624.08 1640.61 1609.78C1656.88 1598.92 1671.18 1588.56 1685.98 1576.23C1688.93 1573.27 1691.89 1570.81 1695.34 1567.85C1755.01 1514.57 1797.9 1449.95 1825.52 1376.45C1827 1372.5 1828.48 1368.06 1829.95 1364.12C1871.37 1245.73 1868.41 1117.97 1827.98 999.576C1827.49 997.603 1826.01 996.123 1825.52 994.15C1796.92 910.784 1750.57 837.777 1689.92 773.156C1638.15 718.401 1580.95 675.485 1514.88 639.968C1513.4 639.475 1512.41 638.981 1510.93 638.488C1493.67 628.129 1475.92 621.223 1458.17 612.837C1446.83 607.904 1435.98 603.958 1424.64 599.518C1412.81 595.078 1400.98 591.132 1389.14 587.186C1377.8 583.733 1367.45 580.773 1356.11 577.32C1334.41 571.894 1314.19 566.961 1292.99 561.041C1291.51 560.548 1289.54 560.055 1288.55 559.068C1288.55 558.575 1287.57 558.575 1287.57 557.588C1287.57 556.602 1289.05 557.588 1288.55 556.602C1291.02 556.109 1293.98 556.109 1296.44 556.109C1309.26 555.122 1322.08 556.602 1334.9 557.588C1349.7 559.068 1364 561.535 1379.28 564.001C1399.99 567.948 1419.22 572.88 1439.44 578.8C1440.42 579.293 1441.9 578.8 1442.89 579.293C1456.69 583.733 1470.01 587.679 1483.32 593.105C1484.8 593.599 1485.79 593.599 1487.26 594.092C1525.23 608.397 1560.24 625.169 1595.74 645.394C1618.42 658.22 1637.65 671.538 1658.86 686.83C1688.44 708.535 1713.09 730.733 1738.73 755.891C1744.16 761.81 1749.58 767.237 1755.01 773.156C1799.38 821.499 1834.89 872.801 1863.98 931.009C1918.71 1041.51 1941.88 1163.35 1928.08 1286.18C1917.72 1381.38 1888.14 1467.71 1833.9 1550.58C1774.73 1640.85 1698.8 1707.45 1604.12 1751.35L1587.85 1758.75C1554.32 1773.05 1521.29 1783.41 1484.31 1790.81C1477.9 1791.8 1472.47 1793.28 1466.06 1794.27C1422.67 1801.17 1381.75 1802.16 1338.85 1798.71C1292.99 1794.76 1249.11 1783.91 1206.21 1767.63C1155.42 1747.4 1109.57 1719.78 1068.15 1682.78C1045.47 1662.06 1026.73 1641.84 1007.99 1616.68C991.721 1593.99 978.407 1572.78 967.067 1548.61C946.357 1503.72 933.044 1456.36 929.1 1407.53Z" fill="#BB7AFF"/>
</g>
<g filter="url(#filter6_f_244_34)">
<path d="M1595.09 1218.43C1598.78 1159.45 1583.41 1101.08 1553.29 1048.85C1542.22 1030.42 1531.16 1014.44 1517.63 998.467C1504.72 983.72 1493.05 970.817 1478.29 958.529C1446.33 931.494 1413.13 910.603 1375.63 894.628C1315.39 869.437 1250.23 858.377 1185.07 862.678C1151.26 865.136 1118.07 870.051 1084.88 879.882C1055.37 888.484 1028.32 899.544 1001.27 913.061C996.971 915.519 992.668 917.362 988.365 919.82C951.482 940.096 919.517 963.444 888.167 992.322C886.322 994.166 885.708 995.395 883.864 997.238C848.21 1029.8 820.548 1065.44 795.959 1106.61C791.042 1114.59 786.124 1120.74 782.436 1128.73C781.821 1130.57 781.206 1131.8 780.592 1133.64C752.315 1185.25 735.103 1237.48 721.579 1295.24C719.735 1301.38 719.12 1306.91 716.047 1312.44C712.973 1312.44 714.202 1309.98 714.202 1308.14C712.358 1284.18 716.047 1260.83 720.964 1236.25C727.111 1207.37 733.259 1181.57 744.323 1155.15C744.938 1153.3 744.938 1152.07 745.553 1150.23C767.683 1093.09 797.189 1042.09 837.145 994.166C840.219 990.479 843.292 987.407 846.366 983.72L851.284 978.805C853.128 976.962 853.743 975.118 855.587 973.275C878.331 949.312 901.076 928.422 928.123 908.146L941.032 898.929C992.668 862.678 1043.69 839.329 1102.7 822.74C1108.85 821.511 1114.38 820.282 1120.53 818.439C1276.05 780.344 1438.34 818.439 1555.75 927.193C1600.01 968.36 1634.43 1015.67 1659.02 1069.74C1680.53 1118.28 1693.44 1170.51 1694.67 1223.35C1696.52 1295.24 1680.53 1365.28 1643.04 1429.18C1587.71 1523.8 1491.82 1587.09 1384.86 1595.08C1497.96 1601.84 1603.08 1542.85 1669.47 1446.39C1734.63 1352.38 1753.68 1247.31 1735.24 1137.94C1721.72 1058.07 1690.98 989.25 1641.19 924.121C1578.49 842.402 1497.96 786.489 1405.14 750.852C1370.1 737.949 1335.68 728.732 1298.8 719.516C1295.72 718.901 1293.26 717.672 1290.8 716.444C1291.42 715.829 1289.57 715.829 1290.19 715.215C1304.33 711.528 1318.47 715.829 1332.6 715.829C1371.95 721.359 1410.67 729.961 1448.17 744.707C1450.02 745.322 1451.24 745.322 1453.09 745.936C1518.86 771.742 1577.26 807.379 1630.13 855.919L1650.41 876.195C1745.08 972.661 1797.94 1101.08 1798.56 1233.79C1798.56 1270.04 1794.87 1305.68 1786.88 1342.55C1778.27 1381.26 1765.36 1415.05 1748.77 1450.07C1713.11 1522.58 1662.09 1581.56 1592.01 1627.03C1506.57 1682.94 1411.29 1705.06 1312.32 1690.93C1247.16 1681.71 1188.76 1658.98 1136.51 1617.81C1100.24 1588.93 1071.35 1557.6 1049.22 1517.66C1045.53 1510.9 1042.46 1505.37 1038.77 1498.61C1022.17 1462.36 1010.49 1424.27 1008.04 1384.94C1004.96 1423.65 1011.72 1462.98 1025.25 1499.84C1030.17 1513.97 1035.7 1527.49 1042.46 1541.01C1049.84 1554.53 1057.21 1566.81 1066.43 1580.33C1079.34 1598.15 1091.64 1613.51 1107 1628.26C1134.67 1655.29 1164.17 1676.8 1197.98 1694.62C1266.22 1730.87 1341.83 1745 1418.05 1740.7C1513.33 1735.17 1601.23 1700.76 1679.3 1641.16C1727.87 1603.07 1765.36 1562.51 1799.17 1510.29C1800.4 1508.44 1800.4 1507.21 1801.63 1505.37C1803.48 1502.3 1805.93 1499.84 1807.78 1496.77C1815.77 1481.41 1824.38 1467.89 1831.14 1452.53C1831.75 1451.3 1832.98 1450.07 1833.6 1448.84C1855.73 1402.76 1869.86 1356.06 1882.77 1305.07C1884 1300.15 1884.62 1294.62 1887.69 1290.32C1890.15 1292.16 1888.92 1294.62 1888.92 1297.08C1890.77 1313.67 1887.69 1329.03 1885.23 1345.62C1884 1354.22 1883.39 1361.59 1881.54 1370.2C1868.64 1432.87 1847.12 1486.32 1814.54 1541.01C1813.31 1542.85 1812.08 1544.08 1810.85 1545.92C1783.8 1590.16 1753.68 1626.41 1716.19 1660.82C1673.77 1700.15 1627.05 1730.25 1575.42 1753.6C1476.45 1797.84 1369.49 1810.74 1260.68 1786.78C1186.3 1769.58 1121.76 1739.47 1063.36 1690.31C1005.58 1641.16 961.932 1582.17 935.499 1512.74C905.379 1434.1 899.231 1350.53 920.746 1267.59C935.499 1211.67 961.317 1163.13 999.43 1119.51C1029.55 1085.72 1063.97 1058.68 1104.55 1039.02C1140.81 1022.43 1178.93 1010.76 1218.27 1008.3C1179.54 1005.23 1140.81 1012.6 1103.32 1024.89C1098.4 1026.73 1094.1 1028.57 1089.18 1030.42C994.512 1067.9 923.82 1149 888.167 1243.01C878.946 1268.82 872.184 1294.01 867.266 1321.66C856.201 1389.24 861.119 1453.76 879.561 1518.27C885.093 1535.48 890.625 1551.45 897.387 1568.04C913.37 1606.14 932.426 1639.93 957.629 1673.72C997.586 1725.95 1041.85 1766.5 1097.78 1802.14C1161.1 1842.08 1225.64 1864.81 1297.57 1882.02C1302.48 1883.25 1307.4 1885.09 1312.32 1886.93V1888.16C1306.79 1890 1300.64 1889.39 1294.49 1889.39C1277.9 1888.16 1262.53 1886.32 1245.93 1883.86C1242.86 1883.25 1239.17 1882.63 1236.09 1882.02C1218.27 1877.72 1201.67 1874.03 1184.46 1869.11L1167.86 1863.58C1063.97 1828.56 976.071 1765.27 907.837 1674.95L898.617 1662.05C891.24 1649.76 882.634 1639.93 876.487 1627.64C874.028 1622.73 871.569 1618.43 868.496 1613.51C804.565 1498.61 786.739 1368.35 821.163 1241.17C840.834 1168.05 875.258 1103.53 926.894 1047.62C960.088 1011.37 996.356 982.492 1039.39 959.143C1086.72 933.952 1135.9 917.362 1188.76 911.218C1238.55 905.073 1286.5 908.146 1335.68 921.049C1391.62 935.795 1440.18 961.601 1483.82 999.696C1503.5 1017.51 1520.09 1035.33 1536.08 1057.45C1571.11 1107.22 1590.78 1160.68 1595.09 1218.43Z" fill="#FF719D"/>
</g>
<g filter="url(#filter7_f_244_34)">
<path d="M1595.09 1218.43C1598.78 1159.45 1583.41 1101.08 1553.29 1048.85C1542.22 1030.42 1531.16 1014.44 1517.63 998.467C1504.72 983.72 1493.05 970.817 1478.29 958.529C1446.33 931.494 1413.13 910.603 1375.63 894.628C1315.39 869.437 1250.23 858.377 1185.07 862.678C1151.26 865.136 1118.07 870.051 1084.88 879.882C1055.37 888.484 1028.32 899.544 1001.27 913.061C996.971 915.519 992.668 917.362 988.365 919.82C951.482 940.096 919.517 963.444 888.167 992.322C886.322 994.166 885.708 995.395 883.864 997.238C848.21 1029.8 820.548 1065.44 795.959 1106.61C791.042 1114.59 786.124 1120.74 782.436 1128.73C781.821 1130.57 781.206 1131.8 780.592 1133.64C752.315 1185.25 735.103 1237.48 721.579 1295.24C719.735 1301.38 719.12 1306.91 716.047 1312.44C712.973 1312.44 714.202 1309.98 714.202 1308.14C712.358 1284.18 716.047 1260.83 720.964 1236.25C727.111 1207.37 733.259 1181.57 744.323 1155.15C744.938 1153.3 744.938 1152.07 745.553 1150.23C767.683 1093.09 797.189 1042.09 837.145 994.166C840.219 990.479 843.292 987.407 846.366 983.72L851.284 978.805C853.128 976.962 853.743 975.118 855.587 973.275C878.331 949.312 901.076 928.422 928.123 908.146L941.032 898.929C992.668 862.678 1043.69 839.329 1102.7 822.74C1108.85 821.511 1114.38 820.282 1120.53 818.439C1276.05 780.344 1438.34 818.439 1555.75 927.193C1600.01 968.36 1634.43 1015.67 1659.02 1069.74C1680.53 1118.28 1693.44 1170.51 1694.67 1223.35C1696.52 1295.24 1680.53 1365.28 1643.04 1429.18C1587.71 1523.8 1491.82 1587.09 1384.86 1595.08C1497.96 1601.84 1603.08 1542.85 1669.47 1446.39C1734.63 1352.38 1753.68 1247.31 1735.24 1137.94C1721.72 1058.07 1690.98 989.25 1641.19 924.121C1578.49 842.402 1497.96 786.489 1405.14 750.852C1370.1 737.949 1335.68 728.732 1298.8 719.516C1295.72 718.901 1293.26 717.672 1290.8 716.444C1291.42 715.829 1289.57 715.829 1290.19 715.215C1304.33 711.528 1318.47 715.829 1332.6 715.829C1371.95 721.359 1410.67 729.961 1448.17 744.707C1450.02 745.322 1451.24 745.322 1453.09 745.936C1518.86 771.742 1577.26 807.379 1630.13 855.919L1650.41 876.195C1745.08 972.661 1797.94 1101.08 1798.56 1233.79C1798.56 1270.04 1794.87 1305.68 1786.88 1342.55C1778.27 1381.26 1765.36 1415.05 1748.77 1450.07C1713.11 1522.58 1662.09 1581.56 1592.01 1627.03C1506.57 1682.94 1411.29 1705.06 1312.32 1690.93C1247.16 1681.71 1188.76 1658.98 1136.51 1617.81C1100.24 1588.93 1071.35 1557.6 1049.22 1517.66C1045.53 1510.9 1042.46 1505.37 1038.77 1498.61C1022.17 1462.36 1010.49 1424.27 1008.04 1384.94C1004.96 1423.65 1011.72 1462.98 1025.25 1499.84C1030.17 1513.97 1035.7 1527.49 1042.46 1541.01C1049.84 1554.53 1057.21 1566.81 1066.43 1580.33C1079.34 1598.15 1091.64 1613.51 1107 1628.26C1134.67 1655.29 1164.17 1676.8 1197.98 1694.62C1266.22 1730.87 1341.83 1745 1418.05 1740.7C1513.33 1735.17 1601.23 1700.76 1679.3 1641.16C1727.87 1603.07 1765.36 1562.51 1799.17 1510.29C1800.4 1508.44 1800.4 1507.21 1801.63 1505.37C1803.48 1502.3 1805.93 1499.84 1807.78 1496.77C1815.77 1481.41 1824.38 1467.89 1831.14 1452.53C1831.75 1451.3 1832.98 1450.07 1833.6 1448.84C1855.73 1402.76 1869.86 1356.06 1882.77 1305.07C1884 1300.15 1884.62 1294.62 1887.69 1290.32C1890.15 1292.16 1888.92 1294.62 1888.92 1297.08C1890.77 1313.67 1887.69 1329.03 1885.23 1345.62C1884 1354.22 1883.39 1361.59 1881.54 1370.2C1868.64 1432.87 1847.12 1486.32 1814.54 1541.01C1813.31 1542.85 1812.08 1544.08 1810.85 1545.92C1783.8 1590.16 1753.68 1626.41 1716.19 1660.82C1673.77 1700.15 1627.05 1730.25 1575.42 1753.6C1476.45 1797.84 1369.49 1810.74 1260.68 1786.78C1186.3 1769.58 1121.76 1739.47 1063.36 1690.31C1005.58 1641.16 961.932 1582.17 935.499 1512.74C905.379 1434.1 899.231 1350.53 920.746 1267.59C935.499 1211.67 961.317 1163.13 999.43 1119.51C1029.55 1085.72 1063.97 1058.68 1104.55 1039.02C1140.81 1022.43 1178.93 1010.76 1218.27 1008.3C1179.54 1005.23 1140.81 1012.6 1103.32 1024.89C1098.4 1026.73 1094.1 1028.57 1089.18 1030.42C994.512 1067.9 923.82 1149 888.167 1243.01C878.946 1268.82 872.184 1294.01 867.266 1321.66C856.201 1389.24 861.119 1453.76 879.561 1518.27C885.093 1535.48 890.625 1551.45 897.387 1568.04C913.37 1606.14 932.426 1639.93 957.629 1673.72C997.586 1725.95 1041.85 1766.5 1097.78 1802.14C1161.1 1842.08 1225.64 1864.81 1297.57 1882.02C1302.48 1883.25 1307.4 1885.09 1312.32 1886.93V1888.16C1306.79 1890 1300.64 1889.39 1294.49 1889.39C1277.9 1888.16 1262.53 1886.32 1245.93 1883.86C1242.86 1883.25 1239.17 1882.63 1236.09 1882.02C1218.27 1877.72 1201.67 1874.03 1184.46 1869.11L1167.86 1863.58C1063.97 1828.56 976.071 1765.27 907.837 1674.95L898.617 1662.05C891.24 1649.76 882.634 1639.93 876.487 1627.64C874.028 1622.73 871.569 1618.43 868.496 1613.51C804.565 1498.61 786.739 1368.35 821.163 1241.17C840.834 1168.05 875.258 1103.53 926.894 1047.62C960.088 1011.37 996.356 982.492 1039.39 959.143C1086.72 933.952 1135.9 917.362 1188.76 911.218C1238.55 905.073 1286.5 908.146 1335.68 921.049C1391.62 935.795 1440.18 961.601 1483.82 999.696C1503.5 1017.51 1520.09 1035.33 1536.08 1057.45C1571.11 1107.22 1590.78 1160.68 1595.09 1218.43Z" fill="#FF3D7A"/>
</g>
<g filter="url(#filter8_f_244_34)">
<path d="M1595.09 1218.43C1598.78 1159.45 1583.41 1101.08 1553.29 1048.85C1542.22 1030.42 1531.16 1014.44 1517.63 998.467C1504.72 983.72 1493.05 970.817 1478.29 958.529C1446.33 931.494 1413.13 910.603 1375.63 894.628C1315.39 869.437 1250.23 858.377 1185.07 862.678C1151.26 865.136 1118.07 870.051 1084.88 879.882C1055.37 888.484 1028.32 899.544 1001.27 913.061C996.971 915.519 992.668 917.362 988.365 919.82C951.482 940.096 919.517 963.444 888.167 992.322C886.322 994.166 885.708 995.395 883.864 997.238C848.21 1029.8 820.548 1065.44 795.959 1106.61C791.042 1114.59 786.124 1120.74 782.436 1128.73C781.821 1130.57 781.206 1131.8 780.592 1133.64C752.315 1185.25 735.103 1237.48 721.579 1295.24C719.735 1301.38 719.12 1306.91 716.047 1312.44C712.973 1312.44 714.202 1309.98 714.202 1308.14C712.358 1284.18 716.047 1260.83 720.964 1236.25C727.111 1207.37 733.259 1181.57 744.323 1155.15C744.938 1153.3 744.938 1152.07 745.553 1150.23C767.683 1093.09 797.189 1042.09 837.145 994.166C840.219 990.479 843.292 987.407 846.366 983.72L851.284 978.805C853.128 976.962 853.743 975.118 855.587 973.275C878.331 949.312 901.076 928.422 928.123 908.146L941.032 898.929C992.668 862.678 1043.69 839.329 1102.7 822.74C1108.85 821.511 1114.38 820.282 1120.53 818.439C1276.05 780.344 1438.34 818.439 1555.75 927.193C1600.01 968.36 1634.43 1015.67 1659.02 1069.74C1680.53 1118.28 1693.44 1170.51 1694.67 1223.35C1696.52 1295.24 1680.53 1365.28 1643.04 1429.18C1587.71 1523.8 1491.82 1587.09 1384.86 1595.08C1497.96 1601.84 1603.08 1542.85 1669.47 1446.39C1734.63 1352.38 1753.68 1247.31 1735.24 1137.94C1721.72 1058.07 1690.98 989.25 1641.19 924.121C1578.49 842.402 1497.96 786.489 1405.14 750.852C1370.1 737.949 1335.68 728.732 1298.8 719.516C1295.72 718.901 1293.26 717.672 1290.8 716.444C1291.42 715.829 1289.57 715.829 1290.19 715.215C1304.33 711.528 1318.47 715.829 1332.6 715.829C1371.95 721.359 1410.67 729.961 1448.17 744.707C1450.02 745.322 1451.24 745.322 1453.09 745.936C1518.86 771.742 1577.26 807.379 1630.13 855.919L1650.41 876.195C1745.08 972.661 1797.94 1101.08 1798.56 1233.79C1798.56 1270.04 1794.87 1305.68 1786.88 1342.55C1778.27 1381.26 1765.36 1415.05 1748.77 1450.07C1713.11 1522.58 1662.09 1581.56 1592.01 1627.03C1506.57 1682.94 1411.29 1705.06 1312.32 1690.93C1247.16 1681.71 1188.76 1658.98 1136.51 1617.81C1100.24 1588.93 1071.35 1557.6 1049.22 1517.66C1045.53 1510.9 1042.46 1505.37 1038.77 1498.61C1022.17 1462.36 1010.49 1424.27 1008.04 1384.94C1004.96 1423.65 1011.72 1462.98 1025.25 1499.84C1030.17 1513.97 1035.7 1527.49 1042.46 1541.01C1049.84 1554.53 1057.21 1566.81 1066.43 1580.33C1079.34 1598.15 1091.64 1613.51 1107 1628.26C1134.67 1655.29 1164.17 1676.8 1197.98 1694.62C1266.22 1730.87 1341.83 1745 1418.05 1740.7C1513.33 1735.17 1601.23 1700.76 1679.3 1641.16C1727.87 1603.07 1765.36 1562.51 1799.17 1510.29C1800.4 1508.44 1800.4 1507.21 1801.63 1505.37C1803.48 1502.3 1805.93 1499.84 1807.78 1496.77C1815.77 1481.41 1824.38 1467.89 1831.14 1452.53C1831.75 1451.3 1832.98 1450.07 1833.6 1448.84C1855.73 1402.76 1869.86 1356.06 1882.77 1305.07C1884 1300.15 1884.62 1294.62 1887.69 1290.32C1890.15 1292.16 1888.92 1294.62 1888.92 1297.08C1890.77 1313.67 1887.69 1329.03 1885.23 1345.62C1884 1354.22 1883.39 1361.59 1881.54 1370.2C1868.64 1432.87 1847.12 1486.32 1814.54 1541.01C1813.31 1542.85 1812.08 1544.08 1810.85 1545.92C1783.8 1590.16 1753.68 1626.41 1716.19 1660.82C1673.77 1700.15 1627.05 1730.25 1575.42 1753.6C1476.45 1797.84 1369.49 1810.74 1260.68 1786.78C1186.3 1769.58 1121.76 1739.47 1063.36 1690.31C1005.58 1641.16 961.932 1582.17 935.499 1512.74C905.379 1434.1 899.231 1350.53 920.746 1267.59C935.499 1211.67 961.317 1163.13 999.43 1119.51C1029.55 1085.72 1063.97 1058.68 1104.55 1039.02C1140.81 1022.43 1178.93 1010.76 1218.27 1008.3C1179.54 1005.23 1140.81 1012.6 1103.32 1024.89C1098.4 1026.73 1094.1 1028.57 1089.18 1030.42C994.512 1067.9 923.82 1149 888.167 1243.01C878.946 1268.82 872.184 1294.01 867.266 1321.66C856.201 1389.24 861.119 1453.76 879.561 1518.27C885.093 1535.48 890.625 1551.45 897.387 1568.04C913.37 1606.14 932.426 1639.93 957.629 1673.72C997.586 1725.95 1041.85 1766.5 1097.78 1802.14C1161.1 1842.08 1225.64 1864.81 1297.57 1882.02C1302.48 1883.25 1307.4 1885.09 1312.32 1886.93V1888.16C1306.79 1890 1300.64 1889.39 1294.49 1889.39C1277.9 1888.16 1262.53 1886.32 1245.93 1883.86C1242.86 1883.25 1239.17 1882.63 1236.09 1882.02C1218.27 1877.72 1201.67 1874.03 1184.46 1869.11L1167.86 1863.58C1063.97 1828.56 976.071 1765.27 907.837 1674.95L898.617 1662.05C891.24 1649.76 882.634 1639.93 876.487 1627.64C874.028 1622.73 871.569 1618.43 868.496 1613.51C804.565 1498.61 786.739 1368.35 821.163 1241.17C840.834 1168.05 875.258 1103.53 926.894 1047.62C960.088 1011.37 996.356 982.492 1039.39 959.143C1086.72 933.952 1135.9 917.362 1188.76 911.218C1238.55 905.073 1286.5 908.146 1335.68 921.049C1391.62 935.795 1440.18 961.601 1483.82 999.696C1503.5 1017.51 1520.09 1035.33 1536.08 1057.45C1571.11 1107.22 1590.78 1160.68 1595.09 1218.43Z" fill="#FF719D"/>
</g>
<g filter="url(#filter9_f_244_34)">
<path d="M1078.56 1365.18C1074.31 1417.79 1091.31 1468.7 1122.75 1513.68C1167.79 1578.17 1230.68 1614.66 1306.31 1629.93C1390.44 1646.9 1471.17 1630.78 1545.1 1589.2C1616.49 1548.47 1671.72 1488.22 1705.71 1414.4C1706.56 1412.7 1708.26 1411 1709.11 1409.3C1724.41 1376.21 1733.76 1342.27 1743.11 1306.63C1744.81 1302.39 1744.81 1297.29 1747.35 1293.05C1748.2 1292.2 1749.05 1293.05 1749.05 1293.9C1749.9 1360.09 1726.96 1422.88 1693.82 1481.43C1690.42 1486.52 1687.87 1490.77 1684.47 1495.86C1675.12 1508.59 1668.32 1520.47 1658.13 1532.35C1653.88 1537.44 1649.63 1541.68 1645.38 1546.77C1591.84 1606.17 1525.56 1647.75 1447.38 1667.27C1389.59 1681.7 1334.35 1684.24 1274.87 1671.51C1255.32 1667.27 1238.32 1661.33 1220.48 1655.39C1154.19 1630.78 1100.66 1589.2 1058.17 1528.95C998.681 1443.25 985.084 1339.72 1021.63 1246.38C1030.97 1221.77 1042.87 1200.56 1059.02 1178.49C1071.76 1161.52 1085.36 1147.95 1101.51 1134.37C1141.45 1101.27 1188.19 1082.61 1238.32 1078.36C1151.64 1073.27 1070.91 1118.25 1020.78 1192.92C971.487 1264.2 957.89 1343.97 971.487 1427.12C973.187 1434.76 974.037 1440.7 975.736 1448.34C996.981 1534.89 1043.72 1605.32 1114.25 1659.63C1172.04 1704.61 1234.08 1729.22 1305.46 1744.49L1310.56 1747.04C1299.51 1751.28 1287.61 1747.88 1276.57 1746.19C1260.42 1745.34 1245.12 1741.94 1228.98 1737.7C1187.34 1726.67 1150.8 1711.4 1114.25 1688.48C1109.15 1685.09 1104.91 1682.54 1099.81 1679.15C1008.03 1616.36 949.392 1528.95 929.847 1421.18C916.25 1346.51 923.898 1274.38 952.792 1206.5C974.886 1156.43 1006.33 1112.31 1049.67 1076.67C1078.56 1052.91 1108.31 1035.09 1142.3 1022.36C1206.03 998.597 1275.72 995.203 1342 1016.42C1440.58 1046.97 1517.91 1135.22 1525.56 1237.89C1528.11 1177.65 1506.86 1119.94 1467.77 1072.42C1400.64 992.657 1298.66 957.866 1197.53 968.898C1107.46 979.08 1025.87 1021.51 964.689 1088.55C961.29 1092.79 957.89 1097.03 953.641 1101.27C906.053 1158.13 877.159 1221.77 861.013 1293.9C859.314 1299.84 859.314 1304.93 855.914 1310.02C855.065 1310.87 855.914 1308.33 854.215 1308.33C853.365 1282.87 857.614 1259.11 863.563 1233.65C866.112 1226.01 866.962 1219.23 869.511 1212.44C896.705 1127.58 944.294 1055.45 1019.08 1001.14L1036.92 988.415C1098.11 947.683 1163.54 927.318 1233.23 923.923C1260.42 923.075 1286.76 924.772 1314.81 929.015C1353.9 934.955 1387.89 947.683 1422.73 965.503C1477.12 994.355 1521.31 1033.39 1553.6 1086.85C1573.15 1119.09 1585.89 1150.49 1594.39 1186.98C1603.74 1229.41 1603.74 1269.29 1595.24 1311.72C1581.64 1380.45 1546.8 1436.46 1489.87 1478.04C1451.62 1506.04 1409.98 1520.47 1364.94 1524.71C1404.04 1526.41 1442.28 1518.77 1477.97 1501.8C1527.26 1477.19 1567.2 1439.85 1595.24 1391.48C1616.49 1354.15 1628.38 1315.96 1634.33 1274.38C1636.88 1252.32 1637.73 1230.26 1636.03 1208.19C1632.63 1175.95 1627.53 1144.55 1615.64 1114C1605.44 1088.55 1596.09 1065.63 1579.94 1041.87C1575.7 1036.78 1572.3 1031.69 1568.9 1025.75C1536.6 979.08 1499.21 945.986 1451.62 917.135C1432.08 906.103 1413.38 895.921 1392.99 887.435C1376.84 881.495 1361.55 875.555 1345.4 870.464C1328.4 865.372 1311.41 861.978 1294.41 856.886C1293.56 856.886 1293.56 855.189 1293.56 855.189C1307.16 852.644 1320.76 855.189 1334.35 856.886C1359.85 860.281 1383.64 867.069 1408.28 875.555C1456.72 892.526 1500.91 917.135 1540 951.926C1545.1 956.169 1549.35 960.412 1554.45 964.655L1568.9 979.08C1617.34 1029.99 1650.48 1088.55 1668.32 1156.43C1684.47 1218.38 1684.47 1279.47 1669.17 1342.27C1660.68 1376.21 1647.93 1405.06 1630.93 1435.61C1597.79 1494.16 1549.35 1538.29 1489.87 1567.99C1399.79 1612.96 1292.71 1613.81 1204.33 1561.2C1132.95 1518.77 1083.66 1446.64 1078.56 1365.18Z" fill="#FFE2B9"/>
</g>
<g filter="url(#filter10_f_244_34)">
<path d="M1078.56 1365.18C1074.31 1417.79 1091.31 1468.7 1122.75 1513.68C1167.79 1578.17 1230.68 1614.66 1306.31 1629.93C1390.44 1646.9 1471.17 1630.78 1545.1 1589.2C1616.49 1548.47 1671.72 1488.22 1705.71 1414.4C1706.56 1412.7 1708.26 1411 1709.11 1409.3C1724.41 1376.21 1733.76 1342.27 1743.11 1306.63C1744.81 1302.39 1744.81 1297.29 1747.35 1293.05C1748.2 1292.2 1749.05 1293.05 1749.05 1293.9C1749.9 1360.09 1726.96 1422.88 1693.82 1481.43C1690.42 1486.52 1687.87 1490.77 1684.47 1495.86C1675.12 1508.59 1668.32 1520.47 1658.13 1532.35C1653.88 1537.44 1649.63 1541.68 1645.38 1546.77C1591.84 1606.17 1525.56 1647.75 1447.38 1667.27C1389.59 1681.7 1334.35 1684.24 1274.87 1671.51C1255.32 1667.27 1238.32 1661.33 1220.48 1655.39C1154.19 1630.78 1100.66 1589.2 1058.17 1528.95C998.681 1443.25 985.084 1339.72 1021.63 1246.38C1030.97 1221.77 1042.87 1200.56 1059.02 1178.49C1071.76 1161.52 1085.36 1147.95 1101.51 1134.37C1141.45 1101.27 1188.19 1082.61 1238.32 1078.36C1151.64 1073.27 1070.91 1118.25 1020.78 1192.92C971.487 1264.2 957.89 1343.97 971.487 1427.12C973.187 1434.76 974.037 1440.7 975.736 1448.34C996.981 1534.89 1043.72 1605.32 1114.25 1659.63C1172.04 1704.61 1234.08 1729.22 1305.46 1744.49L1310.56 1747.04C1299.51 1751.28 1287.61 1747.88 1276.57 1746.19C1260.42 1745.34 1245.12 1741.94 1228.98 1737.7C1187.34 1726.67 1150.8 1711.4 1114.25 1688.48C1109.15 1685.09 1104.91 1682.54 1099.81 1679.15C1008.03 1616.36 949.392 1528.95 929.847 1421.18C916.25 1346.51 923.898 1274.38 952.792 1206.5C974.886 1156.43 1006.33 1112.31 1049.67 1076.67C1078.56 1052.91 1108.31 1035.09 1142.3 1022.36C1206.03 998.597 1275.72 995.203 1342 1016.42C1440.58 1046.97 1517.91 1135.22 1525.56 1237.89C1528.11 1177.65 1506.86 1119.94 1467.77 1072.42C1400.64 992.657 1298.66 957.866 1197.53 968.898C1107.46 979.08 1025.87 1021.51 964.689 1088.55C961.29 1092.79 957.89 1097.03 953.641 1101.27C906.053 1158.13 877.159 1221.77 861.013 1293.9C859.314 1299.84 859.314 1304.93 855.914 1310.02C855.065 1310.87 855.914 1308.33 854.215 1308.33C853.365 1282.87 857.614 1259.11 863.563 1233.65C866.112 1226.01 866.962 1219.23 869.511 1212.44C896.705 1127.58 944.294 1055.45 1019.08 1001.14L1036.92 988.415C1098.11 947.683 1163.54 927.318 1233.23 923.923C1260.42 923.075 1286.76 924.772 1314.81 929.015C1353.9 934.955 1387.89 947.683 1422.73 965.503C1477.12 994.355 1521.31 1033.39 1553.6 1086.85C1573.15 1119.09 1585.89 1150.49 1594.39 1186.98C1603.74 1229.41 1603.74 1269.29 1595.24 1311.72C1581.64 1380.45 1546.8 1436.46 1489.87 1478.04C1451.62 1506.04 1409.98 1520.47 1364.94 1524.71C1404.04 1526.41 1442.28 1518.77 1477.97 1501.8C1527.26 1477.19 1567.2 1439.85 1595.24 1391.48C1616.49 1354.15 1628.38 1315.96 1634.33 1274.38C1636.88 1252.32 1637.73 1230.26 1636.03 1208.19C1632.63 1175.95 1627.53 1144.55 1615.64 1114C1605.44 1088.55 1596.09 1065.63 1579.94 1041.87C1575.7 1036.78 1572.3 1031.69 1568.9 1025.75C1536.6 979.08 1499.21 945.986 1451.62 917.135C1432.08 906.103 1413.38 895.921 1392.99 887.435C1376.84 881.495 1361.55 875.555 1345.4 870.464C1328.4 865.372 1311.41 861.978 1294.41 856.886C1293.56 856.886 1293.56 855.189 1293.56 855.189C1307.16 852.644 1320.76 855.189 1334.35 856.886C1359.85 860.281 1383.64 867.069 1408.28 875.555C1456.72 892.526 1500.91 917.135 1540 951.926C1545.1 956.169 1549.35 960.412 1554.45 964.655L1568.9 979.08C1617.34 1029.99 1650.48 1088.55 1668.32 1156.43C1684.47 1218.38 1684.47 1279.47 1669.17 1342.27C1660.68 1376.21 1647.93 1405.06 1630.93 1435.61C1597.79 1494.16 1549.35 1538.29 1489.87 1567.99C1399.79 1612.96 1292.71 1613.81 1204.33 1561.2C1132.95 1518.77 1083.66 1446.64 1078.56 1365.18Z" fill="#FF996A"/>
</g>
<g filter="url(#filter11_f_244_34)">
<path d="M1078.56 1365.18C1074.31 1417.79 1091.31 1468.7 1122.75 1513.68C1167.79 1578.17 1230.68 1614.66 1306.31 1629.93C1390.44 1646.9 1471.17 1630.78 1545.1 1589.2C1616.49 1548.47 1671.72 1488.22 1705.71 1414.4C1706.56 1412.7 1708.26 1411 1709.11 1409.3C1724.41 1376.21 1733.76 1342.27 1743.11 1306.63C1744.81 1302.39 1744.81 1297.29 1747.35 1293.05C1748.2 1292.2 1749.05 1293.05 1749.05 1293.9C1749.9 1360.09 1726.96 1422.88 1693.82 1481.43C1690.42 1486.52 1687.87 1490.77 1684.47 1495.86C1675.12 1508.59 1668.32 1520.47 1658.13 1532.35C1653.88 1537.44 1649.63 1541.68 1645.38 1546.77C1591.84 1606.17 1525.56 1647.75 1447.38 1667.27C1389.59 1681.7 1334.35 1684.24 1274.87 1671.51C1255.32 1667.27 1238.32 1661.33 1220.48 1655.39C1154.19 1630.78 1100.66 1589.2 1058.17 1528.95C998.681 1443.25 985.084 1339.72 1021.63 1246.38C1030.97 1221.77 1042.87 1200.56 1059.02 1178.49C1071.76 1161.52 1085.36 1147.95 1101.51 1134.37C1141.45 1101.27 1188.19 1082.61 1238.32 1078.36C1151.64 1073.27 1070.91 1118.25 1020.78 1192.92C971.487 1264.2 957.89 1343.97 971.487 1427.12C973.187 1434.76 974.037 1440.7 975.736 1448.34C996.981 1534.89 1043.72 1605.32 1114.25 1659.63C1172.04 1704.61 1234.08 1729.22 1305.46 1744.49L1310.56 1747.04C1299.51 1751.28 1287.61 1747.88 1276.57 1746.19C1260.42 1745.34 1245.12 1741.94 1228.98 1737.7C1187.34 1726.67 1150.8 1711.4 1114.25 1688.48C1109.15 1685.09 1104.91 1682.54 1099.81 1679.15C1008.03 1616.36 949.392 1528.95 929.847 1421.18C916.25 1346.51 923.898 1274.38 952.792 1206.5C974.886 1156.43 1006.33 1112.31 1049.67 1076.67C1078.56 1052.91 1108.31 1035.09 1142.3 1022.36C1206.03 998.597 1275.72 995.203 1342 1016.42C1440.58 1046.97 1517.91 1135.22 1525.56 1237.89C1528.11 1177.65 1506.86 1119.94 1467.77 1072.42C1400.64 992.657 1298.66 957.866 1197.53 968.898C1107.46 979.08 1025.87 1021.51 964.689 1088.55C961.29 1092.79 957.89 1097.03 953.641 1101.27C906.053 1158.13 877.159 1221.77 861.013 1293.9C859.314 1299.84 859.314 1304.93 855.914 1310.02C855.065 1310.87 855.914 1308.33 854.215 1308.33C853.365 1282.87 857.614 1259.11 863.563 1233.65C866.112 1226.01 866.962 1219.23 869.511 1212.44C896.705 1127.58 944.294 1055.45 1019.08 1001.14L1036.92 988.415C1098.11 947.683 1163.54 927.318 1233.23 923.923C1260.42 923.075 1286.76 924.772 1314.81 929.015C1353.9 934.955 1387.89 947.683 1422.73 965.503C1477.12 994.355 1521.31 1033.39 1553.6 1086.85C1573.15 1119.09 1585.89 1150.49 1594.39 1186.98C1603.74 1229.41 1603.74 1269.29 1595.24 1311.72C1581.64 1380.45 1546.8 1436.46 1489.87 1478.04C1451.62 1506.04 1409.98 1520.47 1364.94 1524.71C1404.04 1526.41 1442.28 1518.77 1477.97 1501.8C1527.26 1477.19 1567.2 1439.85 1595.24 1391.48C1616.49 1354.15 1628.38 1315.96 1634.33 1274.38C1636.88 1252.32 1637.73 1230.26 1636.03 1208.19C1632.63 1175.95 1627.53 1144.55 1615.64 1114C1605.44 1088.55 1596.09 1065.63 1579.94 1041.87C1575.7 1036.78 1572.3 1031.69 1568.9 1025.75C1536.6 979.08 1499.21 945.986 1451.62 917.135C1432.08 906.103 1413.38 895.921 1392.99 887.435C1376.84 881.495 1361.55 875.555 1345.4 870.464C1328.4 865.372 1311.41 861.978 1294.41 856.886C1293.56 856.886 1293.56 855.189 1293.56 855.189C1307.16 852.644 1320.76 855.189 1334.35 856.886C1359.85 860.281 1383.64 867.069 1408.28 875.555C1456.72 892.526 1500.91 917.135 1540 951.926C1545.1 956.169 1549.35 960.412 1554.45 964.655L1568.9 979.08C1617.34 1029.99 1650.48 1088.55 1668.32 1156.43C1684.47 1218.38 1684.47 1279.47 1669.17 1342.27C1660.68 1376.21 1647.93 1405.06 1630.93 1435.61C1597.79 1494.16 1549.35 1538.29 1489.87 1567.99C1399.79 1612.96 1292.71 1613.81 1204.33 1561.2C1132.95 1518.77 1083.66 1446.64 1078.56 1365.18Z" fill="#FFE2B9"/>
</g>
<defs>
<filter id="filter0_f_244_34" x="0" y="0" width="2603.19" height="2603.19" filterUnits="userSpaceOnUse" color-interpolation-filters="sRGB">
<feFlood flood-opacity="0" result="BackgroundImageFix"/>
<feBlend mode="normal" in="SourceGraphic" in2="BackgroundImageFix" result="shape"/>
<feGaussianBlur stdDeviation="163.828" result="effect1_foregroundBlur_244_34"/>
</filter>
<filter id="filter1_f_244_34" x="314.756" y="314.756" width="1973.68" height="1973.68" filterUnits="userSpaceOnUse" color-interpolation-filters="sRGB">
<feFlood flood-opacity="0" result="BackgroundImageFix"/>
<feBlend mode="normal" in="SourceGraphic" in2="BackgroundImageFix" result="shape"/>
<feGaussianBlur stdDeviation="6.44993" result="effect1_foregroundBlur_244_34"/>
</filter>
<filter id="filter2_f_244_34" x="285.087" y="285.087" width="2033.02" height="2033.02" filterUnits="userSpaceOnUse" color-interpolation-filters="sRGB">
<feFlood flood-opacity="0" result="BackgroundImageFix"/>
<feBlend mode="normal" in="SourceGraphic" in2="BackgroundImageFix" result="shape"/>
<feGaussianBlur stdDeviation="21.2848" result="effect1_foregroundBlur_244_34"/>
</filter>
<filter id="filter3_f_244_34" x="439.685" y="439.685" width="1723.82" height="1723.82" filterUnits="userSpaceOnUse" color-interpolation-filters="sRGB">
<feFlood flood-opacity="0" result="BackgroundImageFix"/>
<feBlend mode="normal" in="SourceGraphic" in2="BackgroundImageFix" result="shape"/>
<feGaussianBlur stdDeviation="58.0493" result="effect1_foregroundBlur_244_34"/>
</filter>
<filter id="filter4_f_244_34" x="546.754" y="546.753" width="1509.68" height="1509.68" filterUnits="userSpaceOnUse" color-interpolation-filters="sRGB">
<feFlood flood-opacity="0" result="BackgroundImageFix"/>
<feBlend mode="normal" in="SourceGraphic" in2="BackgroundImageFix" result="shape"/>
<feGaussianBlur stdDeviation="4.51495" result="effect1_foregroundBlur_244_34"/>
</filter>
<filter id="filter5_f_244_34" x="522.245" y="522.244" width="1558.7" height="1558.7" filterUnits="userSpaceOnUse" color-interpolation-filters="sRGB">
<feFlood flood-opacity="0" result="BackgroundImageFix"/>
<feBlend mode="normal" in="SourceGraphic" in2="BackgroundImageFix" result="shape"/>
<feGaussianBlur stdDeviation="16.7698" result="effect1_foregroundBlur_244_34"/>
</filter>
<filter id="filter6_f_244_34" x="460.882" y="460.885" width="1681.44" height="1681.44" filterUnits="userSpaceOnUse" color-interpolation-filters="sRGB">
<feFlood flood-opacity="0" result="BackgroundImageFix"/>
<feBlend mode="normal" in="SourceGraphic" in2="BackgroundImageFix" result="shape"/>
<feGaussianBlur stdDeviation="126.419" result="effect1_foregroundBlur_244_34"/>
</filter>
<filter id="filter7_f_244_34" x="709.849" y="709.852" width="1183.5" height="1183.51" filterUnits="userSpaceOnUse" color-interpolation-filters="sRGB">
<feFlood flood-opacity="0" result="BackgroundImageFix"/>
<feBlend mode="normal" in="SourceGraphic" in2="BackgroundImageFix" result="shape"/>
<feGaussianBlur stdDeviation="1.93498" result="effect1_foregroundBlur_244_34"/>
</filter>
<filter id="filter8_f_244_34" x="687.92" y="687.922" width="1227.36" height="1227.37" filterUnits="userSpaceOnUse" color-interpolation-filters="sRGB">
<feFlood flood-opacity="0" result="BackgroundImageFix"/>
<feBlend mode="normal" in="SourceGraphic" in2="BackgroundImageFix" result="shape"/>
<feGaussianBlur stdDeviation="12.8999" result="effect1_foregroundBlur_244_34"/>
</filter>
<filter id="filter9_f_244_34" x="634.809" y="634.815" width="1333.57" height="1333.57" filterUnits="userSpaceOnUse" color-interpolation-filters="sRGB">
<feFlood flood-opacity="0" result="BackgroundImageFix"/>
<feBlend mode="normal" in="SourceGraphic" in2="BackgroundImageFix" result="shape"/>
<feGaussianBlur stdDeviation="109.649" result="effect1_foregroundBlur_244_34"/>
</filter>
<filter id="filter10_f_244_34" x="851.526" y="851.532" width="900.131" height="900.132" filterUnits="userSpaceOnUse" color-interpolation-filters="sRGB">
<feFlood flood-opacity="0" result="BackgroundImageFix"/>
<feBlend mode="normal" in="SourceGraphic" in2="BackgroundImageFix" result="shape"/>
<feGaussianBlur stdDeviation="1.28999" result="effect1_foregroundBlur_244_34"/>
</filter>
<filter id="filter11_f_244_34" x="827.017" y="827.023" width="949.15" height="949.151" filterUnits="userSpaceOnUse" color-interpolation-filters="sRGB">
<feFlood flood-opacity="0" result="BackgroundImageFix"/>
<feBlend mode="normal" in="SourceGraphic" in2="BackgroundImageFix" result="shape"/>
<feGaussianBlur stdDeviation="13.5448" result="effect1_foregroundBlur_244_34"/>
</filter>
<filter id="filter12_f_244_34" x="1102.94" y="1143.81" width="410.216" height="337.455" filterUnits="userSpaceOnUse" color-interpolation-filters="sRGB">
<feFlood flood-opacity="0" result="BackgroundImageFix"/>
<feBlend mode="normal" in="SourceGraphic" in2="BackgroundImageFix" result="shape"/>
<feGaussianBlur stdDeviation="18.7048" result="effect1_foregroundBlur_244_34"/>
</filter>
<filter id="filter13_f_244_34" x="1160.99" y="1128.38" width="294.083" height="283.52" filterUnits="userSpaceOnUse" color-interpolation-filters="sRGB">
<feFlood flood-opacity="0" result="BackgroundImageFix"/>
<feBlend mode="normal" in="SourceGraphic" in2="BackgroundImageFix" result="shape"/>
<feGaussianBlur stdDeviation="15.4798" result="effect1_foregroundBlur_244_34"/>
</filter>
</defs>
</svg>
