<svg width="32" height="31" viewBox="0 0 32 31" fill="none" xmlns="http://www.w3.org/2000/svg">
<g clip-path="url(#clip0_192_63200)">
<mask id="mask0_192_63200" style="mask-type:luminance" maskUnits="userSpaceOnUse" x="0" y="0" width="32" height="31">
<path d="M31.1891 0H0V30.5526H31.1891V0Z" fill="white"/>
</mask>
<g mask="url(#mask0_192_63200)">
<path d="M13.1884 22.0821C9.16787 21.5948 6.33527 18.7013 6.33527 14.9549C6.33527 13.432 6.88353 11.7873 7.79727 10.6908C7.40133 9.68567 7.46224 7.55361 7.9191 6.67033C9.13741 6.51804 10.7822 7.15764 11.7568 8.04093C12.9142 7.67544 14.1325 7.4927 15.625 7.4927C17.1175 7.4927 18.3358 7.67544 19.4323 8.01047C20.3765 7.15764 22.0517 6.51804 23.27 6.67033C23.6964 7.4927 23.7573 9.62476 23.3614 10.6603C24.336 11.8177 24.8538 13.3711 24.8538 14.9549C24.8538 18.7013 22.0212 21.5339 17.9398 22.0517C18.9754 22.7217 19.6759 24.1837 19.6759 25.8589V29.0266C19.6759 29.9403 20.4374 30.4581 21.3511 30.0926C26.864 27.991 31.1891 22.4781 31.1891 15.6555C31.1891 7.03581 24.1837 7.59483e-08 15.5641 0C6.94444 -7.59483e-08 7.59486e-08 7.03581 0 15.6555C-5.95778e-08 22.4172 4.29458 28.0215 10.0816 30.1231C10.904 30.4276 11.6959 29.8794 11.6959 29.057V26.6204C11.2695 26.8031 10.7212 26.925 10.2339 26.925C8.22367 26.925 7.03581 25.8285 6.18298 23.7878C5.84795 22.9654 5.48247 22.4781 4.78192 22.3867C4.41644 22.3562 4.29458 22.204 4.29458 22.0212C4.29458 21.6557 4.90375 21.3816 5.51293 21.3816C6.39621 21.3816 7.15764 21.9298 7.94956 23.0568C8.55873 23.9401 9.19833 24.336 9.95979 24.336C10.7212 24.336 11.2086 24.0619 11.9091 23.3614C12.4269 22.8436 12.8229 22.3867 13.1884 22.0821Z" fill="white"/>
</g>
</g>
<defs>
<clipPath id="clip0_192_63200">
<rect width="31.1891" height="30.5526" fill="white"/>
</clipPath>
</defs>
</svg>
