<svg width="32" height="32" viewBox="0 0 32 32" fill="none" xmlns="http://www.w3.org/2000/svg">
<g clip-path="url(#clip0_192_63210)">
<path d="M9.13593 0.109064C7.47667 0.187349 6.34357 0.452144 5.35301 0.841384C4.32782 1.24092 3.45889 1.77706 2.59433 2.64474C1.72977 3.51242 1.19737 4.38197 0.800649 5.40871C0.416711 6.40146 0.156594 7.5355 0.0833001 9.19569C0.0100058 10.8559 -0.00621253 11.3895 0.00189663 15.6244C0.0100058 19.8592 0.0287193 20.3901 0.109187 22.0537C0.188407 23.7127 0.452267 24.8454 0.841507 25.8363C1.24166 26.8615 1.77718 27.7301 2.64517 28.595C3.51316 29.4599 4.38209 29.991 5.41133 30.3884C6.40314 30.7717 7.53749 31.033 9.19738 31.1057C10.8573 31.1784 11.3915 31.1952 15.6251 31.1871C19.8587 31.179 20.3918 31.1603 22.0551 31.0814C23.7184 31.0025 24.8452 30.7367 25.8364 30.3494C26.8616 29.9483 27.7309 29.4137 28.5951 28.5454C29.4594 27.6771 29.9914 26.8069 30.3879 25.7796C30.7721 24.7877 31.0332 23.6534 31.1052 21.9948C31.1779 20.3302 31.195 19.7987 31.1869 15.5645C31.1788 11.3303 31.1598 10.7994 31.0809 9.13643C31.002 7.47343 30.7378 6.34407 30.3489 5.35257C29.9481 4.32739 29.4132 3.4594 28.5455 2.5939C27.6778 1.7284 26.807 1.19663 25.78 0.80115C24.7875 0.417213 23.6538 0.155536 21.9939 0.0838013C20.3341 0.0120665 19.7998 -0.00633511 15.5646 0.00177405C11.3295 0.00988321 10.7992 0.0279729 9.13593 0.109064ZM9.31808 28.3003C7.79761 28.2341 6.97203 27.9815 6.42186 27.77C5.69328 27.4893 5.17429 27.15 4.62599 26.607C4.07769 26.064 3.74084 25.5431 3.4564 24.8161C3.24275 24.2659 2.98544 23.4413 2.91433 21.9208C2.83698 20.2775 2.82077 19.7841 2.81172 15.6206C2.80268 11.4572 2.81858 10.9644 2.89063 9.32045C2.9555 7.80123 3.20969 6.97472 3.42084 6.42485C3.70155 5.69534 4.03964 5.17729 4.58388 4.6293C5.12813 4.08131 5.64743 3.74384 6.37507 3.4594C6.92463 3.24481 7.74927 2.98969 9.26911 2.91733C10.9137 2.83936 11.4065 2.82376 15.5693 2.81472C19.7321 2.80567 20.2261 2.82127 21.8714 2.89363C23.3906 2.95975 24.2174 3.21144 24.7667 3.42384C25.4955 3.70454 26.0142 4.0417 26.5622 4.58688C27.1102 5.13207 27.448 5.64949 27.7324 6.37869C27.9473 6.92669 28.2024 7.75101 28.2742 9.27179C28.3525 10.9164 28.3702 11.4095 28.3777 15.572C28.3852 19.7345 28.3706 20.2288 28.2985 21.8722C28.2321 23.3927 27.9801 24.2185 27.7683 24.7693C27.4876 25.4976 27.1492 26.0169 26.6046 26.5646C26.0601 27.1123 25.5414 27.4497 24.8134 27.7342C24.2645 27.9484 23.4389 28.2042 21.9203 28.2765C20.2757 28.3539 19.7829 28.3701 15.6186 28.3792C11.4542 28.3882 10.963 28.3714 9.31839 28.3003M22.0311 7.25979C22.0317 7.62993 22.142 7.99157 22.3482 8.29899C22.5544 8.6064 22.8471 8.84576 23.1893 8.98681C23.5315 9.12786 23.9079 9.16426 24.2708 9.09139C24.6337 9.01853 24.9668 8.83969 25.2281 8.57748C25.4893 8.31526 25.6669 7.98147 25.7385 7.6183C25.81 7.25514 25.7722 6.87891 25.6299 6.53722C25.4876 6.19552 25.2472 5.9037 24.939 5.69866C24.6309 5.49363 24.2688 5.38458 23.8987 5.38532C23.4025 5.38631 22.927 5.58434 22.5767 5.93585C22.2265 6.28736 22.0302 6.76358 22.0311 7.25979ZM7.58739 15.61C7.59613 20.0326 11.1879 23.6097 15.6095 23.6013C20.0312 23.5929 23.6108 20.0015 23.6024 15.5788C23.5939 11.1562 20.0013 7.57823 15.579 7.58696C11.1567 7.59569 7.57897 11.1881 7.58739 15.61ZM10.3963 15.6044C10.3942 14.5763 10.6971 13.5707 11.2666 12.7147C11.8361 11.8587 12.6467 11.1908 13.5958 10.7955C14.5448 10.4002 15.5898 10.2952 16.5986 10.4937C17.6074 10.6923 18.5346 11.1856 19.263 11.9111C19.9914 12.6367 20.4884 13.5619 20.6909 14.5699C20.8935 15.5779 20.7926 16.6233 20.4011 17.5739C20.0095 18.5246 19.3448 19.3377 18.4911 19.9106C17.6374 20.4835 16.633 20.7904 15.6049 20.7924C14.9222 20.7938 14.2459 20.6608 13.6147 20.4008C12.9834 20.1409 12.4096 19.7591 11.9259 19.2773C11.4422 18.7956 11.0582 18.2232 10.7957 17.593C10.5333 16.9628 10.3976 16.2871 10.3963 15.6044Z" fill="white"/>
</g>
<defs>
<clipPath id="clip0_192_63210">
<rect width="31.1891" height="31.1891" fill="white"/>
</clipPath>
</defs>
</svg>
