<svg width="32" height="139" viewBox="0 0 32 139" fill="none" xmlns="http://www.w3.org/2000/svg">
    <svg id="instagram" width="32" height="32" viewBox="0 0 32 32" fill="none" xmlns="http://www.w3.org/2000/svg">
        <path d="M9.13593 0.109064C7.47667 0.187349 6.34357 0.452144 5.35301 0.841384C4.32782 1.24092 3.45889 1.77706 2.59433 2.64474C1.72977 3.51242 1.19737 4.38197 0.800649 5.40871C0.416711 6.40146 0.156594 7.5355 0.0833001 9.19569C0.0100058 10.8559 -0.00621253 11.3895 0.00189663 15.6244C0.0100058 19.8592 0.0287192 20.3901 0.109187 22.0537C0.188407 23.7127 0.452267 24.8454 0.841507 25.8363C1.24166 26.8615 1.77718 27.7301 2.64517 28.595C3.51316 29.4599 4.38209 29.991 5.41133 30.3884C6.40314 30.7717 7.53749 31.033 9.19738 31.1057C10.8573 31.1784 11.3915 31.1952 15.6251 31.1871C19.8587 31.179 20.3918 31.1603 22.0551 31.0814C23.7184 31.0025 24.8452 30.7367 25.8364 30.3494C26.8616 29.9483 27.7309 29.4137 28.5951 28.5454C29.4594 27.6771 29.9914 26.8069 30.3879 25.7796C30.7721 24.7877 31.0332 23.6534 31.1052 21.9948C31.1779 20.3302 31.195 19.7987 31.1869 15.5645C31.1788 11.3303 31.1598 10.7994 31.0809 9.13643C31.002 7.47343 30.7378 6.34407 30.3489 5.35257C29.9481 4.32739 29.4132 3.4594 28.5455 2.5939C27.6778 1.7284 26.807 1.19663 25.78 0.80115C24.7875 0.417213 23.6538 0.155536 21.9939 0.0838013C20.3341 0.0120665 19.7998 -0.00633511 15.5646 0.00177405C11.3295 0.00988321 10.7992 0.0279729 9.13593 0.109064ZM9.31808 28.3003C7.79761 28.2341 6.97203 27.9815 6.42186 27.77C5.69328 27.4893 5.17429 27.15 4.62599 26.607C4.07769 26.064 3.74084 25.5431 3.4564 24.8161C3.24275 24.2659 2.98544 23.4413 2.91433 21.9208C2.83698 20.2775 2.82077 19.7841 2.81172 15.6206C2.80268 11.4572 2.81858 10.9644 2.89063 9.32045C2.9555 7.80123 3.20969 6.97472 3.42084 6.42485C3.70155 5.69534 4.03964 5.17729 4.58388 4.6293C5.12813 4.08131 5.64743 3.74384 6.37507 3.4594C6.92463 3.24481 7.74927 2.98969 9.26911 2.91733C10.9137 2.83936 11.4065 2.82376 15.5693 2.81472C19.7321 2.80567 20.2261 2.82127 21.8714 2.89363C23.3906 2.95975 24.2174 3.21144 24.7667 3.42384C25.4955 3.70454 26.0142 4.0417 26.5622 4.58688C27.1102 5.13207 27.448 5.64949 27.7324 6.37869C27.9473 6.92669 28.2024 7.75101 28.2742 9.27179C28.3525 10.9164 28.3702 11.4095 28.3777 15.572C28.3852 19.7345 28.3706 20.2288 28.2985 21.8722C28.2321 23.3927 27.9801 24.2185 27.7683 24.7693C27.4876 25.4976 27.1492 26.0169 26.6046 26.5646C26.0601 27.1123 25.5414 27.4497 24.8134 27.7342C24.2645 27.9484 23.4389 28.2042 21.9203 28.2765C20.2757 28.3539 19.7829 28.3701 15.6186 28.3792C11.4542 28.3882 10.9627 28.3714 9.31808 28.3003ZM22.0311 7.25979C22.0317 7.62993 22.142 7.99157 22.3482 8.29899C22.5544 8.6064 22.8471 8.84576 23.1893 8.98681C23.5315 9.12786 23.9079 9.16426 24.2708 9.09139C24.6337 9.01853 24.9668 8.83969 25.2281 8.57748C25.4893 8.31526 25.6669 7.98147 25.7385 7.6183C25.81 7.25514 25.7722 6.87891 25.6299 6.53722C25.4876 6.19552 25.2472 5.9037 24.939 5.69866C24.6309 5.49363 24.2688 5.38458 23.8987 5.38532C23.4025 5.38631 22.927 5.58434 22.5767 5.93585C22.2265 6.28736 22.0302 6.76358 22.0311 7.25979ZM7.58739 15.61C7.59613 20.0326 11.1879 23.6097 15.6095 23.6013C20.0312 23.5929 23.6108 20.0015 23.6024 15.5788C23.5939 11.1562 20.0013 7.57823 15.579 7.58696C11.1567 7.59569 7.57897 11.1881 7.58739 15.61ZM10.3963 15.6044C10.3942 14.5763 10.6971 13.5707 11.2666 12.7147C11.8361 11.8587 12.6467 11.1908 13.5958 10.7955C14.5448 10.4002 15.5898 10.2952 16.5986 10.4937C17.6074 10.6923 18.5346 11.1856 19.263 11.9111C19.9914 12.6367 20.4884 13.5619 20.6909 14.5699C20.8935 15.5779 20.7926 16.6233 20.4011 17.5739C20.0095 18.5246 19.3448 19.3377 18.4911 19.9106C17.6374 20.4835 16.633 20.7904 15.6049 20.7924C14.9222 20.7938 14.2459 20.6608 13.6147 20.4008C12.9834 20.1409 12.4096 19.7591 11.9259 19.2773C11.4422 18.7956 11.0582 18.2232 10.7957 17.593C10.5333 16.9628 10.3976 16.2871 10.3963 15.6044Z" fill="white"/>
    </svg>
    <svg id="telegram" width="28" height="23" viewBox="0 0 28 23" fill="none" xmlns="http://www.w3.org/2000/svg">
        <path fill-rule="evenodd" clip-rule="evenodd" d="M1.87179 9.72093C9.18075 6.53424 14.0545 4.43339 16.4932 3.41835C23.4559 0.520235 24.9027 0.016801 25.8457 0.000177246C26.0531 -0.00347895 26.5168 0.0479588 26.8172 0.291881C27.0709 0.497844 27.1406 0.77607 27.174 0.971346C27.2074 1.16662 27.249 1.61146 27.216 1.95905C26.8387 5.92636 25.206 15.554 24.3754 19.9974C24.024 21.8776 23.332 22.508 22.662 22.5697C21.206 22.7038 20.1004 21.6068 18.6903 20.6818C16.4836 19.2342 15.237 18.3331 13.0951 16.9206C10.6197 15.2882 12.2244 14.391 13.6351 12.9247C14.0043 12.541 20.4193 6.70183 20.5435 6.17213C20.559 6.10588 20.5734 5.85894 20.4268 5.72854C20.2802 5.59815 20.0638 5.64274 19.9077 5.6782C19.6864 5.72847 16.1612 8.06014 9.33224 12.6732C8.33163 13.3608 7.42532 13.6958 6.61329 13.6783C5.71809 13.6589 3.9961 13.1717 2.71597 12.7553C1.14584 12.2446 -0.102068 11.9745 0.00659626 11.1071C0.0631955 10.6553 0.684926 10.1932 1.87179 9.72093Z" fill="white"/>
    </svg>
    <svg id="github" width="32" height="31" viewBox="0 0 32 31" fill="none" xmlns="http://www.w3.org/2000/svg">
        <path d="M13.1884 22.0821C9.16787 21.5948 6.33527 18.7013 6.33527 14.9549C6.33527 13.432 6.88353 11.7873 7.79727 10.6908C7.40133 9.68567 7.46224 7.55361 7.9191 6.67033C9.13741 6.51804 10.7822 7.15764 11.7568 8.04093C12.9142 7.67544 14.1325 7.4927 15.625 7.4927C17.1175 7.4927 18.3358 7.67544 19.4323 8.01047C20.3765 7.15764 22.0517 6.51804 23.27 6.67033C23.6964 7.4927 23.7573 9.62476 23.3614 10.6603C24.336 11.8177 24.8538 13.3711 24.8538 14.9549C24.8538 18.7013 22.0212 21.5339 17.9398 22.0517C18.9754 22.7217 19.6759 24.1837 19.6759 25.8589V29.0266C19.6759 29.9403 20.4374 30.4581 21.3511 30.0926C26.864 27.991 31.1891 22.4781 31.1891 15.6555C31.1891 7.03581 24.1837 7.59483e-08 15.5641 0C6.94444 -7.59483e-08 7.59486e-08 7.03581 0 15.6555C-5.95778e-08 22.4172 4.29458 28.0215 10.0816 30.1231C10.904 30.4276 11.6959 29.8794 11.6959 29.057V26.6204C11.2695 26.8031 10.7212 26.925 10.2339 26.925C8.22367 26.925 7.03581 25.8285 6.18298 23.7878C5.84795 22.9654 5.48247 22.4781 4.78192 22.3867C4.41644 22.3562 4.29458 22.204 4.29458 22.0212C4.29458 21.6557 4.90375 21.3816 5.51293 21.3816C6.39621 21.3816 7.15764 21.9298 7.94956 23.0568C8.55873 23.9401 9.19833 24.336 9.95979 24.336C10.7212 24.336 11.2086 24.0619 11.9091 23.3614C12.4269 22.8436 12.8229 22.3867 13.1884 22.0821Z" fill="white"/>
    </svg>
    <svg id="behance" width="32" height="21" viewBox="0 0 32 21" fill="none" xmlns="http://www.w3.org/2000/svg">
        <path d="M9.47752 0C10.4364 0 11.3109 0.0844138 12.101 0.253793C12.8905 0.423172 13.568 0.70069 14.1319 1.08579C14.6957 1.47145 15.1332 1.984 15.4433 2.62345C15.7539 3.2629 15.909 4.05241 15.909 4.9931C15.909 6.00828 15.6783 6.85462 15.2177 7.53159C14.757 8.20855 14.075 8.76303 13.173 9.19559C14.4138 9.5531 15.3401 10.1782 15.9514 11.0714C16.5622 11.9647 16.8684 13.0417 16.8684 14.3012C16.8684 15.317 16.6709 16.1959 16.2759 16.939C15.8814 17.6822 15.3495 18.2886 14.6825 18.7575C14.0149 19.2281 13.253 19.5757 12.3978 19.8019C11.5415 20.0276 10.6632 20.1401 9.76055 20.1401H0V0H9.47752ZM8.9131 8.15228C9.70317 8.15228 10.3514 7.96414 10.8596 7.58786C11.3672 7.21214 11.621 6.60083 11.621 5.75448C11.621 5.28441 11.5366 4.89876 11.3672 4.59807C11.1978 4.29738 10.9721 4.06179 10.6902 3.89297C10.4077 3.72359 10.0839 3.60662 9.71697 3.54041C9.35007 3.47476 8.96938 3.44165 8.57435 3.44165H4.42814V8.15228H8.9131ZM9.1669 16.6985C9.59945 16.6985 10.0132 16.656 10.4077 16.5716C10.8028 16.4866 11.1503 16.3459 11.4516 16.1484C11.7523 15.9514 11.9917 15.6833 12.171 15.3446C12.3492 15.0063 12.4386 14.5738 12.4386 14.0469C12.4386 13.013 12.1468 12.2748 11.5641 11.8328C10.981 11.3909 10.2102 11.1697 9.25131 11.1697H4.42814V16.6979L9.1669 16.6985Z" fill="white"/>
        <path d="M22.4408 16.2753C23.0428 16.859 23.9073 17.1498 25.0356 17.1498C25.8439 17.1498 26.5401 16.9478 27.1228 16.5434C27.7059 16.1396 28.0629 15.7114 28.1948 15.2601H31.7208C31.157 17.0091 30.2913 18.2598 29.1261 19.0118C27.9597 19.7638 26.5495 20.1401 24.8949 20.1401C23.7479 20.1401 22.7134 19.957 21.792 19.5901C20.8706 19.2237 20.0899 18.7018 19.451 18.0248C18.8116 17.3478 18.3178 16.5396 17.9702 15.5994C17.6221 14.6593 17.4488 13.6248 17.4488 12.4965C17.4488 11.3683 17.627 10.3906 17.9846 9.45047C18.3415 8.51033 18.8491 7.69709 19.5079 7.01074C20.1655 6.3244 20.9512 5.78371 21.8632 5.38867C22.7752 4.99364 23.7859 4.79667 24.8954 4.79667C26.1368 4.79667 27.2177 5.03612 28.139 5.51557C29.0604 5.99502 29.8174 6.63998 30.4099 7.44771C31.0019 8.25654 31.4295 9.17792 31.6932 10.2118C31.9564 11.2463 32.0502 12.3272 31.9752 13.4554H21.4543C21.5106 14.7525 21.8383 15.6927 22.4408 16.2753ZM26.9683 8.60302C26.4888 8.07667 25.76 7.8135 24.7823 7.8135C24.1429 7.8135 23.6121 7.92164 23.189 8.13792C22.7658 8.35474 22.427 8.62178 22.1732 8.94178C21.9194 9.26178 21.7407 9.59998 21.6375 9.95695C21.5338 10.3145 21.4726 10.6339 21.4538 10.9158H27.9697C27.7815 9.90012 27.4483 9.12992 26.9683 8.60302Z" fill="white"/>
        <path d="M28.9103 1.02231H20.7697V3.27941H28.9103V1.02231Z" fill="white"/>
    </svg>
</svg>
