<svg width="32" height="32" viewBox="0 0 32 32" fill="none" xmlns="http://www.w3.org/2000/svg">
<path fill-rule="evenodd" clip-rule="evenodd" d="M3.83675 14.0256C11.1457 10.8389 16.0195 8.73807 18.4581 7.72304C25.4208 4.82492 26.8676 4.32149 27.8106 4.30486C28.018 4.30121 28.4818 4.35265 28.7822 4.59657C29.0358 4.80253 29.1056 5.08076 29.139 5.27603C29.1724 5.47131 29.214 5.91615 29.1809 6.26374C28.8036 10.231 27.171 19.8586 26.3404 24.3021C25.989 26.1823 25.2969 26.8127 24.627 26.8744C23.171 27.0085 22.0654 25.9115 20.6552 24.9864C18.4486 23.5389 17.202 22.6378 15.06 21.2253C12.5846 19.5929 14.1893 18.6957 15.6 17.2294C15.9692 16.8457 22.3843 11.0065 22.5084 10.4768C22.524 10.4106 22.5384 10.1636 22.3918 10.0332C22.2452 9.90284 22.0288 9.94743 21.8727 9.98289C21.6514 10.0332 18.1262 12.3648 11.2972 16.9779C10.2966 17.6655 9.39028 18.0005 8.57825 17.9829C7.68306 17.9636 5.96106 17.4764 4.68093 17.06C3.1108 16.5492 1.8629 16.2792 1.97156 15.4118C2.02816 14.96 2.64989 14.4979 3.83675 14.0256Z" fill="white"/>
</svg>
